<svg width="40" height="40" viewBox="0 0 40 40" fill="none" xmlns="http://www.w3.org/2000/svg">
<path d="M15 17.5C15 17.1685 15.1317 16.8505 15.3661 16.6161C15.6005 16.3817 15.9185 16.25 16.25 16.25H23.75C24.0815 16.25 24.3995 16.3817 24.6339 16.6161C24.8683 16.8505 25 17.1685 25 17.5C25 17.8315 24.8683 18.1495 24.6339 18.3839C24.3995 18.6183 24.0815 18.75 23.75 18.75H16.25C15.9185 18.75 15.6005 18.6183 15.3661 18.3839C15.1317 18.1495 15 17.8315 15 17.5Z" fill="#263238"/>
<path d="M16.25 21.25C15.9185 21.25 15.6005 21.3817 15.3661 21.6161C15.1317 21.8505 15 22.1685 15 22.5C15 22.8315 15.1317 23.1495 15.3661 23.3839C15.6005 23.6183 15.9185 23.75 16.25 23.75H21.25C21.5815 23.75 21.8995 23.6183 22.1339 23.3839C22.3683 23.1495 22.5 22.8315 22.5 22.5C22.5 22.1685 22.3683 21.8505 22.1339 21.6161C21.8995 21.3817 21.5815 21.25 21.25 21.25H16.25Z" fill="#263238"/>
<path d="M4.99989 19.9999C5.00052 16.6975 6.09095 13.4877 8.10201 10.8682C10.1131 8.24881 12.9323 6.36626 16.1225 5.51262C19.3126 4.65897 22.6953 4.88196 25.7458 6.14697C28.7963 7.41199 31.3441 9.64833 32.9939 12.5091C34.6437 15.3698 35.3033 18.695 34.8705 21.9689C34.4376 25.2428 32.9364 28.2824 30.5998 30.616C28.2632 32.9497 25.2218 34.4471 21.9474 34.8759C18.673 35.3046 15.3486 34.6408 12.4899 32.9874L6.64489 34.9374C6.42894 35.0095 6.19741 35.0213 5.97527 34.9714C5.75314 34.9216 5.54884 34.812 5.38442 34.6545C5.22 34.497 5.10171 34.2976 5.04231 34.0779C4.98292 33.8581 4.98467 33.6263 5.04739 33.4074L6.82739 27.1799C5.62493 24.978 4.99643 22.5087 4.99989 19.9999ZM19.9999 7.49992C17.7928 7.49978 15.6251 8.08399 13.717 9.19318C11.8089 10.3024 10.2286 11.897 9.13651 13.8149C8.04447 15.7329 7.4797 17.9057 7.49961 20.1127C7.51952 22.3197 8.12341 24.482 9.24989 26.3799C9.33656 26.5265 9.39235 26.6893 9.41385 26.8583C9.43534 27.0272 9.42208 27.1988 9.37489 27.3624L8.10239 31.8124L12.2474 30.4324C12.4234 30.3737 12.6103 30.3549 12.7945 30.3773C12.9788 30.3998 13.1557 30.463 13.3124 30.5624C14.9506 31.5992 16.8074 32.2406 18.7362 32.4362C20.665 32.6317 22.6128 32.3759 24.4257 31.6891C26.2386 31.0022 27.8669 29.903 29.1819 28.4785C30.4969 27.054 31.4625 25.3431 32.0024 23.4812C32.5423 21.6192 32.6418 19.6572 32.2928 17.7502C31.9439 15.8432 31.1562 14.0434 29.992 12.4933C28.8278 10.9431 27.3189 9.685 25.5847 8.81837C23.8505 7.95175 21.9386 7.50037 19.9999 7.49992Z" fill="#263238"/>
</svg>
