<svg width="24" height="24" viewBox="0 0 24 24" fill="none" xmlns="http://www.w3.org/2000/svg">
<path d="M18 22.5H6C5.6023 22.4996 5.221 22.3414 4.93978 22.0602C4.65856 21.779 4.5004 21.3977 4.5 21V3C4.5004 2.6023 4.65856 2.221 4.93978 1.93978C5.221 1.65856 5.6023 1.5004 6 1.5H18C18.3977 1.5004 18.779 1.65856 19.0602 1.93978C19.3414 2.221 19.4996 2.6023 19.5 3V15.4635L15.75 13.5885L12 15.4635V3H6V21H18V18H19.5V21C19.4994 21.3976 19.3412 21.7788 19.06 22.06C18.7788 22.3412 18.3976 22.4994 18 22.5V22.5ZM15.75 11.9115L18 13.0365V3H13.5V13.0365L15.75 11.9115Z" fill="white"/>
</svg>
