<svg width="116" height="117" viewBox="0 0 116 117" fill="none" xmlns="http://www.w3.org/2000/svg">
<path d="M54.9672 44.8045L56.4456 35.2202L55.7027 34.0129C55.5941 33.8436 55.6138 33.627 55.7496 33.4801L57.6846 31.3691C57.8524 31.1899 58.156 31.1899 58.3263 31.3691L60.2614 33.4801C60.3996 33.627 60.4168 33.8436 60.3082 34.0129L59.5653 35.2202L61.0462 44.802C72.7032 44.6053 79.7596 43.261 79.7596 41.8645C79.7596 35.0286 75.1541 34.7273 70.0352 33.042C66.8809 32.0089 62.9763 31.4264 63.8105 25.9447C65.8887 24.0278 66.6119 20.0821 66.6119 20.0821C66.6119 20.0821 69.3787 18.6756 69.697 15.982C69.9315 13.9283 68.8677 12.9748 68.8677 12.9748C68.8677 12.9748 68.8677 12.828 68.8677 10.3709C68.8677 4.57057 63.9413 0 58.0153 0C52.0869 0 47.1605 4.56808 47.1605 10.3709C47.1605 12.828 47.1605 12.9748 47.1605 12.9748C47.1605 12.9748 46.0992 13.9283 46.3337 15.982C46.652 18.6756 49.4164 20.0821 49.4164 20.0821C49.4164 20.0821 50.1395 24.0278 52.2202 25.9447C53.0544 31.4264 49.1473 32.0089 45.9931 33.042C40.8741 34.7298 36.2686 35.031 36.2686 41.8645C36.2513 43.261 43.3077 44.6053 54.9672 44.8045Z" fill="#E5E5E5"/>
<path d="M22.5193 109.166C20.4115 108.479 17.8076 108.078 18.3679 104.426C19.7574 103.151 20.2363 100.52 20.2363 100.52C20.2363 100.52 22.0775 99.5865 22.2898 97.7917C22.4452 96.4225 21.7369 95.7802 21.7369 95.7802C21.7369 95.7802 21.7369 95.6831 21.7369 94.0501C21.7369 90.179 18.4518 87.137 14.5003 87.137C10.5488 87.137 7.26373 90.1815 7.26373 94.0501C7.26373 95.6831 7.26373 95.7802 7.26373 95.7802C7.26373 95.7802 6.55537 96.4225 6.71087 97.7917C6.92313 99.5865 8.76436 100.52 8.76436 100.52C8.76436 100.52 9.24318 103.154 10.6327 104.426C11.1955 108.083 8.58912 108.479 6.48133 109.166C3.0753 110.279 0 110.483 0 115.043C0 115.972 4.70674 116.871 12.4764 117L13.4637 110.62L12.9627 109.808C12.8985 109.696 12.9034 109.549 12.9947 109.447L14.288 108.048C14.4016 107.926 14.599 107.926 14.7126 108.048L16.0059 109.447C16.0972 109.549 16.1021 109.696 16.038 109.808L15.5369 110.615L16.5242 116.995C24.2914 116.868 29.0006 115.969 29.0006 115.041C29.0006 110.483 25.9278 110.279 22.5193 109.166Z" fill="#E5E5E5"/>
<path d="M66.0201 109.166C63.9123 108.479 61.3084 108.078 61.8687 104.426C63.2558 103.151 63.737 100.52 63.737 100.52C63.737 100.52 65.5758 99.5865 65.7881 97.7917C65.9436 96.4225 65.2377 95.7802 65.2377 95.7802C65.2377 95.7802 65.2377 95.6831 65.2377 94.0501C65.2377 90.179 61.9501 87.137 57.9986 87.137C54.0471 87.137 50.762 90.1815 50.762 94.0501C50.762 95.6831 50.762 95.7802 50.762 95.7802C50.762 95.7802 50.0537 96.4225 50.2092 97.7917C50.4214 99.5865 52.2627 100.52 52.2627 100.52C52.2627 100.52 52.7415 103.154 54.1311 104.426C54.6938 108.083 52.0874 108.479 49.9796 109.166C46.5687 110.279 43.4958 110.483 43.4958 115.043C43.4958 115.972 48.2026 116.871 55.9723 117L56.9595 110.62L56.4585 109.808C56.3943 109.701 56.3993 109.552 56.4906 109.45L57.7839 108.048C57.8974 107.926 58.0949 107.926 58.2084 108.048L59.4993 109.45C59.5906 109.552 59.5955 109.701 59.5338 109.808L59.0328 110.62L60.02 116.998C67.7848 116.871 72.4965 115.972 72.4965 115.043C72.5014 110.483 69.4286 110.279 66.0201 109.166Z" fill="#E5E5E5"/>
<path d="M109.521 109.171C107.413 108.479 104.809 108.083 105.365 104.431C106.757 103.151 107.236 100.52 107.236 100.52C107.236 100.52 109.082 99.5865 109.289 97.7917C109.445 96.4225 108.739 95.7802 108.739 95.7802C108.739 95.7802 108.739 95.6881 108.739 94.0501C108.739 90.179 105.456 87.137 101.5 87.137C97.5432 87.137 94.2606 90.1815 94.2606 94.0501C94.2606 95.6881 94.2606 95.7802 94.2606 95.7802C94.2606 95.7802 93.5572 96.4225 93.7077 97.7917C93.9175 99.5865 95.7637 100.52 95.7637 100.52C95.7637 100.52 96.2376 103.154 97.6345 104.431C98.1948 108.088 95.586 108.479 93.4782 109.171C90.0647 110.276 86.9944 110.483 86.9944 115.043C86.9944 115.972 91.6986 116.871 99.4708 117L100.458 110.62L99.9595 109.806C99.8978 109.699 99.9027 109.549 99.9941 109.452L101.282 108.051C101.396 107.929 101.598 107.929 101.712 108.051L103 109.452C103.092 109.549 103.097 109.699 103.035 109.806L102.534 110.617L103.521 116.995C111.286 116.868 115.997 115.969 115.997 115.041C116.002 110.483 112.932 110.276 109.521 109.171Z" fill="#E5E5E5"/>
<path d="M14.5004 81.8968C16.1022 81.8968 17.4005 80.5898 17.4005 78.9692V67.2715H55.1013V78.9692C55.1013 80.5848 56.397 81.8968 58.0013 81.8968C59.6056 81.8968 60.9014 80.5898 60.9014 78.9692V67.2715H98.6022V78.9692C98.6022 80.5848 99.8955 81.8968 101.502 81.8968C103.109 81.8968 104.402 80.5898 104.402 78.9692V64.3514C104.402 62.7357 103.109 61.4238 101.502 61.4238H60.9014V52.6486C60.9014 51.033 59.6081 49.7236 58.0013 49.7236C56.397 49.7236 55.1013 51.033 55.1013 52.6486V61.4238H14.5004C12.8986 61.4238 11.6003 62.7308 11.6003 64.3514V78.9767C11.6028 80.5898 12.9011 81.8968 14.5004 81.8968Z" fill="#E5E5E5"/>
</svg>
