<svg width="20" height="20" viewBox="0 0 20 20" fill="none" xmlns="http://www.w3.org/2000/svg">
<path d="M19.7938 16.3108H17.7317V14.3691C17.7317 14.2623 17.6389 14.1749 17.5255 14.1749H16.2882C16.1748 14.1749 16.082 14.2623 16.082 14.3691V16.3108H14.0199C13.9065 16.3108 13.8137 16.3982 13.8137 16.505V17.67C13.8137 17.7768 13.9065 17.8641 14.0199 17.8641H16.082V19.8058C16.082 19.9126 16.1748 20 16.2882 20H17.5255C17.6389 20 17.7317 19.9126 17.7317 19.8058V17.8641H19.7938C19.9072 17.8641 20 17.7768 20 17.67V16.505C20 16.3982 19.9072 16.3108 19.7938 16.3108ZM6.42871 9.6702C6.40551 9.45904 6.39262 9.24545 6.39262 9.02944C6.39262 8.64353 6.43128 8.26732 6.50346 7.90083C6.5215 7.81345 6.47253 7.72365 6.38746 7.68724C6.0369 7.53919 5.7147 7.33531 5.43631 7.07804C5.10828 6.77855 4.85015 6.41796 4.6784 6.01929C4.50664 5.62061 4.42503 5.19261 4.43877 4.76257C4.46196 3.98347 4.79448 3.2432 5.37445 2.68496C6.01113 2.0709 6.86691 1.73596 7.77681 1.74567C8.59908 1.75295 9.393 2.05148 9.99359 2.58059C10.1972 2.7602 10.3725 2.95922 10.5194 3.17281C10.571 3.24805 10.6715 3.2796 10.7591 3.25048C11.2128 3.10242 11.6923 2.99806 12.1846 2.94951C12.3289 2.93495 12.4114 2.78932 12.347 2.66797C11.5092 1.10733 9.79769 0.0296949 7.81806 0.00056949C4.96203 -0.0406915 2.58029 2.16556 2.58029 4.8548C2.58029 6.37903 3.32522 7.73821 4.4929 8.62897C3.67321 8.98575 2.91796 9.47846 2.26324 10.0949C0.850687 11.4226 0.0516173 13.175 6.44543e-05 15.0463C-0.000623532 15.0722 0.00420208 15.0979 0.0142567 15.1221C0.0243113 15.1462 0.0393917 15.1682 0.0586091 15.1867C0.0778266 15.2053 0.100792 15.22 0.126153 15.2301C0.151514 15.2401 0.178757 15.2453 0.206276 15.2453H1.65233C1.76317 15.2453 1.85597 15.1628 1.85855 15.0584C1.90752 13.6507 2.51327 12.3327 3.57783 11.3328C4.33566 10.6192 5.26361 10.1241 6.27663 9.88378C6.37458 9.85709 6.4416 9.76728 6.42871 9.6702ZM18.041 9.02944C18.041 6.37417 15.7752 4.21647 12.9656 4.17521C10.1096 4.13395 7.73042 6.3402 7.73042 9.02944C7.73042 10.5537 8.47793 11.9129 9.64303 12.8036C8.81485 13.1651 8.06092 13.6613 7.41594 14.2696C6.0034 15.5972 5.20433 17.3496 5.15277 19.2185C5.15209 19.2444 5.15691 19.2701 5.16697 19.2943C5.17702 19.3184 5.1921 19.3404 5.21132 19.3589C5.23054 19.3775 5.2535 19.3922 5.27886 19.4023C5.30422 19.4123 5.33147 19.4175 5.35898 19.4175H6.80246C6.9133 19.4175 7.0061 19.335 7.00868 19.2306C7.05765 17.8229 7.6634 16.505 8.72796 15.505C9.83893 14.4589 11.3133 13.8837 12.8857 13.8837C15.7314 13.8837 18.041 11.7114 18.041 9.02944ZM15.2185 11.226C14.5947 11.8133 13.7673 12.1361 12.8857 12.1361C12.0041 12.1361 11.1767 11.8133 10.5529 11.226C10.2417 10.9344 9.9957 10.587 9.82966 10.2042C9.66362 9.8215 9.58088 9.41128 9.58632 8.99789C9.59405 8.20179 9.93172 7.4324 10.522 6.86203C11.1406 6.26496 11.9681 5.93244 12.8522 5.92273C13.726 5.91545 14.5741 6.23583 15.1979 6.81106C15.8371 7.40085 16.1877 8.18966 16.1877 9.02944C16.1851 9.85951 15.8423 10.6386 15.2185 11.226Z" fill="white"/>
</svg>
