<svg width="142" height="144" viewBox="0 0 142 144" fill="none" xmlns="http://www.w3.org/2000/svg">
<path d="M78.2956 37.6584C83.884 33.6052 87.7383 25.6043 87.7383 18.4037C87.7383 8.23643 80.0947 0 70.6768 0C61.2549 0 53.6107 8.2357 53.6107 18.4037C53.6107 25.6043 57.4616 33.6052 63.0534 37.6584C49.6854 41.3158 39.7778 53.8279 39.7778 63.1023C39.7778 74.0643 101.577 74.0643 101.577 63.1023C101.569 53.8279 91.6662 41.3165 78.2956 37.6584ZM70.6721 71.3236L62.0138 61.9899L69.3023 42.9967H69.2273L66.3965 39.4954C67.767 40.0278 69.1945 40.342 70.6728 40.342C72.1538 40.342 73.5732 40.0271 74.9437 39.4954L72.113 42.9967H72.0393L79.3244 61.9899L70.6721 71.3236Z" fill="#E5E5E5"/>
<path d="M55.6321 114.496C57.4453 114.496 58.915 112.235 58.915 110.282C58.915 108.325 57.4406 106.746 55.6321 106.746C53.8228 106.746 52.3525 108.325 52.3525 110.282C52.3525 112.235 53.8235 114.496 55.6321 114.496Z" fill="#E5E5E5"/>
<path d="M62.0517 116.959C62.0316 116.854 62.0048 116.758 61.964 116.66C61.9251 116.589 61.8802 116.537 61.838 116.475C61.7764 116.388 61.7262 116.309 61.6505 116.234C61.5936 116.18 61.5299 116.15 61.4589 116.105C61.3953 116.061 61.3383 116.009 61.2673 115.974C61.1555 115.929 58.5404 114.927 56.1384 114.794L55.8122 115.502H55.8041L56.6769 122.834L55.6367 124.787L54.6004 122.834L55.4779 115.502H55.4652L55.135 114.794C52.739 114.927 50.1279 115.929 50.012 115.974C49.9364 116.009 49.8774 116.061 49.8144 116.105C49.7495 116.15 49.6818 116.18 49.6269 116.234C49.5512 116.309 49.4983 116.392 49.4393 116.475C49.3924 116.537 49.3516 116.585 49.3188 116.651C49.2719 116.748 49.2511 116.853 49.231 116.955C49.2129 117.016 49.1761 117.073 49.1721 117.135L48.1198 127.207C48.0441 127.974 48.5538 128.667 49.2638 128.756C49.3147 128.761 49.3596 128.761 49.4146 128.761C50.065 128.761 50.6263 128.229 50.6993 127.52L51.6438 118.349C51.7543 118.314 51.8742 118.274 51.9988 118.235V127.78L50.9692 141.618C50.9016 142.537 51.5399 143.343 52.3967 143.422C52.4416 143.426 52.4804 143.426 52.5253 143.426C53.3291 143.426 54.0076 142.761 54.0713 141.882L55.007 129.377C55.1993 129.47 55.4089 129.526 55.6333 129.526C55.8638 129.526 56.0674 129.47 56.263 129.377L57.1987 141.882C57.2624 142.761 57.9429 143.426 58.7447 143.426C58.7896 143.426 58.8285 143.426 58.8733 143.422C59.7294 143.343 60.3664 142.533 60.3028 141.618L59.2672 127.78V118.235C59.3998 118.275 59.5217 118.314 59.6303 118.349L60.5788 127.52C60.6498 128.232 61.2131 128.761 61.8615 128.761C61.9064 128.761 61.9613 128.761 62.0062 128.756C62.7222 128.668 63.23 127.974 63.1523 127.207L62.112 117.143C62.1073 117.073 62.0685 117.021 62.0517 116.959Z" fill="#E5E5E5"/>
<path d="M70.6725 114.496C72.4797 114.496 73.948 112.235 73.948 110.282C73.948 108.325 72.4804 106.746 70.6725 106.746C68.8599 106.746 67.3896 108.325 67.3896 110.282C67.3896 112.235 68.864 114.496 70.6725 114.496Z" fill="#E5E5E5"/>
<path d="M77.0921 116.959C77.072 116.854 77.0473 116.758 77.0064 116.66C76.9655 116.589 76.9247 116.537 76.8758 116.475C76.8188 116.388 76.7659 116.309 76.6889 116.234C76.6313 116.18 76.5656 116.15 76.5013 116.105C76.4317 116.061 76.3828 116.009 76.3051 115.974C76.1912 115.929 73.5808 114.927 71.1828 114.794L70.8526 115.502H70.8399L71.7127 122.834L70.6724 124.797L69.6321 122.839L70.5096 115.506H70.4936L70.172 114.794C67.7713 114.931 65.161 115.929 65.0424 115.982C64.9667 116.014 64.9098 116.066 64.8508 116.115C64.7839 116.15 64.7142 116.185 64.6633 116.238C64.5836 116.309 64.5246 116.396 64.4717 116.475C64.4288 116.537 64.384 116.589 64.3451 116.66C64.3042 116.753 64.2842 116.862 64.2533 116.959C64.2453 117.021 64.2085 117.073 64.2004 117.14L63.1602 127.208C63.0851 127.974 63.5942 128.668 64.3083 128.757C64.3572 128.762 64.4047 128.762 64.4556 128.762C65.106 128.762 65.6694 128.229 65.7404 127.521L66.6889 118.35C66.7927 118.315 66.9193 118.275 67.0399 118.236V127.781L66.0076 141.619C65.9427 142.537 66.577 143.344 67.4418 143.422C67.4826 143.427 67.5255 143.427 67.5664 143.427C68.3702 143.427 69.0454 142.762 69.1123 141.883L70.0481 129.377C70.2397 129.471 70.448 129.527 70.6784 129.527C70.9048 129.527 71.1111 129.471 71.3067 129.377L72.2412 141.883C72.3108 142.762 72.9874 143.427 73.7871 143.427C73.832 143.427 73.8689 143.427 73.9178 143.422C74.7738 143.344 75.4108 142.534 75.3452 141.619L74.313 127.781V118.236C74.4396 118.275 74.5622 118.315 74.668 118.35L75.6138 127.521C75.6875 128.233 76.2501 128.762 76.8992 128.762C76.9434 128.762 76.993 128.762 77.0499 128.757C77.76 128.669 78.265 127.974 78.188 127.208L77.1477 117.144C77.1417 117.073 77.1049 117.021 77.0921 116.959Z" fill="#E5E5E5"/>
<path d="M85.7114 114.496C87.522 114.496 88.991 112.235 88.991 110.282C88.991 108.325 87.5227 106.746 85.7114 106.746C83.8962 106.746 82.4319 108.325 82.4319 110.282C82.4319 112.235 83.9002 114.496 85.7114 114.496Z" fill="#E5E5E5"/>
<path d="M92.1311 116.959C92.107 116.854 92.0829 116.758 92.0413 116.66C92.0085 116.589 91.9596 116.537 91.9188 116.475C91.8531 116.388 91.8049 116.309 91.7312 116.234C91.6743 116.18 91.6086 116.15 91.5436 116.105C91.4787 116.061 91.4211 116.009 91.3521 115.974C91.2295 115.929 88.6238 114.927 86.2171 114.794L85.8909 115.502H85.8748L86.7483 122.834L85.712 124.787L84.6758 122.834L85.5493 115.502H85.5406L85.2063 114.794C82.8076 114.927 80.21 115.929 80.0834 115.974C80.0104 116.009 79.9534 116.061 79.8918 116.105C79.8221 116.15 79.7572 116.18 79.7043 116.234C79.6272 116.309 79.5703 116.392 79.5127 116.475C79.4718 116.537 79.4229 116.585 79.3901 116.651C79.3459 116.748 79.3251 116.853 79.2923 116.955C79.2836 117.016 79.2508 117.073 79.2394 117.135L78.2072 127.199C78.1301 127.965 78.6399 128.668 79.3492 128.752C79.3981 128.756 79.447 128.756 79.4959 128.756C80.149 128.756 80.7037 128.224 80.7814 127.516L81.7231 118.34C81.833 118.309 81.9603 118.269 82.0902 118.226V127.771L81.054 141.609C80.989 142.532 81.6253 143.342 82.4861 143.417C82.527 143.422 82.5631 143.422 82.612 143.422C83.4111 143.422 84.093 142.761 84.162 141.873L85.0918 129.372C85.2833 129.469 85.4963 129.521 85.7201 129.521C85.9492 129.521 86.1568 129.469 86.3524 129.372L87.2868 141.873C87.3525 142.753 88.029 143.422 88.8362 143.422C88.8777 143.422 88.9139 143.422 88.9587 143.417C89.8195 143.333 90.4518 142.529 90.3949 141.609L89.3586 127.771V118.226C89.4852 118.27 89.6031 118.309 89.7177 118.34L90.6554 127.516C90.7372 128.228 91.2918 128.756 91.9449 128.756C91.9931 128.756 92.0427 128.756 92.0916 128.752C92.8016 128.668 93.3107 127.974 93.2337 127.199L92.1974 117.135C92.18 117.073 92.1472 117.021 92.1311 116.959Z" fill="#E5E5E5"/>
<path d="M138.099 125.621C138.164 123.646 137.858 121.645 137.177 119.736L140.016 117.831L137.234 113.032L134.4 114.941C133.099 113.441 131.573 112.276 129.901 111.47L130.651 107.964L125.532 106.693L124.786 110.203C122.958 110.123 121.098 110.454 119.329 111.193L117.551 108.131L113.113 111.126L114.883 114.183C113.493 115.577 112.408 117.232 111.661 119.04L108.409 118.226L107.227 123.737L110.478 124.551C110.412 126.526 110.714 128.518 111.404 130.436L108.561 132.345L111.343 137.14L114.181 135.227C115.47 136.735 117.004 137.896 118.68 138.702L117.934 142.208L123.04 143.479L123.791 139.973C125.618 140.053 127.478 139.722 129.248 138.979L131.019 142.041L135.464 139.041L133.694 135.98C135.084 134.589 136.174 132.926 136.908 131.123L140.163 131.938L141.341 126.425L138.099 125.621ZM129.28 133.701C124.867 136.669 119.063 135.222 116.302 130.467C113.553 125.712 114.89 119.444 119.295 116.475C123.701 113.502 129.521 114.945 132.278 119.704C135.035 124.464 133.686 130.736 129.28 133.701Z" fill="#E5E5E5"/>
<path d="M17.0574 106.688C7.65157 106.688 0 114.94 0 125.079C0 135.227 7.65157 143.479 17.0574 143.479C26.4633 143.479 34.1149 135.227 34.1149 125.079C34.1189 114.94 26.4626 106.688 17.0574 106.688ZM24.3627 137.906L23.6975 136.665L23.0391 137.073L23.6942 138.301C21.814 139.409 19.7093 140.082 17.4453 140.149V138.692H16.6763V140.149C14.4129 140.082 12.2956 139.41 10.4254 138.301L11.0838 137.073L10.4207 136.665L9.7562 137.914C7.884 136.673 6.31792 134.984 5.16981 132.97L6.32796 132.248L5.94281 131.536L4.80274 132.24C3.77923 130.217 3.15293 127.947 3.08997 125.501H4.44773V124.674H3.08997C3.15695 122.232 3.78325 119.954 4.80274 117.926L5.93879 118.639L6.32194 117.922L5.16981 117.2C6.31792 115.191 7.87596 113.501 9.74816 112.261L10.4207 113.51L11.0791 113.097L10.4247 111.869C12.2989 110.766 14.4116 110.088 16.6756 110.021V111.481H16.9898L14.914 115.954H16.2965V124.611L11.9914 127.285L11.2982 125.992L8.65766 130.307L13.4443 130.004L12.747 128.711L17.4372 125.79C17.462 125.773 17.4674 125.719 17.5002 125.702C17.5839 125.631 17.6168 125.552 17.6757 125.456C17.7266 125.363 17.7675 125.289 17.7795 125.178C17.7835 125.138 17.8184 125.112 17.8184 125.073V115.946H19.1989L17.1291 111.476H17.4332L17.4372 110.016C19.7006 110.087 21.8093 110.76 23.6895 111.864L23.025 113.096L23.6942 113.5L24.3587 112.256C26.2249 113.492 27.7909 115.181 28.939 117.195L27.7869 117.921L28.1721 118.634L29.3081 117.921C30.3296 119.949 30.9579 122.223 31.0236 124.664H29.6712V125.492H31.0236C30.9586 127.938 30.3303 130.216 29.3081 132.239L28.1721 131.527L27.7909 132.248L28.9431 132.965C27.795 134.98 26.2282 136.665 24.3627 137.906Z" fill="#E5E5E5"/>
<path d="M71.8027 81.8709V77.4066H69.5406V81.8709H15.9294V101.326H18.1848V84.3038H69.5406V101.326H71.8027V84.3038H123.162V101.326H125.413V81.8709H71.8027Z" fill="#E5E5E5"/>
</svg>
