<svg width="41" height="40" viewBox="0 0 41 40" fill="none" xmlns="http://www.w3.org/2000/svg">
<path d="M35.4515 27.4906C34.5243 25.8944 33.4187 22.8653 33.4187 17.5V16.3912C33.4187 9.47156 27.8676 3.80094 21.0443 3.75031L20.949 3.75C17.6381 3.75431 14.4645 5.07367 12.1263 7.41786C9.78808 9.76206 8.47686 12.9391 8.48105 16.25V17.5C8.48105 22.865 7.37496 25.8938 6.4473 27.49C6.22574 27.8696 6.10817 28.3009 6.10646 28.7404C6.10476 29.18 6.21896 29.6122 6.43757 29.9935C6.65618 30.3748 6.97146 30.6917 7.35162 30.9123C7.73179 31.1329 8.1634 31.2494 8.60293 31.25H14.6993C14.6993 32.9076 15.3578 34.4973 16.5299 35.6694C17.702 36.8415 19.2917 37.5 20.9493 37.5C22.6069 37.5 24.1966 36.8415 25.3687 35.6694C26.5408 34.4973 27.1993 32.9076 27.1993 31.25H33.2957C33.7352 31.2494 34.1668 31.133 34.5469 30.9124C34.927 30.6919 35.2423 30.375 35.4609 29.9938C35.6795 29.6126 35.7938 29.1804 35.7921 28.741C35.7905 28.3015 35.673 27.8702 35.4515 27.4906ZM20.9493 35C19.9551 34.9989 19.0019 34.6034 18.2989 33.9004C17.5959 33.1974 17.2004 32.2442 17.1993 31.25H24.6993C24.6982 32.2442 24.3028 33.1974 23.5997 33.9004C22.8967 34.6034 21.9435 34.9989 20.9493 35ZM8.60855 28.7464C9.6909 26.8844 10.9811 23.4219 10.9811 17.5V16.25C10.9769 13.602 12.0248 11.0608 13.8943 9.18546C15.7638 7.3101 18.3016 6.25418 20.9496 6.25L21.0257 6.25031C26.4807 6.29078 30.9189 10.84 30.9189 16.3912V17.5C30.9189 23.4219 32.2084 26.8844 33.2957 28.75L8.60855 28.7464Z" fill="#263238"/>
</svg>
