<svg width="24" height="24" viewBox="0 0 24 24" fill="none" xmlns="http://www.w3.org/2000/svg">
<path d="M19.5 22.2C19.5 22.2 20.8 22.2 20.8 20.6C20.8 19 19.5 14.2 14.3 14.2C9.1 14.2 7.8 19 7.8 20.6C7.8 22.2 9.1 22.2 9.1 22.2H19.5ZM9.1286 20.6C9.119 20.5984 9.10945 20.5962 9.1 20.5936C9.1013 20.1712 9.3171 18.9456 10.088 17.8416C10.8056 16.8064 12.0666 15.8 14.3 15.8C16.5321 15.8 17.7931 16.808 18.512 17.8416C19.2829 18.9456 19.4974 20.1728 19.5 20.5936L19.4896 20.5968C19.4836 20.5981 19.4775 20.5991 19.4714 20.6H9.1286ZM14.3 11C14.9896 11 15.6509 10.6629 16.1385 10.0627C16.6261 9.46263 16.9 8.64869 16.9 7.8C16.9 6.95131 16.6261 6.13737 16.1385 5.53726C15.6509 4.93714 14.9896 4.6 14.3 4.6C13.6104 4.6 12.9491 4.93714 12.4615 5.53726C11.9739 6.13737 11.7 6.95131 11.7 7.8C11.7 8.64869 11.9739 9.46263 12.4615 10.0627C12.9491 10.6629 13.6104 11 14.3 11ZM18.2 7.8C18.2 8.43035 18.0991 9.05452 17.9031 9.63688C17.7071 10.2192 17.4199 10.7484 17.0577 11.1941C16.6956 11.6398 16.2656 11.9934 15.7925 12.2346C15.3193 12.4758 14.8122 12.6 14.3 12.6C13.7878 12.6 13.2807 12.4758 12.8075 12.2346C12.3344 11.9934 11.9044 11.6398 11.5423 11.1941C11.1801 10.7484 10.8929 10.2192 10.6969 9.63688C10.5009 9.05452 10.4 8.43035 10.4 7.8C10.4 6.52696 10.8109 5.30606 11.5423 4.40589C12.2737 3.50571 13.2657 3 14.3 3C15.3343 3 16.3263 3.50571 17.0577 4.40589C17.7891 5.30606 18.2 6.52696 18.2 7.8ZM9.0168 14.648C8.49678 14.4465 7.96073 14.314 7.4178 14.2528C7.11273 14.2171 6.80644 14.1995 6.5 14.2C1.3 14.2 0 19 0 20.6C0 21.6672 0.4329 22.2 1.3 22.2H6.7808C6.58808 21.7005 6.49197 21.1529 6.5 20.6C6.5 18.984 6.9901 17.3328 7.917 15.9536C8.2329 15.4832 8.6008 15.0432 9.0168 14.648ZM6.396 15.8C5.6266 17.2228 5.21097 18.8909 5.2 20.6H1.3C1.3 20.184 1.5132 18.952 2.288 17.8416C2.9965 16.824 4.2276 15.832 6.396 15.8016V15.8ZM1.95 8.6C1.95 7.32696 2.36089 6.10606 3.09228 5.20589C3.82368 4.30571 4.81566 3.8 5.85 3.8C6.88434 3.8 7.87632 4.30571 8.60772 5.20589C9.33911 6.10606 9.75 7.32696 9.75 8.6C9.75 9.87304 9.33911 11.0939 8.60772 11.9941C7.87632 12.8943 6.88434 13.4 5.85 13.4C4.81566 13.4 3.82368 12.8943 3.09228 11.9941C2.36089 11.0939 1.95 9.87304 1.95 8.6ZM5.85 5.4C5.16044 5.4 4.49912 5.73714 4.01152 6.33726C3.52393 6.93737 3.25 7.75131 3.25 8.6C3.25 9.44869 3.52393 10.2626 4.01152 10.8627C4.49912 11.4629 5.16044 11.8 5.85 11.8C6.53956 11.8 7.20088 11.4629 7.68848 10.8627C8.17607 10.2626 8.45 9.44869 8.45 8.6C8.45 7.75131 8.17607 6.93737 7.68848 6.33726C7.20088 5.73714 6.53956 5.4 5.85 5.4Z" fill="white"/>
</svg>
