<svg width="113" height="117" viewBox="0 0 113 117" fill="none" xmlns="http://www.w3.org/2000/svg">
<path d="M109.386 0.875267H49.316C47.3175 0.875267 45.7012 2.55407 45.7012 4.62019V31.0345L48.3148 27.8705C49.5559 26.3662 51.1921 25.4386 52.931 25.0511V8.36367H105.77V57.2625H52.9312V49.077L51.3034 51.048C49.8808 52.7667 47.8726 53.8332 45.7012 54.0434V61.0063C45.7012 63.0724 47.3175 64.749 49.316 64.749H68.8249L58.9135 111.34C58.4695 113.429 59.7448 115.496 61.7643 115.956C63.7655 116.412 65.7778 115.096 66.2177 113.008L76.483 64.7493H82.4505L92.7159 113.008C93.1005 114.815 94.6483 116.048 96.3648 116.046C96.6313 116.046 96.9038 116.018 97.1735 115.956C99.1929 115.496 100.468 113.429 100.02 111.34L90.1096 64.749H109.386C111.382 64.749 113.001 63.0724 113.001 61.0063V4.62019C113 2.55407 111.382 0.875267 109.386 0.875267Z" fill="#E5E5E5"/>
<path d="M80.6711 22.7413C80.3862 21.9978 79.5785 21.6327 78.8608 21.927L57.5636 29.7102C55.609 28.1433 52.789 28.4233 51.159 30.3861L44.4011 38.5573L38.4089 33.239C38.4484 33.6782 38.5382 34.105 38.5382 34.5556V46.1009L41.872 49.0586C43.8504 50.8129 46.8099 50.5418 48.4641 48.5331L56.5093 38.7923L62.9977 34.8621L80.0733 24.5179C80.6637 24.1655 80.9254 23.4124 80.6711 22.7413Z" fill="#E5E5E5"/>
<path d="M25.383 24.8118H21.3696C18.2967 24.8118 15.5947 26.3581 13.8772 28.7152L1.55801 40.4587C-0.361494 42.2291 -0.535596 45.2957 1.19295 47.2951L11.2438 58.9107C12.9573 60.8972 15.9235 61.0729 17.8428 59.2875C19.7671 57.5018 19.9297 54.4433 18.2053 52.4532L11.2775 44.4432L21.1177 35.3262L15.3866 43.3881L20.9928 49.8688C24.0906 53.4531 23.7985 58.9602 20.3384 62.1701C17.976 64.3629 14.7521 64.8774 11.9573 63.8661C11.9573 63.8661 12.0007 86.2579 12.0007 110.238C12.0007 113.446 14.5115 116.046 17.6096 116.046C20.7044 116.046 23.2185 113.446 23.2185 110.238C23.2185 86.2653 23.2185 99.9456 23.2185 75.6266H26.9598C26.9598 99.9279 26.9598 86.2579 26.9598 110.238C26.9598 111.913 26.5088 113.463 25.7898 114.836C26.731 115.585 27.9021 116.046 29.1786 116.046C32.2782 116.046 34.7891 113.446 34.7891 110.238C34.7891 86.2653 34.7962 96.315 34.7962 34.5554C34.7967 29.174 30.5834 24.8118 25.383 24.8118Z" fill="#E5E5E5"/>
<path d="M18.3786 21.3265C19.8783 22.1336 21.5621 22.6345 23.3708 22.6345C25.1841 22.6345 26.8678 22.1336 28.3719 21.325C31.8826 19.4418 34.3025 15.6926 34.3025 11.3168C34.3025 5.06582 29.4082 0 23.3705 0C17.3338 0 12.4407 5.06582 12.4407 11.3168C12.4409 15.695 14.8633 19.4456 18.3786 21.3265Z" fill="#E5E5E5"/>
</svg>
