<svg width="24" height="24" viewBox="0 0 24 24" fill="none" xmlns="http://www.w3.org/2000/svg">
<path d="M20.25 4.125H3.75C3.45173 4.12532 3.16577 4.24395 2.95486 4.45486C2.74395 4.66577 2.62532 4.95173 2.625 5.25V18.7501C2.625 18.8978 2.6541 19.0441 2.71064 19.1806C2.76718 19.3171 2.85004 19.4411 2.95451 19.5456C3.05898 19.65 3.183 19.7329 3.31949 19.7894C3.45598 19.8459 3.60227 19.875 3.75 19.875L5.00531 19.8749C5.07624 19.8749 5.14572 19.8548 5.20567 19.8169C5.26563 19.779 5.3136 19.7249 5.34403 19.6608C5.73971 18.8272 6.36373 18.123 7.14362 17.6299C7.92352 17.1368 8.82729 16.8751 9.75 16.8751C10.6727 16.8751 11.5765 17.1368 12.3564 17.6299C13.1363 18.123 13.7603 18.8272 14.156 19.6608C14.1864 19.7249 14.2344 19.779 14.2943 19.8169C14.3543 19.8548 14.4238 19.8749 14.4947 19.8749L20.25 19.875C20.5483 19.8747 20.8342 19.756 21.0451 19.5451C21.256 19.3342 21.3747 19.0483 21.375 18.75V5.25C21.3747 4.95173 21.256 4.66577 21.0451 4.45486C20.8342 4.24395 20.5483 4.12532 20.25 4.125ZM20.625 18.75C20.6249 18.8494 20.5854 18.9448 20.5151 19.0151C20.4447 19.0854 20.3494 19.1249 20.25 19.125L14.726 19.1249C14.0365 17.8294 12.8709 16.8522 11.475 16.3994C12.1104 16.0216 12.6041 15.4456 12.8804 14.7599C13.1567 14.0743 13.2002 13.3169 13.0043 12.6041C12.8084 11.8913 12.3839 11.2625 11.7959 10.8144C11.208 10.3662 10.4892 10.1235 9.75 10.1235C9.01077 10.1235 8.29198 10.3662 7.70406 10.8144C7.11614 11.2625 6.69161 11.8913 6.49569 12.6041C6.29977 13.3169 6.34329 14.0743 6.61958 14.7599C6.89586 15.4456 7.38962 16.0216 8.025 16.3994C6.62907 16.8522 5.4635 17.8294 4.77403 19.1249L3.75 19.125C3.65056 19.125 3.55519 19.0855 3.48487 19.0152C3.41454 18.9449 3.37502 18.8495 3.375 18.7501V5.25C3.3751 5.15057 3.41464 5.05525 3.48494 4.98494C3.55525 4.91464 3.65057 4.8751 3.75 4.875H20.25C20.3494 4.8751 20.4447 4.91464 20.5151 4.98494C20.5854 5.05525 20.6249 5.15057 20.625 5.25V18.75ZM9.75 16.125C9.23082 16.125 8.72331 15.971 8.29163 15.6826C7.85995 15.3942 7.5235 14.9842 7.32482 14.5045C7.12614 14.0249 7.07415 13.4971 7.17544 12.9879C7.27672 12.4787 7.52673 12.011 7.89384 11.6438C8.26096 11.2767 8.72869 11.0267 9.23789 10.9254C9.74709 10.8242 10.2749 10.8761 10.7545 11.0748C11.2342 11.2735 11.6442 11.6099 11.9326 12.0416C12.221 12.4733 12.375 12.9808 12.375 13.5C12.3742 14.196 12.0974 14.8632 11.6053 15.3553C11.1132 15.8474 10.446 16.1242 9.75 16.125ZM18.375 7.5V16.5C18.375 16.5995 18.3355 16.6948 18.2652 16.7652C18.1948 16.8355 18.0995 16.875 18 16.875H16.5C16.4005 16.875 16.3052 16.8355 16.2348 16.7652C16.1645 16.6948 16.125 16.5995 16.125 16.5C16.125 16.4005 16.1645 16.3052 16.2348 16.2348C16.3052 16.1645 16.4005 16.125 16.5 16.125H17.625V7.875H6.375V9C6.375 9.09946 6.33549 9.19484 6.26517 9.26517C6.19484 9.33549 6.09946 9.375 6 9.375C5.90054 9.375 5.80516 9.33549 5.73484 9.26517C5.66451 9.19484 5.625 9.09946 5.625 9V7.5C5.625 7.40054 5.66451 7.30516 5.73484 7.23483C5.80516 7.16451 5.90054 7.125 6 7.125H18C18.0995 7.125 18.1948 7.16451 18.2652 7.23483C18.3355 7.30516 18.375 7.40054 18.375 7.5Z" fill="white"/>
</svg>
