<svg width="283" height="218" viewBox="0 0 283 218" fill="none" xmlns="http://www.w3.org/2000/svg">
<g clip-path="url(#clip0)">
<path d="M105.265 193.661C104.285 193.936 103.185 194.386 102.936 195.263C106.021 197.031 109.837 197.437 113.485 197.35C117.132 197.263 120.772 196.683 124.427 196.662C129.248 196.662 134.679 197.437 138.552 194.799C136.832 193.816 134.857 193.257 132.823 193.175C133.538 189.116 108.126 192.856 105.265 193.661Z" fill="url(#paint0_linear)"/>
<path d="M43.3288 145.309C42.0273 145.309 40.2276 145.904 40.549 147.041L99.9465 151.39C106.936 151.905 113.934 152.412 120.956 152.412C131.561 152.412 142.119 151.238 152.7 150.687C162.662 150.173 172.641 150.209 182.611 150.252C191.843 150.296 203.195 151.796 212.162 149.615C213.511 149.288 214.869 148.31 214.781 147.056C214.741 146.476 214.403 145.875 214.652 145.338C214.797 145.075 215.026 144.858 215.311 144.715C217.151 143.693 219.497 144.49 221.618 144.911C224.994 145.573 228.52 145.168 231.605 143.765C232.183 143.548 232.675 143.18 233.019 142.707C233.182 142.468 233.241 142.183 233.185 141.907C233.129 141.632 232.96 141.384 232.713 141.214C232.464 141.103 232.188 141.046 231.91 141.047L213.728 139.772C213.057 139.678 212.37 139.733 211.728 139.931C211.013 140.214 211.053 140.968 210.474 141.279C209.534 141.779 207.397 141.511 206.321 141.569C203.565 141.707 200.809 141.845 198.045 141.968C192.544 142.205 187.033 142.405 181.511 142.569C170.263 142.91 158.958 143.113 147.686 143.294C125.391 143.62 103.088 143.794 80.8008 144.57C68.3075 144.99 55.8222 145.063 43.3288 145.309Z" fill="url(#paint1_linear)"/>
<path d="M89.0038 33.6383C87.9582 33.3106 86.8163 33.3364 85.7901 33.7107C85.1282 33.9238 84.5231 34.2596 84.0138 34.6965C83.5046 35.1335 83.1025 35.6618 82.8335 36.2476C82.8282 36.3237 82.805 36.398 82.7653 36.4653C82.7257 36.5327 82.6706 36.5917 82.6037 36.6384C82.5367 36.685 82.4596 36.7183 82.3773 36.7359C82.295 36.7535 82.2095 36.755 82.1265 36.7404C80.9573 36.738 79.8289 37.1281 78.961 37.8349C77.9486 38.6684 77.9486 39.6904 77.8121 40.8863C77.6463 40.8111 77.4633 40.7719 77.2778 40.7719C77.0922 40.7719 76.9093 40.8111 76.7435 40.8863C76.4126 41.0335 76.1112 41.2295 75.8517 41.4662C75.4085 41.7872 75.0537 42.1966 74.8153 42.6621C74.4939 43.4521 74.8554 44.3219 74.8715 45.1627C74.8772 45.2004 74.8736 45.2387 74.8611 45.275C74.8486 45.3113 74.8275 45.3447 74.7992 45.3729C74.7662 45.3856 74.7307 45.3922 74.6948 45.3922C74.6588 45.3922 74.6233 45.3856 74.5903 45.3729C74.3412 45.3294 74.1163 45.2134 73.8672 45.1917C73.5759 45.1941 73.2946 45.2881 73.0717 45.4574C72.8488 45.6268 72.6983 45.8608 72.646 46.1194C72.5512 46.6386 72.5814 47.1701 72.7344 47.6778C72.8837 48.1858 72.8669 48.7219 72.6862 49.2216C72.4936 49.5498 72.241 49.8463 71.939 50.0986C71.0676 50.8312 70.5006 51.8109 70.3321 52.8746C70.2848 53.3887 70.4383 53.9015 70.766 54.3242C70.9343 54.533 71.1597 54.6988 71.4202 54.8055C71.6807 54.9122 71.9674 54.9561 72.2523 54.9331C73.586 54.7736 74.052 53.0848 75.3214 52.6862C76.5908 52.2875 78.0129 50.9394 78.8324 49.8739C79.4912 49.0187 80.134 48.0257 81.2427 47.6995C81.6076 47.6295 81.9594 47.5124 82.2872 47.3516C82.5052 47.1981 82.6857 47.0056 82.8174 46.7862C83.2766 46.1756 83.6314 45.5061 83.8699 44.8003C84.2716 43.4087 83.8699 41.8431 84.6171 40.5602C84.8305 40.1921 85.1275 39.8689 85.4889 39.6116C85.8502 39.3543 86.2677 39.1688 86.7141 39.0671C87.0917 38.9801 87.5175 38.9583 87.863 38.8641C88.2999 38.7503 88.7126 38.5715 89.0842 38.335C89.5729 38.0815 89.9934 37.7337 90.3156 37.3164C90.6378 36.8991 90.8538 36.4228 90.9481 35.9214C91.0204 34.8994 90.0001 33.9862 89.0038 33.6383Z" fill="#FF681C"/>
<path d="M92.29 35.3561C92.6914 35.4958 93.0244 35.7602 93.2291 36.1016C93.4338 36.4431 93.4968 36.8392 93.4068 37.2188C93.2693 37.5257 93.0643 37.8044 92.8042 38.0378L91.35 39.4874L90.7474 37.4725C90.6851 37.0944 90.4775 36.7481 90.1609 36.494C89.9543 36.3872 89.7202 36.331 89.482 36.331C89.2438 36.331 89.0098 36.3872 88.8031 36.494C88.3773 36.6897 87.9997 36.9941 87.6221 37.2188C87.5177 37.2768 87.373 37.342 87.2606 37.284C87.1481 37.226 87.132 37.0159 87.1883 36.8709C87.8792 35.1459 90.5225 34.6675 92.29 35.3561Z" fill="#FF681C"/>
<path d="M93.2781 89.8832C93.3221 90.5617 93.5723 91.2162 94.0012 91.775C94.6519 92.4998 95.7366 92.8622 96.6364 93.3913C96.7291 93.4337 96.8102 93.494 96.8741 93.5679C96.938 93.6418 96.983 93.7275 97.006 93.8189C97.0007 93.9072 96.9666 93.9922 96.908 94.0631C96.8494 94.134 96.7689 94.1877 96.6766 94.2176C96.486 94.2662 96.2863 94.2785 96.0901 94.2538C95.1723 94.1239 94.2467 94.044 93.3183 94.0146C92.8523 94.0146 92.314 94.0581 92.0167 93.732C91.8253 93.4556 91.7591 93.1234 91.8319 92.8042C91.9142 91.6054 91.806 90.4021 91.5105 89.2309C91.412 88.9451 91.3765 88.6447 91.4061 88.3466C91.4361 88.2088 91.5056 88.0804 91.6077 87.9744C91.7098 87.8683 91.8409 87.7882 91.988 87.742C92.1351 87.6958 92.293 87.6852 92.446 87.7111C92.5991 87.7371 92.7419 87.7988 92.8603 87.89C93.3906 88.3032 93.2138 89.3251 93.2781 89.8832Z" fill="#FCBDBA"/>
<path d="M78.4147 94.3698C78.3057 95.0419 78.4001 95.7281 78.6878 96.3558C79.1619 97.2183 80.1501 97.7329 80.9134 98.4142C80.9961 98.4712 81.063 98.5447 81.109 98.629C81.155 98.7132 81.1788 98.8059 81.1785 98.8998C81.1548 98.9852 81.1029 99.0621 81.0298 99.1204C80.9566 99.1786 80.8656 99.2154 80.7687 99.226C80.5729 99.2442 80.3751 99.2219 80.1903 99.1608C79.3172 98.8733 78.4266 98.6313 77.5229 98.436C77.0649 98.3635 76.5266 98.291 76.3097 97.9286C76.178 97.6257 76.178 97.2892 76.3097 96.9863C76.6585 95.8246 76.8208 94.6236 76.7917 93.4203C76.7592 93.1227 76.7919 92.8222 76.8882 92.536C76.9486 92.4066 77.0455 92.2936 77.1693 92.2084C77.2931 92.1232 77.4394 92.0687 77.5938 92.0504C77.7482 92.0321 77.9052 92.0506 78.0492 92.104C78.1932 92.1574 78.3192 92.2439 78.4147 92.3548C78.8726 92.8404 78.4709 93.8117 78.4147 94.3698Z" fill="#FCBDBA"/>
<path d="M75.4902 61.7535C75.4902 61.7535 83.155 72.0168 88.1764 75.0827C88.0799 76.1089 88.1042 77.1415 88.2487 78.1631C88.5058 79.8229 89.3976 81.2798 89.6868 82.9106L90.651 88.3974C90.6911 88.6438 90.7715 88.941 91.0366 89.028C91.196 89.074 91.3673 89.074 91.5267 89.028L93.6477 88.5061C93.5205 85.2093 93.5983 81.9087 93.8807 78.6197C94.0547 77.2896 94.0923 75.9479 93.9932 74.6116C93.6397 71.7123 91.0045 69.1248 89.1726 66.7982C88.0719 65.392 86.8909 63.2901 85.3483 62.2246C84.0628 61.3404 82.2471 61.7608 80.6322 61.9057C79.4211 62.01 78.1993 61.9316 77.0167 61.6738C76.775 61.5716 76.5088 61.5254 76.2423 61.5393C75.9758 61.5533 75.7173 61.6269 75.4902 61.7535Z" fill="#473F47"/>
<path d="M72.5737 61.6883C72.5737 61.6883 75.5545 73.7708 79.0012 78.2791C78.5003 79.2072 78.1046 80.1785 77.8201 81.1783C77.6299 81.9967 77.5197 82.8286 77.4907 83.6644L76.7998 93.7537C77.8678 93.8042 78.9372 93.6815 79.9572 93.3913L83.878 84.4979C84.6266 83.0813 85.0684 81.5486 85.1795 79.9824C85.1795 76.9527 81.9658 65.8921 81.5882 65.334C80.7446 64.0801 78.8887 63.8844 77.33 63.4785C76.1597 63.1801 75.054 62.7046 74.0601 62.0724C73.57 61.797 73.1281 61.5288 72.5737 61.6883Z" fill="#473F47"/>
<path d="M100.091 52.2803C101.725 52.9602 103.537 53.2114 105.322 53.0051C105.845 52.875 106.393 52.8503 106.928 52.9326C106.695 53.2298 106.471 53.6574 106.8 53.9111C106.901 53.9706 107.017 54.0056 107.137 54.0126C107.571 54.0629 108.011 54.0207 108.423 53.8894C108.617 53.8023 108.833 53.76 109.05 53.7661C109.241 53.809 109.406 53.9184 109.508 54.0705C109.61 54.2226 109.642 54.405 109.596 54.5779C109.482 54.923 109.23 55.2175 108.889 55.4042C108.337 55.7339 107.698 55.9251 107.037 55.9582C106.376 55.9913 105.718 55.8652 105.129 55.5926C104.791 55.4259 104.478 55.2157 104.133 55.049C103.468 54.7758 102.765 54.5856 102.044 54.4837C99.9315 54.0893 97.8554 53.5514 95.8331 52.8746C95.5267 52.8089 95.2384 52.6875 94.9857 52.5181C94.7329 52.3486 94.521 52.1346 94.3628 51.8889C93.9531 50.9756 94.7083 49.4463 95.9134 50.0406C97.3114 50.7727 98.5728 51.7149 100.091 52.2803Z" fill="#FCBDBA"/>
<path d="M90.1127 47.0762C92.4986 48.4833 95.1599 49.4672 97.9542 49.9754C98.0747 49.9754 98.2194 50.0479 98.2515 50.1566C98.2644 50.2306 98.2441 50.3062 98.1952 50.3668C97.6247 51.403 96.9032 52.3658 96.0501 53.2298C95.9585 53.3394 95.8404 53.4287 95.7046 53.4907C95.5711 53.526 95.4311 53.5365 95.293 53.5215C95.1549 53.5066 95.0216 53.4665 94.9012 53.4037C93.0962 52.7514 91.3286 52.0266 89.5985 51.2293C88.0588 50.6201 86.6872 49.7118 85.5814 48.5693C85.0299 47.9764 84.7033 47.2398 84.6494 46.4673C84.6494 45.6121 85.5171 44.0755 86.7142 44.4959C87.2525 44.6843 87.7265 45.2859 88.1363 45.6266C88.7616 46.1458 89.4216 46.63 90.1127 47.0762Z" fill="#FCA311"/>
<path d="M90.1127 47.0762C92.4986 48.4833 95.1599 49.4672 97.9542 49.9754C98.0747 49.9754 98.2194 50.0479 98.2515 50.1566C98.2644 50.2306 98.2441 50.3062 98.1952 50.3668C97.6247 51.403 96.9032 52.3658 96.0501 53.2298C95.9585 53.3394 95.8404 53.4287 95.7046 53.4907C95.5711 53.526 95.4311 53.5365 95.293 53.5215C95.1549 53.5066 95.0216 53.4665 94.9012 53.4037C93.0962 52.7514 91.3286 52.0266 89.5985 51.2293C88.0588 50.6201 86.6872 49.7118 85.5814 48.5693C85.0299 47.9764 84.7033 47.2398 84.6494 46.4673C84.6494 45.6121 85.5171 44.0755 86.7142 44.4959C87.2525 44.6843 87.7265 45.2859 88.1363 45.6266C88.7616 46.1458 89.4216 46.63 90.1127 47.0762Z" fill="url(#paint2_linear)"/>
<path d="M123.744 42.7563C124.174 43.2447 124.43 43.8383 124.48 44.4599C124.529 45.0815 124.371 45.7022 124.024 46.2412C123.677 46.7801 123.158 47.2124 122.535 47.4815C121.912 47.7507 121.214 47.8443 120.531 47.7502C120.531 47.7502 116.73 47.83 117.59 51.0626L124.821 59.3689L115.614 65.8921C112.03 66.6677 111.942 63.2394 111.942 63.2394C112.04 62.624 111.932 61.9961 111.631 61.4369C111.329 60.8776 110.849 60.4127 110.252 60.1021C109.655 59.7916 108.968 59.6496 108.281 59.6946C107.594 59.7396 106.937 59.9695 106.396 60.3545C105.855 60.7396 105.454 61.2622 105.245 61.8548C105.037 62.4474 105.03 63.0828 105.226 63.6789C105.421 64.2751 105.811 64.8046 106.343 65.1992C106.876 65.5937 107.528 65.8351 108.214 65.8921C111.484 66.8634 110.215 69.7336 110.215 69.7336L101.007 76.2569L82.2954 54.8244L91.4143 48.3011C94.9976 47.5256 95.086 50.9539 95.086 50.9539C95.0007 51.4622 95.0567 51.9816 95.2491 52.4655C95.4415 52.9494 95.7641 53.3825 96.188 53.7261C96.6119 54.0696 97.1238 54.3127 97.6777 54.4335C98.2315 54.5544 98.81 54.5491 99.3611 54.4183C99.9121 54.2875 100.419 54.0352 100.835 53.684C101.251 53.3329 101.564 52.894 101.745 52.4067C101.927 51.9195 101.971 51.3991 101.875 50.8925C101.778 50.3859 101.544 49.9088 101.192 49.5043C100.899 49.1719 100.534 48.8965 100.12 48.6947C99.7058 48.4929 99.2506 48.3689 98.7818 48.3301C95.544 47.3661 96.8134 44.4669 96.8134 44.4669L106.109 37.8494L113.34 46.1629C113.34 46.1629 116.554 47.3081 117.598 44.3581C117.667 43.7404 117.939 43.1554 118.38 42.6786C118.821 42.2017 119.41 41.8548 120.071 41.6825C120.732 41.5101 121.435 41.5203 122.09 41.7117C122.745 41.9031 123.321 42.2669 123.744 42.7563Z" fill="#FCA311"/>
<path d="M123.744 42.7563C124.174 43.2447 124.43 43.8383 124.48 44.4599C124.529 45.0815 124.371 45.7022 124.024 46.2412C123.677 46.7801 123.158 47.2124 122.535 47.4815C121.912 47.7507 121.214 47.8443 120.531 47.7502C120.531 47.7502 116.73 47.83 117.59 51.0626L124.821 59.3689L115.614 65.8921C112.03 66.6677 111.942 63.2394 111.942 63.2394C112.04 62.624 111.932 61.9961 111.631 61.4369C111.329 60.8776 110.849 60.4127 110.252 60.1021C109.655 59.7916 108.968 59.6496 108.281 59.6946C107.594 59.7396 106.937 59.9695 106.396 60.3545C105.855 60.7396 105.454 61.2622 105.245 61.8548C105.037 62.4474 105.03 63.0828 105.226 63.6789C105.421 64.2751 105.811 64.8046 106.343 65.1992C106.876 65.5937 107.528 65.8351 108.214 65.8921C111.484 66.8634 110.215 69.7336 110.215 69.7336L101.007 76.2569L82.2954 54.8244L91.4143 48.3011C94.9976 47.5256 95.086 50.9539 95.086 50.9539C95.0007 51.4622 95.0567 51.9816 95.2491 52.4655C95.4415 52.9494 95.7641 53.3825 96.188 53.7261C96.6119 54.0696 97.1238 54.3127 97.6777 54.4335C98.2315 54.5544 98.81 54.5491 99.3611 54.4183C99.9121 54.2875 100.419 54.0352 100.835 53.684C101.251 53.3329 101.564 52.894 101.745 52.4067C101.927 51.9195 101.971 51.3991 101.875 50.8925C101.778 50.3859 101.544 49.9088 101.192 49.5043C100.899 49.1719 100.534 48.8965 100.12 48.6947C99.7058 48.4929 99.2506 48.3689 98.7818 48.3301C95.544 47.3661 96.8134 44.4669 96.8134 44.4669L106.109 37.8494L113.34 46.1629C113.34 46.1629 116.554 47.3081 117.598 44.3581C117.667 43.7404 117.939 43.1554 118.38 42.6786C118.821 42.2017 119.41 41.8548 120.071 41.6825C120.732 41.5101 121.435 41.5203 122.09 41.7117C122.745 41.9031 123.321 42.2669 123.744 42.7563Z" fill="url(#paint3_linear)"/>
<path d="M93.3185 61.6593C95.2869 63.1089 97.3357 64.6672 99.746 65.0441C100.21 65.1378 100.69 65.147 101.157 65.071C101.625 64.9951 102.071 64.8356 102.47 64.602C102.607 64.5282 102.719 64.4213 102.793 64.2932C102.867 64.1652 102.899 64.0211 102.887 63.8772C102.799 63.522 102.317 63.3988 101.923 63.3336C100.082 63.1064 98.3139 62.5336 96.7331 61.652C96.1468 61.2777 95.591 60.8659 95.07 60.4199L91.1573 57.2742C91.1095 57.2218 91.0494 57.1796 90.9813 57.1508C90.9132 57.1219 90.8388 57.1071 90.7636 57.1075C90.6029 57.1075 90.5065 57.2742 90.4342 57.4047C90.1916 57.8499 90.0082 58.3194 89.8879 58.8035C89.7674 59.3326 89.8879 59.4051 90.394 59.7095C91.4064 60.328 92.3812 60.978 93.3185 61.6593Z" fill="url(#paint4_linear)"/>
<path d="M95.1342 59.0065C96.4956 60.0811 98.1673 60.7849 99.9547 61.0359C100.486 61.0424 101.01 61.1538 101.489 61.3621C101.16 61.5868 100.806 61.9709 101.055 62.2681C101.135 62.3508 101.238 62.4133 101.353 62.4493C101.753 62.6035 102.187 62.6729 102.622 62.6523C102.837 62.6227 103.057 62.6376 103.265 62.6957C103.349 62.7399 103.422 62.7986 103.481 62.8685C103.54 62.9383 103.583 63.0179 103.607 63.1028C103.632 63.1876 103.638 63.276 103.625 63.3628C103.611 63.4497 103.579 63.5334 103.53 63.609C103.32 63.9161 102.986 64.1371 102.598 64.2251C101.967 64.4046 101.294 64.428 100.65 64.2929C100.005 64.1577 99.4129 63.869 98.9344 63.4568C98.6532 63.2104 98.4202 62.9277 98.131 62.6885C97.5782 62.2582 96.9617 61.8996 96.2991 61.623C94.3937 60.7097 92.5674 59.6678 90.8358 58.5064C90.5625 58.3665 90.3234 58.1781 90.1328 57.9526C89.9423 57.7272 89.8043 57.4693 89.7271 57.1945C89.6146 56.2087 90.8117 54.9258 91.7919 55.8101C92.9328 56.8538 93.8567 58.0497 95.1342 59.0065Z" fill="#FCBDBA"/>
<path d="M72.5739 63.2394C72.7178 63.3949 72.8992 63.5189 73.1041 63.6018C73.9126 64.0178 74.753 64.3811 75.6189 64.689C77.8689 65.4156 80.3319 65.3976 82.5685 64.6382C83.4635 64.3476 84.3035 63.9345 85.0592 63.4133C85.3459 63.2371 85.587 63.0072 85.7662 62.7392C85.9794 62.3022 86.0464 61.8185 85.959 61.3476C85.7582 58.905 85.4609 56.3827 85.959 54.0126C86.1191 53.1984 86.3889 52.4049 86.7624 51.6497C87.413 50.6192 87.9512 49.5341 88.3693 48.4098C88.5126 47.7189 88.4869 47.008 88.294 46.327C88.1011 45.6459 87.7457 45.0111 87.2525 44.4669C86.2081 43.2637 84.2959 42.1982 82.6087 42.7418C80.6598 43.4043 78.9696 44.5687 77.748 46.0904C76.4159 47.7945 75.3608 49.6617 74.6146 51.6352C74.2932 52.4107 73.9799 53.1863 73.7308 53.9836C73.1989 55.9122 72.8548 57.8791 72.7024 59.8618C72.6141 60.688 72.5337 61.5143 72.4373 62.3406C72.3615 62.6453 72.4099 62.9644 72.5739 63.2394Z" fill="#FCA311"/>
<path d="M82.5687 64.6382C83.4636 64.3476 84.3036 63.9344 85.0593 63.4133C85.346 63.2371 85.5871 63.0072 85.7663 62.7392C85.9795 62.3022 86.0466 61.8185 85.9591 61.3476C85.7583 58.905 85.461 56.3827 85.9591 54.0126C85.6378 53.7226 85.2762 53.4617 84.9227 53.2008C84.1193 52.6064 82.9623 51.4323 81.7974 51.512C82.0786 52.6209 82.3035 53.7516 82.4723 54.8823C82.641 56.013 82.5767 57.1872 82.7775 58.3034C83.044 60.2784 82.9926 62.2778 82.6249 64.2396C82.5907 64.3703 82.5718 64.5039 82.5687 64.6382Z" fill="url(#paint5_linear)"/>
<path d="M92.3462 55.2012C92.409 55.2301 92.4648 55.27 92.5103 55.3185C92.5558 55.367 92.5902 55.4233 92.6113 55.4839C92.6137 55.6044 92.5648 55.7211 92.4748 55.8101C91.7447 56.7395 90.8292 57.5383 89.7752 58.1657C89.6735 58.2386 89.5509 58.2839 89.4217 58.2962C89.2735 58.2819 89.1349 58.2232 89.028 58.1295C87.4212 57.0205 85.8143 55.955 84.2476 54.7954C83.2345 54.1468 82.3399 53.3593 81.5963 52.4615C81.05 51.6511 80.6334 50.7751 80.359 49.8594C79.403 47.1414 82.2953 45.96 84.2316 47.9532C86.7865 50.5915 89.1164 53.1645 92.3462 55.2012Z" fill="#FCA311"/>
<path d="M91.9524 93.8334C91.9105 93.7434 91.8959 93.645 91.91 93.5482C91.9241 93.4514 91.9665 93.3597 92.0328 93.2826C92.2095 93.1304 92.4988 93.2029 92.7237 93.2826C93.2205 93.4999 93.7399 93.6723 94.2744 93.7972C94.8126 93.925 95.3841 93.8708 95.8812 93.645C96.1544 93.5 96.4195 93.2826 96.7329 93.3043C96.8906 93.3256 97.0414 93.3775 97.1747 93.4565C97.6572 93.6821 98.1745 93.841 98.7093 93.9277C98.9343 93.9449 99.1516 94.0095 99.344 94.1161C99.4022 94.153 99.4447 94.2067 99.4645 94.2683C99.4645 94.4133 99.3119 94.522 99.1592 94.5727C97.4881 95.1598 95.6161 94.9424 93.8325 94.7684C93.6326 94.743 93.4298 94.743 93.2299 94.7684C92.9326 94.8192 92.5711 94.9569 92.322 94.7684C92.1088 94.492 91.9812 94.1692 91.9524 93.8334Z" fill="#473F47"/>
<path d="M76.0849 97.9648C76.0587 97.871 76.059 97.7728 76.0856 97.6792C76.1123 97.5855 76.1645 97.4993 76.2375 97.4285C76.4384 97.298 76.7115 97.4285 76.9285 97.5082C77.3953 97.7761 77.8873 98.0065 78.3987 98.1968C78.917 98.3706 79.4873 98.3706 80.0056 98.1968C80.2948 98.0881 80.5841 97.8996 80.8974 97.9576C81.0494 97.9978 81.1913 98.0642 81.3152 98.1533C81.7576 98.4456 82.2484 98.6731 82.7694 98.8274C82.9931 98.8691 83.2025 98.9586 83.38 99.0883C83.406 99.108 83.4273 99.1324 83.4425 99.1598C83.4577 99.1872 83.4665 99.2171 83.4684 99.2478C83.4684 99.3927 83.2916 99.4797 83.1309 99.5159C81.3875 99.9146 79.5637 99.5159 77.8203 99.1173C77.6244 99.066 77.4216 99.0392 77.2177 99.0376C76.9204 99.0376 76.5428 99.1535 76.3179 98.9071C76.1551 98.6152 76.0751 98.2915 76.0849 97.9648Z" fill="#473F47"/>
<path d="M90.9645 40.3282C90.8279 40.7269 90.6913 41.1255 90.5788 41.5314C90.4513 42.1368 90.2741 42.7328 90.0486 43.3144C89.9341 43.6045 89.7512 43.8688 89.5127 44.089C89.2741 44.3092 88.9855 44.4802 88.6667 44.5901C88.3415 44.6838 87.9888 44.6608 87.682 44.5258C87.3752 44.3907 87.1379 44.1542 87.0196 43.8653C86.634 43.945 86.4974 44.3727 86.5054 44.7351C86.57 45.0896 86.4962 45.4534 86.2965 45.7643C85.935 46.1484 85.228 45.989 84.754 45.7135C84.0363 45.2773 83.4784 44.6587 83.1509 43.9361C82.8233 43.2135 82.7409 42.4195 82.9141 41.6546C83.3078 40.0383 83.2917 38.1031 84.3121 36.7042C84.6787 36.2321 85.1457 35.8305 85.6859 35.5228C86.1594 35.21 86.7115 35.0083 87.2928 34.9357C87.6997 34.9141 88.1079 34.9434 88.506 35.0226C90.2092 35.2836 91.6554 35.5083 91.6635 37.2695C91.6112 38.316 91.3752 39.3484 90.9645 40.3282Z" fill="#FCBDBA"/>
<path d="M88.8673 37.4797C88.6021 37.4797 88.2968 37.4218 88.0638 37.5667C87.8308 37.7117 87.8148 38.0378 87.6702 38.2915C87.389 38.7626 86.6739 38.8279 86.1356 39.0743C85.8095 39.2317 85.538 39.4673 85.3509 39.755C85.1637 40.0428 85.0683 40.3716 85.0751 40.7051C85.0854 40.4917 85.0268 40.2802 84.9064 40.0963C84.8742 40.0527 84.8326 40.0155 84.784 39.987C84.7353 39.9585 84.6808 39.9392 84.6236 39.9304C84.5664 39.9215 84.5078 39.9234 84.4515 39.9357C84.3951 39.948 84.3421 39.9706 84.2957 40.0021C84.2233 40.0795 84.181 40.1763 84.1752 40.2775C84.1534 40.4845 84.1906 40.6931 84.2835 40.8834C84.3763 41.0737 84.5216 41.2394 84.7055 41.3647C84.5387 41.6755 84.2768 41.9368 83.9509 42.1179C83.6249 42.2989 83.2484 42.3922 82.8656 42.3867C82.6238 42.3919 82.3877 42.32 82.1988 42.1837C82.08 42.0735 81.9918 41.9393 81.9417 41.7923C81.4838 40.6326 82.1827 39.3932 82.3515 38.1683C82.3675 37.7358 82.4458 37.307 82.5845 36.8926C82.7334 36.6 82.9373 36.3327 83.187 36.1026C83.937 35.2901 84.9297 34.6889 86.0472 34.3703C87.1238 34.1021 89.2609 34.2399 90.1045 35.0081C90.296 35.228 90.4169 35.491 90.4543 35.7685C90.4916 36.0461 90.4439 36.3275 90.3164 36.5823C90.1888 36.8371 89.9863 37.0555 89.7308 37.2137C89.4753 37.3719 89.1767 37.4639 88.8673 37.4797Z" fill="#FF681C"/>
<path d="M88.3936 147.513V133.951C90.37 130.081 94.2666 132.719 94.2666 132.719C94.8749 133.294 95.6603 133.692 96.5214 133.861C97.3825 134.03 98.2799 133.962 99.0979 133.666C99.9159 133.371 100.617 132.861 101.111 132.202C101.605 131.544 101.869 130.767 101.869 129.972C101.869 129.177 101.605 128.401 101.111 127.742C100.617 127.084 99.9159 126.574 99.0979 126.278C98.2799 125.983 97.3825 125.915 96.5214 126.084C95.6603 126.253 94.8749 126.65 94.2666 127.225C90.5869 129.4 88.3936 125.993 88.3936 125.993V112.425H103.426C103.426 112.425 107.234 110.446 104.792 107.126C104.154 106.578 103.713 105.869 103.526 105.092C103.339 104.315 103.414 103.506 103.742 102.768C104.07 102.03 104.635 101.397 105.365 100.952C106.094 100.506 106.955 100.268 107.837 100.268C108.718 100.268 109.579 100.506 110.309 100.952C111.038 101.397 111.603 102.03 111.931 102.768C112.259 103.506 112.334 104.315 112.147 105.092C111.96 105.869 111.519 106.578 110.882 107.126C110.882 107.126 107.957 110.642 112.247 112.425H127.28V147.513H88.3936Z" fill="url(#paint6_linear)"/>
<path d="M59.5906 146.788H56.875L84.6737 80.5695C84.7672 80.3557 84.9298 80.1723 85.1405 80.043C85.3511 79.9137 85.6 79.8446 85.8547 79.8447C86.0604 79.8444 86.263 79.8892 86.4453 79.9752C86.6275 80.0612 86.7838 80.1859 86.9008 80.3385C87.0178 80.4911 87.092 80.667 87.1169 80.8512C87.1418 81.0354 87.1167 81.2223 87.0438 81.3958L59.5906 146.788Z" fill="#FCA311"/>
<path d="M75.8758 146.788H73.1602L101.264 79.8302H103.98L75.8758 146.788Z" fill="#FCA311"/>
<path d="M96.8775 90.2891H82.5122L83.2353 88.5641H97.6006L96.8775 90.2891Z" fill="#FCA311"/>
<path d="M92.4586 100.806H78.0933L78.8244 99.081H93.1897L92.4586 100.806Z" fill="#FCA311"/>
<path d="M88.0479 111.323H73.6826L74.4057 109.591H88.771L88.0479 111.323Z" fill="#FCA311"/>
<path d="M83.6373 121.833H69.272L69.9951 120.108H84.3604L83.6373 121.833Z" fill="#FCA311"/>
<path d="M79.2184 132.35H64.853L65.5841 130.625H79.9414L79.2184 132.35Z" fill="#FCA311"/>
<path d="M83.3078 90.2891L79.6121 99.081H93.2141L92.491 100.806H78.9131L75.2253 109.591H88.7953L88.0722 111.316H74.4781L70.7904 120.108H84.3764L83.6533 121.833H70.0673L66.3715 130.625H79.9495L79.2184 132.35H65.6485L59.5906 146.788H56.875L84.6737 80.5695C84.7944 80.3423 84.9948 80.1573 85.2439 80.0433C85.493 79.9292 85.7768 79.8925 86.0513 79.9387C86.3259 79.9849 86.5759 80.1116 86.7626 80.299C86.9493 80.4864 87.0622 80.7242 87.084 80.9754C87.0839 81.1139 87.0567 81.2513 87.0036 81.3813L83.9908 88.5641H97.5607L96.8376 90.2891H83.3078Z" fill="url(#paint7_linear)"/>
<path d="M75.8758 146.788H73.1602L101.264 79.8302H103.98L75.8758 146.788Z" fill="url(#paint8_linear)"/>
<path d="M210.603 89.5353C210.202 89.8416 209.721 90.0511 209.205 90.1442C208.732 90.1621 208.26 90.0853 207.823 89.9195L201.139 87.9118C200.634 88.2667 200.296 88.7811 200.195 89.3514C200.094 89.9216 200.236 90.5053 200.592 90.9849C201.248 91.6325 202.1 92.0914 203.043 92.3041L207.63 93.7899C208.689 94.2362 209.845 94.4644 211.013 94.4582C212.182 94.4519 213.334 94.2113 214.387 93.7537C215.753 93.3406 217.255 92.8259 217.914 91.6663C218.573 90.5066 218.091 88.97 218.284 87.6146C218.537 86.7537 218.717 85.8765 218.822 84.9908C218.822 84.2297 218.131 83.0845 217.127 83.244C216.259 83.3817 215.681 84.7444 215.223 85.3169C213.932 86.9284 212.374 88.3511 210.603 89.5353Z" fill="white"/>
<path d="M200.303 87.5711C200.233 87.408 200.126 87.2599 199.99 87.1362C199.922 87.0741 199.836 87.0314 199.741 87.0133C199.647 86.9953 199.549 87.0027 199.459 87.0347C199.372 87.0834 199.301 87.1535 199.255 87.2368C199.21 87.3202 199.192 87.4135 199.202 87.5059C199.209 87.5386 199.208 87.5722 199.199 87.6045C199.191 87.6369 199.176 87.6675 199.154 87.6943C199.106 87.7378 199.017 87.6943 198.945 87.6943C198.19 87.5639 197.419 87.4624 196.647 87.3899C196.565 87.375 196.479 87.3806 196.399 87.4061C196.32 87.4317 196.25 87.4762 196.196 87.535C196.142 87.5938 196.107 87.6646 196.095 87.7399C196.082 87.8152 196.093 87.8921 196.125 87.9625C196.209 88.1933 196.337 88.4092 196.503 88.6003C196.896 89.1802 197.041 89.9412 197.668 90.3181C198.051 90.5202 198.496 90.6042 198.937 90.5573C199.379 90.5573 199.813 90.4631 200.255 90.4848C200.547 90.5412 200.851 90.5107 201.122 90.3978C201.224 90.3295 201.304 90.2392 201.356 90.1353C201.408 90.0313 201.43 89.9172 201.42 89.8035C201.373 89.4455 201.233 89.1026 201.01 88.8033C200.761 88.4119 200.528 87.9915 200.303 87.5711Z" fill="#FDB9A9"/>
<path d="M218.943 132.966C216.388 132.444 216.886 135.713 216.211 136.93C215.784 137.556 215.24 138.11 214.604 138.568C213.978 139.039 213.568 139.703 213.455 140.431C213.44 140.567 213.471 140.703 213.544 140.823C213.674 140.966 213.856 141.064 214.058 141.098C215.519 141.483 217.088 141.343 218.437 140.707C219.068 140.438 219.593 140 219.939 139.453C220.219 138.863 220.351 138.224 220.325 137.583C220.405 136.22 221.08 133.393 218.943 132.966Z" fill="#FDB9A9"/>
<path d="M216.677 139.706C216.677 139.706 209.398 139.989 212.483 142.048C215.568 144.106 220.172 141.547 220.622 141.076C221.071 140.605 220.702 139.801 220.702 139.801L216.677 139.706Z" fill="#FCA311"/>
<path d="M220.3 140.612C219.657 141.337 216.235 142.287 214.716 142.185C213.198 142.084 211.84 141.46 211.993 140.569C212.145 139.677 214.813 137.626 215.319 137.633C215.825 137.641 216.219 138.692 217.231 138.909C217.683 138.977 218.147 138.939 218.579 138.8C219.011 138.66 219.396 138.423 219.698 138.112C219.788 138.003 219.916 137.924 220.062 137.889C220.208 137.854 220.362 137.863 220.501 137.916C220.713 138.347 220.805 138.817 220.77 139.287C220.735 139.756 220.574 140.212 220.3 140.612Z" fill="white"/>
<path d="M227.724 134.256C225.169 133.72 225.667 136.996 224.992 138.206C224.565 138.834 224.022 139.39 223.385 139.851C222.76 140.319 222.35 140.981 222.236 141.707C222.223 141.845 222.254 141.983 222.325 142.106C222.457 142.247 222.638 142.344 222.839 142.381C224.3 142.763 225.868 142.623 227.218 141.99C227.848 141.716 228.372 141.276 228.72 140.728C228.999 140.141 229.131 139.505 229.106 138.866C229.186 137.489 229.861 134.669 227.724 134.256Z" fill="#FDB9A9"/>
<path d="M225.458 140.968C225.458 140.968 218.179 141.243 221.264 143.316C224.35 145.389 228.953 142.809 229.403 142.337C229.853 141.866 229.484 141.062 229.484 141.062L225.458 140.968Z" fill="#FCA311"/>
<path d="M229.082 141.859C228.439 142.584 225.017 143.541 223.498 143.439C221.98 143.338 220.622 142.714 220.774 141.823C220.927 140.931 223.594 138.88 224.101 138.924C224.607 138.967 225.001 139.982 226.013 140.192C226.465 140.261 226.928 140.225 227.36 140.087C227.792 139.948 228.177 139.713 228.479 139.402C228.569 139.292 228.697 139.213 228.843 139.177C228.989 139.142 229.144 139.152 229.283 139.206C229.486 139.631 229.574 140.093 229.539 140.555C229.504 141.016 229.348 141.463 229.082 141.859Z" fill="white"/>
<path d="M221.128 104.445L224.551 136.945L229.484 136.394C231.436 128.465 230.954 104.742 230.954 104.742L221.128 104.445Z" fill="#473F47"/>
<path d="M224.55 103.568L221.128 136.061L216.179 135.51C213.359 114.954 215.688 102.169 215.688 102.169L224.55 103.568Z" fill="#473F47"/>
<path d="M216.139 91.8185C216.074 91.2241 215.898 90.6298 215.833 90.021C215.673 88.7963 215.697 87.5577 215.906 86.3389C216.138 85.0386 216.574 83.7745 217.199 82.5844C217.762 81.5552 218.806 81.1348 219.947 80.5985C220.918 80.1278 221.968 79.8069 223.056 79.649C223.822 79.5859 224.593 79.6249 225.346 79.7649C227.676 80.1636 230.737 81.2146 232.328 82.9034C233.525 84.1428 233.662 85.9258 233.702 87.5711C233.75 89.8398 233.702 92.1084 233.541 94.377C233.541 94.7032 233.501 95.0294 233.469 95.3628C233.339 97.8866 232.916 100.391 232.207 102.836C232.074 103.599 231.616 104.286 230.93 104.749C229.106 105.706 226.326 105.177 224.358 104.93C221.747 104.597 219.071 104.249 216.757 103.104C216.277 102.918 215.889 102.58 215.665 102.154C215.549 101.618 215.625 101.062 215.882 100.567C216.685 98.2475 216.058 95.8049 216.058 93.4348C216.058 93.0072 216.115 92.5723 216.115 92.1374C216.139 92.0359 216.139 91.9272 216.139 91.8185Z" fill="white"/>
<path d="M224.334 96.0151C224.953 96.3627 225.636 96.6081 226.35 96.7399C228.479 97.298 230.665 97.5952 232.778 98.1895C232.921 98.2147 233.055 98.2749 233.163 98.3635C233.25 98.4837 233.289 98.6265 233.276 98.7694C233.286 99.3276 233.194 99.8835 233.003 100.415C232.941 100.68 232.772 100.915 232.529 101.074C232.22 101.176 231.881 101.176 231.573 101.074L223.611 99.5522C223.041 99.4209 222.455 99.3575 221.867 99.3637C221.171 99.4368 220.488 99.5903 219.835 99.8203C218.613 100.173 217.357 100.416 216.083 100.545C216.15 99.174 216.336 97.8098 216.637 96.4645C216.754 96.0668 216.921 95.6825 217.135 95.3193C217.392 94.9605 217.694 94.6298 218.035 94.3335C219.32 93.1231 220.212 91.6083 221.514 90.3978C222.197 89.76 223.048 89.3541 223.651 88.6728C223.892 88.3974 225.981 86.0273 225.78 85.7736C226.182 86.223 227.178 85.7736 227.539 86.2375C227.764 86.5274 227.539 86.9188 227.331 87.2159C225.791 89.5415 224.717 92.0929 224.157 94.7539C223.996 95.37 223.755 95.5875 224.334 96.0151Z" fill="url(#paint9_linear)"/>
<path d="M217.842 66.2618C218.58 66.6899 219.161 67.3072 219.508 68.0346C219.856 68.762 219.955 69.5663 219.792 70.3448C219.63 71.1232 219.214 71.8402 218.598 72.4041C217.981 72.9679 217.192 73.353 216.331 73.5099C216.331 73.5099 211.768 75.0609 214.331 78.6415L227.009 85.9258L218.975 97.3632C215.006 99.6754 213.286 95.5585 213.286 95.5585C213.114 94.7812 212.687 94.0684 212.061 93.5117C211.436 92.9549 210.64 92.5798 209.776 92.4345C208.912 92.2893 208.02 92.3805 207.214 92.6965C206.408 93.0126 205.726 93.5389 205.254 94.2078C204.783 94.8767 204.544 95.6576 204.568 96.45C204.593 97.2424 204.88 98.0101 205.392 98.6543C205.904 99.2984 206.618 99.7896 207.442 100.065C208.266 100.34 209.163 100.386 210.016 100.197C214.435 100.118 214.242 104.082 214.242 104.082L206.208 115.52L173.396 96.6747L181.39 85.3387C185.359 83.0338 187.078 87.1435 187.078 87.1435C187.249 87.9236 187.674 88.6399 188.3 89.1999C188.925 89.7599 189.723 90.1379 190.589 90.2853C191.455 90.4326 192.35 90.3425 193.159 90.0266C193.968 89.7106 194.653 89.1833 195.126 88.5127C195.6 87.8421 195.84 87.0588 195.815 86.264C195.791 85.4692 195.503 84.6993 194.989 84.0535C194.474 83.4077 193.757 82.9157 192.93 82.641C192.103 82.3662 191.204 82.3213 190.348 82.512C185.929 82.5917 186.13 78.627 186.13 78.627L194.277 67.0736L206.963 74.3651C206.963 74.3651 211.358 74.5391 211.27 70.5527C211.129 70.0291 211.107 69.4854 211.203 68.9538C211.3 68.4222 211.514 67.9135 211.832 67.4577C212.465 66.5927 213.446 65.9841 214.568 65.7608C215.69 65.5376 216.864 65.7173 217.842 66.2618Z" fill="#FCA311"/>
<path d="M237.406 89.6948C237.735 90.2121 238.004 90.7586 238.209 91.3256C238.469 92.3195 238.496 93.3513 238.289 94.3553C238.192 95.3395 237.801 96.2814 237.156 97.0806C235.799 98.5302 233.372 98.6679 231.267 98.4867C228.878 98.2877 226.519 97.8601 224.229 97.211C224.016 97.1678 223.816 97.0838 223.643 96.9646C223.457 96.7752 223.33 96.5453 223.273 96.2978C223.098 95.697 222.982 95.0833 222.928 94.464C225.338 93.8407 228.005 94.348 230.52 94.0146C230.692 94.014 230.86 93.9764 231.012 93.9051C231.164 93.8338 231.295 93.7307 231.394 93.6045C231.493 93.4784 231.558 93.3327 231.582 93.1796C231.606 93.0265 231.589 92.8705 231.532 92.7245C231.412 91.4488 230.536 90.3326 230.126 89.1004C229.725 87.9146 229.759 86.6435 230.223 85.4764C230.361 85.0651 230.596 84.6856 230.913 84.3641C231.229 84.0425 231.618 83.7865 232.055 83.6137C233.059 83.3165 233.445 84.0268 233.999 84.6936C235.275 86.2793 236.414 87.9513 237.406 89.6948Z" fill="white"/>
<path d="M221.923 93.6522C221.829 93.5827 221.715 93.5376 221.594 93.5218C221.501 93.5304 221.413 93.5612 221.338 93.6109C221.263 93.6606 221.205 93.7274 221.168 93.8045C221.097 93.9607 221.017 94.1131 220.927 94.2611C220.806 94.382 220.657 94.4767 220.49 94.5382C220.323 94.5997 220.143 94.6264 219.963 94.6162C219.602 94.5836 219.239 94.5836 218.878 94.6162C218.745 94.6409 218.62 94.6957 218.517 94.7757C218.418 94.863 218.348 94.9735 218.316 95.0946C218.255 95.3408 218.262 95.5969 218.338 95.8398C218.414 96.0828 218.555 96.3049 218.75 96.4862C219.142 96.845 219.624 97.1135 220.156 97.269C220.698 97.485 221.299 97.5506 221.883 97.4575C222.203 97.3734 222.509 97.249 222.791 97.0878L223.964 96.5007C224.062 96.4589 224.149 96.3998 224.221 96.3268C224.478 96.0368 224.125 95.1671 223.892 94.8772C223.305 94.3844 222.642 93.9717 221.923 93.6522Z" fill="#FDB9A9"/>
<path d="M221.136 76.3583C221.136 75.735 221.192 75.1044 221.265 74.4956C221.337 73.8868 221.425 73.4084 221.538 72.872C221.545 72.7133 221.591 72.5579 221.671 72.4165C221.752 72.2751 221.865 72.1511 222.004 72.053C222.932 71.5527 224 71.3013 225.081 71.3282C225.49 71.3022 225.9 71.3532 226.286 71.478C226.672 71.6028 227.025 71.7986 227.323 72.053C227.685 72.4692 227.901 72.9743 227.941 73.5026C227.979 74.8744 227.828 76.2451 227.491 77.5833C227.321 78.6341 227.26 79.6968 227.307 80.7579C226.737 81.0994 226.083 81.3086 225.402 81.3668C225.086 81.364 224.771 81.3176 224.47 81.229C224.303 81.1948 224.155 81.1074 224.053 80.9826C224.017 80.8665 224.017 80.7436 224.053 80.6275C224.061 80.5164 224.061 80.4051 224.053 80.294C224.1 79.6733 224.086 79.05 224.012 78.4313C224.014 78.4044 224.009 78.3775 223.998 78.3525C223.987 78.3275 223.97 78.3049 223.948 78.2863C223.904 78.2719 223.856 78.2719 223.812 78.2863H223.619C223.277 78.319 222.932 78.319 222.59 78.2863C222.179 78.25 221.796 78.08 221.514 77.808C221.187 77.386 221.052 76.8673 221.136 76.3583Z" fill="#FDB9A9"/>
<path d="M222.566 72.3864C222.325 72.3864 222.108 72.5024 221.899 72.3864C221.681 72.223 221.489 72.0327 221.329 71.8211C220.945 71.3617 220.757 70.7933 220.799 70.2192C220.814 69.9595 220.908 69.7086 221.072 69.4944C221.25 69.2996 221.479 69.1477 221.739 69.0523C222.237 68.8309 222.792 68.7334 223.346 68.7696C224.148 68.8638 224.897 69.1862 225.483 69.6901C225.606 69.8063 225.757 69.8955 225.925 69.9511C226.078 69.9802 226.237 69.9802 226.391 69.9511C227.407 69.8739 228.418 70.1543 229.211 70.7338C229.661 71.089 230.014 71.5456 230.48 71.8573C230.946 72.169 231.404 72.2849 231.645 72.6836C231.746 72.8688 231.786 73.076 231.762 73.2812C231.738 73.4864 231.65 73.6812 231.508 73.8433C231.209 74.1611 230.798 74.3761 230.343 74.4521C230.393 74.57 230.417 74.6957 230.412 74.8219C230.408 74.9481 230.375 75.0721 230.317 75.1869C230.259 75.3016 230.175 75.4047 230.072 75.4901C229.969 75.5755 229.848 75.6415 229.717 75.6843C229.531 75.7098 229.352 75.7637 229.187 75.8437C229.074 75.9235 229.026 76.0467 228.913 76.1264C228.648 76.3221 228.303 76.3873 228.19 76.7207C228.157 76.8612 228.143 77.0049 228.15 77.1484C228.131 77.361 228.035 77.5621 227.877 77.721C227.772 77.8225 227.588 78.0761 227.435 78.1051C227.282 78.1341 227.146 77.9674 227.098 77.8225C226.909 77.2078 226.957 76.5537 227.234 75.967C227.433 75.6836 227.549 75.3594 227.572 75.0247C227.572 74.6913 227.041 74.4304 226.768 74.6261C226.495 74.8218 226.479 75.2929 226.19 75.1987C226.369 74.7302 226.356 74.2191 226.152 73.7587C225.949 73.2983 225.569 72.9193 225.081 72.6908C224.54 72.5415 223.976 72.4705 223.41 72.4806C223.146 72.4304 222.876 72.4037 222.606 72.4009L222.566 72.3864Z" fill="#473F47"/>
<path d="M223.619 78.3008C224.416 78.1638 225.197 77.955 225.949 77.6775C226.016 78.2487 225.864 78.8235 225.517 79.3053C225.17 79.7871 224.65 80.1465 224.044 80.323C224.105 79.7033 224.105 79.08 224.044 78.4603C224.044 78.4064 224.021 78.3548 223.98 78.3153C223.936 78.3009 223.888 78.3009 223.844 78.3153H223.659L223.619 78.3008Z" fill="#DE9F93"/>
<path d="M198.463 83.5122C198.585 83.6697 198.664 83.8509 198.693 84.0412C198.722 84.2314 198.701 84.4251 198.632 84.6066C198.492 84.9696 198.289 85.3098 198.029 85.6141L196.768 87.2957C196.438 87.7306 195.964 88.2234 195.41 88.1799C194.028 88.093 193.418 84.8603 193.932 83.9036C194.526 82.7077 197.555 82.4902 198.463 83.5122Z" fill="#FDB9A9"/>
<path d="M204.971 112.425V147.513H166.085V133.944C166.085 133.944 168.278 130.509 171.958 132.712C172.566 133.287 173.352 133.685 174.213 133.854C175.074 134.022 175.971 133.954 176.789 133.659C177.607 133.363 178.308 132.853 178.802 132.195C179.296 131.537 179.56 130.76 179.56 129.965C179.56 129.17 179.296 128.393 178.802 127.735C178.308 127.077 177.607 126.567 176.789 126.271C175.971 125.976 175.074 125.908 174.213 126.077C173.352 126.245 172.566 126.643 171.958 127.218C171.958 127.218 168.061 129.856 166.085 125.986V112.425H181.117C185.407 110.642 182.483 107.126 182.483 107.126C181.845 106.578 181.405 105.869 181.218 105.092C181.031 104.315 181.106 103.506 181.433 102.768C181.761 102.03 182.326 101.397 183.056 100.952C183.786 100.506 184.647 100.268 185.528 100.268C186.409 100.268 187.27 100.506 188 100.952C188.73 101.397 189.295 102.03 189.623 102.768C189.95 103.506 190.025 104.315 189.838 105.092C189.651 105.869 189.21 106.578 188.573 107.126C186.163 110.446 189.939 112.425 189.939 112.425H204.971Z" fill="#FCA311"/>
<path d="M204.971 112.425V147.513H166.085V133.944C166.085 133.944 168.278 130.509 171.958 132.712C172.566 133.287 173.352 133.685 174.213 133.854C175.074 134.022 175.971 133.954 176.789 133.659C177.607 133.363 178.308 132.853 178.802 132.195C179.296 131.537 179.56 130.76 179.56 129.965C179.56 129.17 179.296 128.393 178.802 127.735C178.308 127.077 177.607 126.567 176.789 126.271C175.971 125.976 175.074 125.908 174.213 126.077C173.352 126.245 172.566 126.643 171.958 127.218C171.958 127.218 168.061 129.856 166.085 125.986V112.425H181.117C185.407 110.642 182.483 107.126 182.483 107.126C181.845 106.578 181.405 105.869 181.218 105.092C181.031 104.315 181.106 103.506 181.433 102.768C181.761 102.03 182.326 101.397 183.056 100.952C183.786 100.506 184.647 100.268 185.528 100.268C186.409 100.268 187.27 100.506 188 100.952C188.73 101.397 189.295 102.03 189.623 102.768C189.95 103.506 190.025 104.315 189.838 105.092C189.651 105.869 189.21 106.578 188.573 107.126C186.163 110.446 189.939 112.425 189.939 112.425H204.971Z" fill="url(#paint10_linear)"/>
<path d="M140.68 94.8771C140.678 95.6717 140.412 96.4474 139.917 97.1048C139.422 97.7621 138.721 98.271 137.903 98.5663C137.086 98.8615 136.189 98.9296 135.328 98.7617C134.467 98.5938 133.681 98.1977 133.072 97.6242C129.392 95.4497 127.199 98.8563 127.199 98.8563V112.425H166.085V77.3368H127.199V90.898C129.175 94.7684 133.072 92.1301 133.072 92.1301C133.681 91.5566 134.467 91.1605 135.328 90.9926C136.189 90.8247 137.086 90.8928 137.903 91.188C138.721 91.4832 139.422 91.9922 139.917 92.6495C140.412 93.3069 140.678 94.0826 140.68 94.8771Z" fill="#FCA311"/>
<path d="M143.597 117.723C142.959 118.272 142.519 118.98 142.332 119.757C142.145 120.534 142.22 121.344 142.547 122.082C142.875 122.819 143.44 123.452 144.17 123.897C144.9 124.343 145.761 124.581 146.642 124.581C147.523 124.581 148.384 124.343 149.114 123.897C149.844 123.452 150.409 122.819 150.737 122.082C151.064 121.344 151.139 120.534 150.952 119.757C150.765 118.98 150.325 118.272 149.687 117.723C149.687 117.723 146.763 114.208 151.053 112.425H142.223C142.223 112.425 146.039 114.403 143.597 117.723Z" fill="#FCA311"/>
<path d="M127.199 77.3368V90.898C129.175 94.7684 133.072 92.1301 133.072 92.1301C133.68 91.555 134.465 91.1574 135.327 90.9887C136.188 90.8199 137.085 90.8877 137.903 91.1833C138.721 91.4789 139.422 91.9887 139.916 92.6471C140.41 93.3055 140.674 94.0822 140.674 94.8771C140.674 95.6721 140.41 96.4488 139.916 97.1072C139.422 97.7656 138.721 98.2754 137.903 98.571C137.085 98.8666 136.188 98.9344 135.327 98.7656C134.465 98.5969 133.68 98.1993 133.072 97.6242C129.392 95.4497 127.199 98.8563 127.199 98.8563V112.425H142.223C142.223 112.425 146.031 114.403 143.589 117.723C142.951 118.272 142.51 118.98 142.323 119.757C142.136 120.534 142.211 121.344 142.539 122.081C142.867 122.819 143.432 123.452 144.162 123.897C144.892 124.343 145.753 124.581 146.634 124.581C147.515 124.581 148.376 124.343 149.106 123.897C149.835 123.452 150.401 122.819 150.728 122.081C151.056 121.344 151.131 120.534 150.944 119.757C150.757 118.98 150.316 118.272 149.679 117.723C149.679 117.723 146.754 114.208 151.045 112.425H166.085V77.3368H127.199Z" fill="url(#paint11_linear)"/>
<path d="M127.199 112.425V147.513H166.085V133.944C166.085 133.944 168.278 130.509 171.958 132.712C172.566 133.287 173.351 133.685 174.213 133.854C175.074 134.022 175.971 133.954 176.789 133.659C177.607 133.363 178.308 132.853 178.802 132.195C179.296 131.537 179.56 130.76 179.56 129.965C179.56 129.17 179.296 128.393 178.802 127.735C178.308 127.077 177.607 126.567 176.789 126.271C175.971 125.976 175.074 125.908 174.213 126.077C173.351 126.245 172.566 126.643 171.958 127.218C171.958 127.218 168.061 129.856 166.085 125.986V112.425H151.061C146.77 114.208 149.695 117.723 149.695 117.723C150.332 118.272 150.773 118.98 150.96 119.757C151.147 120.534 151.072 121.344 150.744 122.082C150.417 122.819 149.852 123.452 149.122 123.897C148.392 124.343 147.531 124.581 146.65 124.581C145.769 124.581 144.908 124.343 144.178 123.897C143.448 123.452 142.883 122.819 142.555 122.082C142.228 121.344 142.152 120.534 142.339 119.757C142.527 118.98 142.967 118.272 143.605 117.723C146.015 114.403 142.239 112.425 142.239 112.425H127.199Z" fill="#FCA311"/>
<path d="M88.3936 147.513V133.951C90.37 130.081 94.2666 132.719 94.2666 132.719C94.8749 133.294 95.6603 133.692 96.5214 133.861C97.3825 134.03 98.2799 133.962 99.0979 133.666C99.9159 133.371 100.617 132.861 101.111 132.202C101.605 131.544 101.869 130.767 101.869 129.972C101.869 129.177 101.605 128.401 101.111 127.742C100.617 127.084 99.9159 126.574 99.0979 126.278C98.2799 125.983 97.3825 125.915 96.5214 126.084C95.6603 126.253 94.8749 126.65 94.2666 127.225C90.5869 129.4 88.3936 125.993 88.3936 125.993V112.425H103.426C103.426 112.425 107.234 110.446 104.792 107.126C104.154 106.578 103.713 105.869 103.526 105.092C103.339 104.315 103.414 103.506 103.742 102.768C104.07 102.03 104.635 101.397 105.365 100.952C106.094 100.506 106.955 100.268 107.837 100.268C108.718 100.268 109.579 100.506 110.309 100.952C111.038 101.397 111.603 102.03 111.931 102.768C112.259 103.506 112.334 104.315 112.147 105.092C111.96 105.869 111.519 106.578 110.882 107.126C110.882 107.126 107.957 110.642 112.247 112.425H127.28V147.513H88.3936Z" fill="#FCA311"/>
<path d="M88.3936 147.513V133.951C90.37 130.081 94.2666 132.719 94.2666 132.719C94.8749 133.294 95.6603 133.692 96.5214 133.861C97.3825 134.03 98.2799 133.962 99.0979 133.666C99.9159 133.371 100.617 132.861 101.111 132.202C101.605 131.544 101.869 130.767 101.869 129.972C101.869 129.177 101.605 128.401 101.111 127.742C100.617 127.084 99.9159 126.574 99.0979 126.278C98.2799 125.983 97.3825 125.915 96.5214 126.084C95.6603 126.253 94.8749 126.65 94.2666 127.225C90.5869 129.4 88.3936 125.993 88.3936 125.993V112.425H103.426C103.426 112.425 107.234 110.446 104.792 107.126C104.154 106.578 103.713 105.869 103.526 105.092C103.339 104.315 103.414 103.506 103.742 102.768C104.07 102.03 104.635 101.397 105.365 100.952C106.094 100.506 106.955 100.268 107.837 100.268C108.718 100.268 109.579 100.506 110.309 100.952C111.038 101.397 111.603 102.03 111.931 102.768C112.259 103.506 112.334 104.315 112.147 105.092C111.96 105.869 111.519 106.578 110.882 107.126C110.882 107.126 107.957 110.642 112.247 112.425H127.28V147.513H88.3936Z" fill="url(#paint12_linear)"/>
<path d="M140.729 94.8844C140.726 95.679 140.461 96.4547 139.966 97.112C139.471 97.7693 138.77 98.2783 137.952 98.5735C137.134 98.8688 136.237 98.9368 135.377 98.7689C134.516 98.6011 133.73 98.205 133.12 97.6314C133.12 97.6314 129.224 94.9931 127.247 98.8636V112.425H112.215C107.925 110.642 110.849 107.126 110.849 107.126C111.487 106.578 111.928 105.869 112.115 105.092C112.302 104.315 112.227 103.506 111.899 102.768C111.571 102.03 111.006 101.397 110.276 100.952C109.547 100.506 108.686 100.268 107.804 100.268C106.923 100.268 106.062 100.506 105.332 100.952C104.603 101.397 104.037 102.03 103.71 102.768C103.382 103.506 103.307 104.315 103.494 105.092C103.681 105.869 104.122 106.578 104.759 107.126C107.17 110.446 103.394 112.425 103.394 112.425H88.3936V77.3368H103.281C107.571 79.1199 104.647 82.6352 104.647 82.6352C104.009 83.184 103.569 83.8924 103.382 84.6693C103.195 85.4461 103.27 86.2557 103.597 86.9936C103.925 87.7316 104.49 88.3641 105.22 88.8096C105.95 89.2551 106.811 89.4932 107.692 89.4932C108.573 89.4932 109.434 89.2551 110.164 88.8096C110.894 88.3641 111.459 87.7316 111.786 86.9936C112.114 86.2557 112.189 85.4461 112.002 84.6693C111.815 83.8924 111.374 83.184 110.737 82.6352C108.327 79.3156 112.103 77.3368 112.103 77.3368H127.28V90.9052C127.28 90.9052 129.473 94.3408 133.153 92.1374C133.762 91.5638 134.548 91.1677 135.409 90.9998C136.27 90.832 137.166 90.9 137.984 91.1953C138.802 91.4905 139.503 91.9994 139.998 92.6568C140.493 93.3141 140.758 94.0898 140.761 94.8844H140.729Z" fill="#FCA311"/>
<path d="M150.257 162.306C150.271 163.102 150.021 163.883 149.537 164.549C149.054 165.214 148.361 165.734 147.547 166.041C146.733 166.347 145.836 166.427 144.971 166.269C144.107 166.111 143.315 165.723 142.697 165.154C142.697 165.154 138.76 162.567 136.848 166.459L137.065 180.02L122.033 180.216C117.71 178.491 120.579 174.939 120.579 174.939C121.205 174.383 121.631 173.67 121.804 172.892C121.977 172.115 121.888 171.309 121.549 170.577C121.21 169.846 120.635 169.223 119.9 168.788C119.165 168.354 118.302 168.128 117.424 168.139C116.545 168.151 115.69 168.399 114.969 168.853C114.248 169.306 113.694 169.944 113.379 170.684C113.063 171.424 113 172.232 113.198 173.005C113.396 173.778 113.845 174.479 114.489 175.019C116.987 178.302 113.211 180.332 113.211 180.332L98.1791 180.528L97.6167 145.44L112.504 145.251C116.827 146.976 113.958 150.528 113.958 150.528C113.333 151.084 112.906 151.797 112.733 152.575C112.56 153.352 112.649 154.158 112.988 154.89C113.328 155.621 113.902 156.244 114.637 156.679C115.372 157.113 116.235 157.339 117.113 157.328C117.992 157.316 118.847 157.068 119.568 156.614C120.289 156.161 120.843 155.523 121.159 154.783C121.474 154.043 121.537 153.235 121.339 152.462C121.142 151.69 120.692 150.988 120.048 150.448C117.55 147.165 121.326 145.135 121.326 145.135L136.503 144.94L136.72 158.508C136.72 158.508 138.969 161.914 142.609 159.66C143.021 159.263 143.519 158.946 144.071 158.726C144.623 158.507 145.219 158.391 145.822 158.385C146.986 158.377 148.106 158.785 148.937 159.52C149.768 160.255 150.243 161.256 150.257 162.306Z" fill="#FCA311"/>
<path d="M103.064 145.57C102.526 146.106 102.108 147.288 102.96 147.788C103.264 147.936 103.602 148.021 103.948 148.034L108.495 148.535C108.359 148.535 110.737 172.707 111.669 177.846C111.781 178.455 112.063 179.216 112.745 179.295C112.95 179.284 113.149 179.23 113.326 179.137C113.504 179.044 113.654 178.914 113.766 178.759C114.422 177.831 114.796 176.764 114.85 175.664C115.98 167.774 116.517 159.824 116.457 151.869C116.457 150.296 116.393 148.651 115.525 147.281C114.992 146.535 114.294 145.898 113.474 145.409C112.654 144.92 111.73 144.59 110.761 144.439C108.166 143.91 104.952 143.671 103.064 145.57Z" fill="url(#paint13_linear)"/>
<path d="M114.007 195.741V195.835C114.199 196.278 114.81 196.423 115.324 196.48C115.81 196.529 116.298 196.548 116.787 196.538C117.021 196.546 117.255 196.517 117.477 196.451C117.682 196.37 117.874 196.266 118.048 196.14L119.454 195.198C119.849 194.952 120.21 194.665 120.531 194.342C120.847 194.011 121.013 193.584 120.996 193.146C120.98 192.93 120.89 192.724 120.739 192.556C120.588 192.387 120.383 192.264 120.153 192.204C119.859 192.172 119.563 192.172 119.269 192.204C118.943 192.242 118.611 192.194 118.315 192.065C118.018 191.936 117.769 191.733 117.598 191.479C117.54 191.243 117.399 191.029 117.196 190.871C116.992 190.781 116.76 190.755 116.537 190.798C116.05 190.82 115.568 190.906 115.107 191.052C114.875 191.127 114.664 191.248 114.491 191.406C114.317 191.564 114.184 191.755 114.103 191.965C114.054 192.16 114.032 192.36 114.039 192.559C114.067 192.972 114.067 193.386 114.039 193.799C113.975 194.314 113.942 194.832 113.942 195.35C113.947 195.482 113.968 195.613 114.007 195.741Z" fill="#262836"/>
<path d="M127.641 195.908C126.694 196.299 125.72 196.633 124.724 196.908C124.328 197.062 123.884 197.085 123.471 196.973C123.309 196.903 123.166 196.801 123.051 196.676C122.935 196.551 122.851 196.405 122.804 196.249C122.717 195.929 122.682 195.599 122.7 195.27C122.761 194.761 122.877 194.259 123.045 193.77C123.134 193.313 123.206 192.856 123.27 192.4C123.375 191.74 123.471 191.088 123.559 190.436L126.09 190.921C126.355 190.972 126.604 191.892 126.765 192.088C126.883 192.232 127.035 192.351 127.21 192.435C127.385 192.519 127.579 192.566 127.777 192.574C128.209 192.518 128.643 192.486 129.079 192.48C129.36 192.539 129.611 192.681 129.793 192.883C129.974 193.085 130.077 193.336 130.083 193.596C130.081 193.854 130.019 194.11 129.902 194.346C129.784 194.581 129.613 194.793 129.4 194.966C128.974 195.314 128.485 195.593 127.954 195.792L127.641 195.908Z" fill="#262836"/>
<path d="M127.681 193.357C127.017 193.697 126.327 193.995 125.616 194.248H125.552C124.379 194.661 123.069 193.001 123.069 193.001C123.069 193.001 121.414 183.782 121.462 179.955C121.518 177.331 120.828 173.591 119.791 166.807C119.534 173.736 118.232 176.78 118.562 179.266C119.068 183.043 118.465 192.422 118.465 192.422C118.465 192.422 117.357 194.248 116.144 194.002H116.071C115.341 193.852 114.624 193.653 113.926 193.407C113.926 193.407 112.512 180.491 112.512 177.085C112.512 173.678 112.673 170.627 112.673 170.627L111.934 159.842L115.083 155.71L115.34 155.616L115.581 155.398L119.076 153.086C119.076 153.086 119.076 153.623 119.012 154.536L121.727 155.848L121.984 156.022L122.25 156.08L126.797 156.805C126.797 156.805 127.986 173.352 128.404 176.737C128.822 180.122 127.681 193.357 127.681 193.357Z" fill="#FCA311"/>
<path d="M127.681 193.357C127.017 193.697 126.327 193.995 125.616 194.248H125.552C124.379 194.661 123.069 193.001 123.069 193.001C123.069 193.001 121.414 183.782 121.462 179.955C121.518 177.331 120.828 173.591 119.791 166.807C119.534 173.736 118.232 176.78 118.562 179.266C119.068 183.043 118.465 192.422 118.465 192.422C118.465 192.422 117.357 194.248 116.144 194.002H116.071C115.341 193.852 114.624 193.653 113.926 193.407C113.926 193.407 112.512 180.491 112.512 177.085C112.512 173.678 112.673 170.627 112.673 170.627L111.934 159.842L115.083 155.71L115.34 155.616L115.581 155.398L119.076 153.086C119.076 153.086 119.076 153.623 119.012 154.536L121.727 155.848L121.984 156.022L122.25 156.08L126.797 156.805C126.797 156.805 127.986 173.352 128.404 176.737C128.822 180.122 127.681 193.357 127.681 193.357Z" fill="url(#paint14_linear)"/>
<path d="M149.084 135.677C149.141 135.64 149.208 135.62 149.277 135.619C149.462 135.619 149.47 135.887 149.406 136.046C149.238 136.491 148.994 136.909 148.683 137.286C148.582 137.379 148.522 137.503 148.514 137.633C148.514 137.764 148.642 137.858 148.739 137.952C149.034 138.262 149.245 138.63 149.352 139.027C149.46 139.424 149.462 139.838 149.358 140.236C149.135 141.029 148.676 141.754 148.032 142.33C147.877 142.508 147.684 142.657 147.465 142.768C147.245 142.879 147.004 142.949 146.754 142.975C145.887 142.975 144.802 142.011 144.457 141.344C144.331 141.011 144.303 140.655 144.376 140.309C144.45 139.963 144.621 139.641 144.874 139.373C145.9 137.833 147.35 136.559 149.084 135.677Z" fill="#A67C52"/>
<path d="M123.913 128.066C124.194 128.327 124.628 128.595 124.508 128.936C124.443 129.117 124.226 129.226 124.066 129.356C123.669 129.736 123.456 130.241 123.471 130.762C123.488 131.281 123.407 131.798 123.23 132.292C123.13 132.536 122.939 132.741 122.69 132.873C122.442 133.006 122.15 133.056 121.864 133.016C121.535 132.937 121.206 132.676 120.884 132.799C120.563 132.922 120.563 133.161 120.434 133.364C120.259 133.614 120.009 133.815 119.714 133.943C119.418 134.071 119.089 134.122 118.763 134.089C118.119 134.002 117.498 133.808 116.931 133.517C116.691 133.43 116.482 133.284 116.329 133.096C116.235 132.912 116.213 132.706 116.264 132.509C116.463 131.919 116.788 131.37 117.221 130.893C117.913 129.93 118.33 128.826 118.434 127.682C118.498 126.885 118.434 126.008 119.004 125.391C119.808 124.551 121.631 124.558 122.587 125.174C123.544 125.79 123.029 127.247 123.913 128.066Z" fill="#A67C52"/>
<path d="M122.772 124.457C122.66 124.655 122.491 124.823 122.282 124.942C121.856 125.167 121.479 125.428 121.093 125.667C120.704 125.898 120.43 126.257 120.33 126.667C120.161 127.392 120.611 128.218 120.33 128.95C120.225 129.103 119.96 129.008 119.856 128.863C119.751 128.718 119.687 128.537 119.526 128.45C119.245 128.305 118.908 128.552 118.787 128.82C118.663 129.132 118.677 129.475 118.827 129.778C118.976 130.08 119.25 130.319 119.591 130.443C119.55 130.675 119.221 130.77 118.956 130.741C118.694 130.676 118.424 130.644 118.153 130.646C117.55 130.748 117.349 131.523 116.722 131.603C116.515 131.591 116.313 131.535 116.134 131.441C115.954 131.347 115.801 131.216 115.686 131.059L114.955 130.335C114.837 130.194 114.708 130.06 114.569 129.936C114.4 129.82 114.127 129.813 113.991 129.675C113.854 129.537 113.991 129.211 113.846 129.037C113.778 128.973 113.692 128.925 113.597 128.9C113.387 128.804 113.219 128.646 113.123 128.452C113.026 128.258 113.006 128.04 113.067 127.834C113.086 127.782 113.086 127.726 113.067 127.675C113.067 127.602 112.954 127.573 112.874 127.537C112.652 127.407 112.489 127.21 112.414 126.982C112.339 126.753 112.357 126.508 112.464 126.29C112.586 126.04 112.761 125.814 112.978 125.623C113.055 125.517 113.164 125.432 113.292 125.38C113.42 125.327 113.562 125.309 113.702 125.326L113.822 124.377C113.819 124.216 113.856 124.057 113.929 123.91C114.003 123.764 114.112 123.634 114.248 123.53C114.384 123.426 114.544 123.35 114.716 123.309C114.888 123.267 115.069 123.261 115.244 123.29L115.003 122.507C114.959 122.407 114.959 122.295 115.003 122.195C115.069 122.126 115.16 122.08 115.26 122.065C115.54 121.993 115.829 121.949 116.12 121.934C116.015 121.715 115.935 121.486 115.879 121.253C115.86 121.219 115.854 121.181 115.859 121.144C115.865 121.107 115.882 121.072 115.91 121.044C115.938 121.016 115.974 120.996 116.014 120.987C116.054 120.978 116.097 120.979 116.136 120.992C116.242 121.006 116.351 121.006 116.457 120.992C116.457 120.992 116.297 120.325 116.289 120.267C116.24 120.058 116.283 119.84 116.409 119.658C116.497 119.568 116.608 119.499 116.733 119.457C116.858 119.416 116.992 119.402 117.124 119.419C117.385 119.461 117.635 119.544 117.863 119.666C117.863 119.412 118.209 119.281 118.49 119.26C119.031 119.232 119.572 119.329 120.06 119.54C120.549 119.752 120.971 120.072 121.286 120.47C121.338 120.54 121.397 120.606 121.463 120.666C121.591 120.74 121.732 120.793 121.88 120.825C122.108 120.916 122.311 121.052 122.474 121.222C122.636 121.393 122.755 121.594 122.82 121.811C122.941 122.242 122.99 122.686 122.965 123.13C122.983 123.471 122.948 123.813 122.861 124.145C122.845 124.251 122.815 124.356 122.772 124.457Z" fill="#2F3554"/>
<path d="M118.779 132.676C119.448 132.929 120.098 133.222 120.723 133.553C120.916 133.646 121.084 133.778 121.213 133.937C121.283 134.024 121.325 134.127 121.336 134.234C121.348 134.341 121.327 134.448 121.278 134.546C121.109 134.814 120.707 134.72 120.402 134.618C118.986 134.185 117.492 133.998 115.999 134.067C115.899 134.082 115.797 134.072 115.703 134.037C115.61 134.003 115.528 133.945 115.469 133.872C115.434 133.783 115.421 133.688 115.431 133.594C115.441 133.501 115.473 133.41 115.525 133.328C116.288 131.944 117.534 132.168 118.779 132.676Z" fill="white"/>
<path d="M146.28 143.359C145.99 144.01 145.562 144.604 145.019 145.106C144.497 145.635 143.958 146.143 143.412 146.636C142.092 147.787 140.7 148.868 139.242 149.875C138.252 150.665 137.072 151.235 135.796 151.543C135.278 151.652 134.736 151.622 134.237 151.456C133.831 151.273 133.464 151.028 133.152 150.731C132.783 150.397 128.492 145.94 128.42 145.94C128.177 146.058 127.988 146.251 127.89 146.483C127.27 147.642 126.886 148.892 126.757 150.173C126.705 150.744 126.705 151.319 126.757 151.89C126.926 153.84 127.681 155.848 126.934 157.689C126.785 158.078 126.537 158.43 126.211 158.718C125.896 158.966 125.534 159.16 125.142 159.291C124.45 159.547 123.727 159.731 122.989 159.842C122.567 159.912 122.14 159.953 121.711 159.965C120.105 160.023 118.578 159.747 117.003 159.813C115.67 159.878 114.344 160.189 112.986 160.146C112.795 160.18 112.597 160.175 112.408 160.134C112.218 160.092 112.041 160.013 111.888 159.904C111.736 159.794 111.611 159.656 111.523 159.499C111.435 159.342 111.386 159.169 111.379 158.994C110.859 156.413 110.59 153.796 110.576 151.173C110.576 150.26 110.52 149.339 110.455 148.426C110.399 147.65 110.632 145.679 109.652 145.527C107.161 145.092 104.574 145.643 102.06 145.324C102.129 143.839 102.828 142.436 104.012 141.402C104.592 140.96 105.223 140.574 105.892 140.25C106.663 139.752 107.355 139.162 107.949 138.496C109.657 136.593 111.822 135.064 114.28 134.024C114.671 133.851 115.084 133.72 115.509 133.633H115.613C115.675 133.626 115.737 133.626 115.798 133.633C116.336 133.592 116.877 133.621 117.405 133.72C120.99 134.256 124.536 134.982 128.026 135.894C128.487 135.987 128.923 136.16 129.312 136.401C129.583 136.622 129.816 136.879 130.003 137.162C130.983 138.496 131.939 139.844 132.927 141.178C133.779 142.323 134.615 143.758 135.868 144.599C138.596 143.598 141.172 142.288 143.533 140.699C143.862 140.475 144.288 140.228 144.665 140.381C144.791 140.431 144.903 140.505 144.995 140.598C145.919 141.323 146.73 142.12 146.28 143.359Z" fill="white"/>
</g>
<defs>
<linearGradient id="paint0_linear" x1="119.591" y1="174.736" x2="120.945" y2="203.591" gradientUnits="userSpaceOnUse">
<stop offset="0.01"/>
<stop offset="0.08" stop-opacity="0.69"/>
<stop offset="0.21" stop-opacity="0.32"/>
<stop offset="1" stop-opacity="0"/>
</linearGradient>
<linearGradient id="paint1_linear" x1="38346.3" y1="1609.05" x2="38353.5" y2="3420.84" gradientUnits="userSpaceOnUse">
<stop offset="0.01"/>
<stop offset="0.08" stop-opacity="0.69"/>
<stop offset="0.21" stop-opacity="0.32"/>
<stop offset="1" stop-opacity="0"/>
</linearGradient>
<linearGradient id="paint2_linear" x1="-27590.5" y1="11490.2" x2="-27350.8" y2="11593.8" gradientUnits="userSpaceOnUse">
<stop offset="0.01"/>
<stop offset="0.08" stop-opacity="0.69"/>
<stop offset="0.21" stop-opacity="0.32"/>
<stop offset="1" stop-opacity="0"/>
</linearGradient>
<linearGradient id="paint3_linear" x1="132.617" y1="102.394" x2="73.7829" y2="-30.0148" gradientUnits="userSpaceOnUse">
<stop offset="0.01"/>
<stop offset="0.08" stop-opacity="0.69"/>
<stop offset="0.21" stop-opacity="0.32"/>
<stop offset="1" stop-opacity="0"/>
</linearGradient>
<linearGradient id="paint4_linear" x1="2060.3" y1="772.875" x2="2105.75" y2="1135.65" gradientUnits="userSpaceOnUse">
<stop offset="0.01"/>
<stop offset="0.08" stop-opacity="0.69"/>
<stop offset="0.21" stop-opacity="0.32"/>
<stop offset="1" stop-opacity="0"/>
</linearGradient>
<linearGradient id="paint5_linear" x1="-11050.5" y1="-1785.49" x2="-11159.8" y2="-1696.97" gradientUnits="userSpaceOnUse">
<stop offset="0.01"/>
<stop offset="0.08" stop-opacity="0.69"/>
<stop offset="0.21" stop-opacity="0.32"/>
<stop offset="1" stop-opacity="0"/>
</linearGradient>
<linearGradient id="paint6_linear" x1="6691.23" y1="6139.03" x2="6604.56" y2="14581.3" gradientUnits="userSpaceOnUse">
<stop offset="0.01"/>
<stop offset="0.08" stop-opacity="0.69"/>
<stop offset="0.21" stop-opacity="0.32"/>
<stop offset="1" stop-opacity="0"/>
</linearGradient>
<linearGradient id="paint7_linear" x1="6708.17" y1="10650.5" x2="3198.75" y2="11875.2" gradientUnits="userSpaceOnUse">
<stop offset="0.01"/>
<stop offset="0.08" stop-opacity="0.69"/>
<stop offset="0.21" stop-opacity="0.32"/>
<stop offset="1" stop-opacity="0"/>
</linearGradient>
<linearGradient id="paint8_linear" x1="4108.67" y1="9752.53" x2="-778.394" y2="11042.6" gradientUnits="userSpaceOnUse">
<stop offset="0.01"/>
<stop offset="0.08" stop-opacity="0.69"/>
<stop offset="0.21" stop-opacity="0.32"/>
<stop offset="1" stop-opacity="0"/>
</linearGradient>
<linearGradient id="paint9_linear" x1="5157.69" y1="1575.47" x2="6083.36" y2="4005.82" gradientUnits="userSpaceOnUse">
<stop offset="0.01"/>
<stop offset="0.08" stop-opacity="0.69"/>
<stop offset="0.21" stop-opacity="0.32"/>
<stop offset="1" stop-opacity="0"/>
</linearGradient>
<linearGradient id="paint10_linear" x1="6752.59" y1="6467.85" x2="17079.8" y2="12427.1" gradientUnits="userSpaceOnUse">
<stop offset="0.01"/>
<stop offset="0.08" stop-opacity="0.69"/>
<stop offset="0.21" stop-opacity="0.32"/>
<stop offset="1" stop-opacity="0"/>
</linearGradient>
<linearGradient id="paint11_linear" x1="7872.12" y1="12035.3" x2="10401.6" y2="840.398" gradientUnits="userSpaceOnUse">
<stop offset="0.01"/>
<stop offset="0.08" stop-opacity="0.69"/>
<stop offset="0.21" stop-opacity="0.32"/>
<stop offset="1" stop-opacity="0"/>
</linearGradient>
<linearGradient id="paint12_linear" x1="6767.84" y1="4280.91" x2="6379.92" y2="18324.6" gradientUnits="userSpaceOnUse">
<stop offset="0.01"/>
<stop offset="0.08" stop-opacity="0.69"/>
<stop offset="0.21" stop-opacity="0.32"/>
<stop offset="1" stop-opacity="0"/>
</linearGradient>
<linearGradient id="paint13_linear" x1="2127.47" y1="7680.14" x2="4379.93" y2="8652.04" gradientUnits="userSpaceOnUse">
<stop offset="0.01"/>
<stop offset="0.08" stop-opacity="0.69"/>
<stop offset="0.21" stop-opacity="0.32"/>
<stop offset="1" stop-opacity="0"/>
</linearGradient>
<linearGradient id="paint14_linear" x1="2820.36" y1="9861.82" x2="4687.63" y2="10911.9" gradientUnits="userSpaceOnUse">
<stop offset="0.01"/>
<stop offset="0.08" stop-opacity="0.69"/>
<stop offset="0.21" stop-opacity="0.32"/>
<stop offset="1" stop-opacity="0"/>
</linearGradient>
<clipPath id="clip0">
<rect width="283" height="218" fill="white"/>
</clipPath>
</defs>
</svg>
