<svg width="199" height="165" viewBox="0 0 199 165" fill="none" xmlns="http://www.w3.org/2000/svg">
<path d="M65.2655 160.661C64.2853 160.936 63.1846 161.386 62.9355 162.263C66.0207 164.031 69.837 164.437 73.4846 164.35C77.1321 164.263 80.7717 163.683 84.4273 163.662C89.2479 163.662 94.679 164.437 98.5516 161.799C96.8317 160.816 94.8569 160.257 92.8231 160.175C93.5382 156.116 68.1257 159.856 65.2655 160.661Z" fill="url(#paint0_linear)"/>
<path d="M3.32885 112.309C2.02729 112.309 0.227605 112.904 0.548977 114.041L59.9465 118.39C66.9364 118.905 73.9342 119.412 80.9562 119.412C91.5615 119.412 102.119 118.238 112.7 117.687C122.662 117.173 132.641 117.209 142.611 117.252C151.843 117.296 163.195 118.796 172.162 116.615C173.511 116.288 174.869 115.31 174.781 114.056C174.741 113.476 174.403 112.875 174.652 112.338C174.797 112.075 175.026 111.858 175.311 111.715C177.151 110.693 179.497 111.49 181.618 111.911C184.994 112.573 188.52 112.168 191.605 110.765C192.183 110.548 192.675 110.18 193.019 109.707C193.182 109.468 193.241 109.183 193.185 108.907C193.129 108.632 192.96 108.384 192.713 108.214C192.464 108.103 192.188 108.046 191.91 108.047L173.728 106.772C173.057 106.678 172.37 106.733 171.728 106.931C171.013 107.214 171.053 107.968 170.474 108.279C169.534 108.779 167.397 108.511 166.321 108.569C163.565 108.707 160.809 108.845 158.045 108.968C152.544 109.205 147.033 109.405 141.511 109.569C130.263 109.91 118.958 110.113 107.686 110.294C85.3911 110.62 63.0879 110.794 40.8008 111.57C28.3075 111.99 15.8222 112.063 3.32885 112.309Z" fill="url(#paint1_linear)"/>
<path d="M49.0038 0.638261C47.9582 0.310626 46.8163 0.336384 45.7901 0.710746C45.1282 0.923768 44.5231 1.25957 44.0138 1.69652C43.5046 2.13346 43.1025 2.66183 42.8335 3.24757C42.8282 3.32371 42.805 3.39795 42.7653 3.46534C42.7257 3.53274 42.6706 3.59173 42.6037 3.63838C42.5367 3.68503 42.4596 3.71826 42.3773 3.73586C42.295 3.75346 42.2095 3.75501 42.1265 3.74043C40.9573 3.738 39.8289 4.12813 38.961 4.83489C37.9486 5.66842 37.9486 6.69039 37.8121 7.88632C37.6463 7.81111 37.4633 7.77194 37.2778 7.77194C37.0922 7.77194 36.9093 7.81111 36.7435 7.88632C36.4126 8.03353 36.1112 8.2295 35.8517 8.46617C35.4085 8.78725 35.0537 9.19659 34.8153 9.6621C34.4939 10.4521 34.8554 11.3219 34.8715 12.1627C34.8772 12.2004 34.8736 12.2387 34.8611 12.275C34.8486 12.3113 34.8275 12.3447 34.7992 12.3729C34.7662 12.3856 34.7307 12.3922 34.6948 12.3922C34.6588 12.3922 34.6233 12.3856 34.5903 12.3729C34.3412 12.3294 34.1163 12.2134 33.8672 12.1917C33.5759 12.1942 33.2946 12.2881 33.0717 12.4574C32.8488 12.6268 32.6983 12.8608 32.646 13.1194C32.5512 13.6386 32.5814 14.1701 32.7344 14.6778C32.8837 15.1858 32.8669 15.7219 32.6862 16.2216C32.4936 16.5498 32.241 16.8463 31.939 17.0986C31.0676 17.8312 30.5006 18.8109 30.3321 19.8746C30.2848 20.3887 30.4383 20.9015 30.766 21.3242C30.9343 21.533 31.1597 21.6988 31.4202 21.8055C31.6807 21.9122 31.9674 21.9561 32.2523 21.9331C33.586 21.7736 34.052 20.0848 35.3214 19.6862C36.5908 19.2875 38.0129 17.9394 38.8324 16.8739C39.4912 16.0187 40.134 15.0257 41.2427 14.6995C41.6076 14.6295 41.9594 14.5124 42.2872 14.3516C42.5052 14.1981 42.6857 14.0056 42.8174 13.7862C43.2766 13.1756 43.6314 12.5061 43.8699 11.8003C44.2716 10.4087 43.8699 8.84307 44.6171 7.56016C44.8304 7.19215 45.1275 6.86892 45.4889 6.61162C45.8502 6.35432 46.2677 6.16876 46.7141 6.06706C47.0917 5.98009 47.5175 5.95834 47.863 5.86411C48.2999 5.75035 48.7126 5.57152 49.0842 5.33501C49.5729 5.0815 49.9934 4.73366 50.3156 4.3164C50.6378 3.89914 50.8538 3.42278 50.9481 2.9214C51.0204 1.89943 50.0001 0.986168 49.0038 0.638261Z" fill="#FF681C"/>
<path d="M52.29 2.35605C52.6914 2.49583 53.0244 2.7602 53.2291 3.10164C53.4338 3.44309 53.4968 3.83921 53.4068 4.2188C53.2693 4.52574 53.0643 4.80435 52.8042 5.03783L51.35 6.48744L50.7474 4.47248C50.6851 4.09439 50.4775 3.74807 50.1609 3.494C49.9543 3.38719 49.7202 3.331 49.482 3.331C49.2438 3.331 49.0098 3.38719 48.8031 3.494C48.3773 3.68969 47.9997 3.99411 47.6221 4.2188C47.5176 4.27679 47.373 4.34202 47.2606 4.28403C47.1481 4.22605 47.132 4.01585 47.1883 3.87089C47.8792 2.14585 50.5225 1.66748 52.29 2.35605Z" fill="#FF681C"/>
<path d="M53.2781 56.8832C53.3221 57.5617 53.5723 58.2162 54.0012 58.775C54.6519 59.4998 55.7366 59.8622 56.6364 60.3913C56.7291 60.4337 56.8102 60.494 56.8741 60.5679C56.938 60.6418 56.983 60.7275 57.006 60.8189C57.0007 60.9072 56.9666 60.9922 56.908 61.0631C56.8494 61.134 56.7689 61.1877 56.6766 61.2176C56.486 61.2662 56.2863 61.2785 56.0901 61.2538C55.1723 61.1239 54.2467 61.044 53.3183 61.0146C52.8523 61.0146 52.314 61.0581 52.0167 60.732C51.8253 60.4556 51.7591 60.1234 51.8319 59.8042C51.9142 58.6054 51.806 57.4021 51.5105 56.2309C51.412 55.9451 51.3765 55.6447 51.4061 55.3466C51.4361 55.2088 51.5056 55.0804 51.6077 54.9744C51.7098 54.8683 51.8409 54.7882 51.988 54.742C52.1351 54.6958 52.293 54.6852 52.446 54.7111C52.5991 54.7371 52.7419 54.7988 52.8603 54.89C53.3906 55.3032 53.2138 56.3251 53.2781 56.8832Z" fill="#FCBDBA"/>
<path d="M38.4147 61.3698C38.3057 62.0419 38.4001 62.7281 38.6878 63.3558C39.1619 64.2183 40.1501 64.7329 40.9134 65.4142C40.9961 65.4712 41.063 65.5447 41.109 65.629C41.155 65.7132 41.1788 65.8059 41.1785 65.8998C41.1548 65.9852 41.1029 66.0621 41.0298 66.1204C40.9566 66.1786 40.8656 66.2154 40.7687 66.226C40.5729 66.2442 40.3751 66.2219 40.1903 66.1608C39.3172 65.8733 38.4266 65.6313 37.5229 65.436C37.0649 65.3635 36.5266 65.291 36.3097 64.9286C36.178 64.6257 36.178 64.2892 36.3097 63.9863C36.6585 62.8246 36.8208 61.6236 36.7917 60.4203C36.7592 60.1227 36.7919 59.8222 36.8882 59.536C36.9486 59.4066 37.0455 59.2936 37.1693 59.2084C37.2931 59.1232 37.4394 59.0687 37.5938 59.0504C37.7482 59.0321 37.9052 59.0506 38.0492 59.104C38.1932 59.1574 38.3192 59.2439 38.4147 59.3548C38.8726 59.8404 38.4709 60.8117 38.4147 61.3698Z" fill="#FCBDBA"/>
<path d="M35.4902 28.7535C35.4902 28.7535 43.155 39.0168 48.1764 42.0827C48.0799 43.1089 48.1042 44.1415 48.2487 45.1631C48.5058 46.8229 49.3976 48.2798 49.6868 49.9106L50.651 55.3974C50.6911 55.6438 50.7715 55.941 51.0366 56.028C51.196 56.074 51.3673 56.074 51.5267 56.028L53.6477 55.5061C53.5205 52.2093 53.5983 48.9087 53.8807 45.6197C54.0547 44.2896 54.0923 42.9479 53.9932 41.6116C53.6397 38.7123 51.0045 36.1248 49.1726 33.7982C48.0719 32.392 46.8909 30.2901 45.3483 29.2246C44.0628 28.3404 42.2471 28.7608 40.6322 28.9057C39.4211 29.01 38.1993 28.9316 37.0167 28.6738C36.775 28.5716 36.5088 28.5254 36.2423 28.5393C35.9758 28.5533 35.7173 28.6269 35.4902 28.7535Z" fill="#473F47"/>
<path d="M32.5737 28.6883C32.5737 28.6883 35.5545 40.7708 39.0012 45.2791C38.5003 46.2072 38.1046 47.1785 37.8201 48.1783C37.6299 48.9967 37.5197 49.8286 37.4907 50.6644L36.7998 60.7537C37.8678 60.8042 38.9372 60.6815 39.9572 60.3913L43.878 51.4979C44.6266 50.0813 45.0684 48.5486 45.1795 46.9824C45.1795 43.9527 41.9658 32.8921 41.5882 32.334C40.7446 31.0801 38.8887 30.8844 37.33 30.4785C36.1597 30.1801 35.054 29.7046 34.0601 29.0724C33.57 28.797 33.1281 28.5288 32.5737 28.6883Z" fill="#473F47"/>
<path d="M60.0913 19.2803C61.7247 19.9602 63.5373 20.2114 65.3216 20.0051C65.8449 19.875 66.3934 19.8503 66.9285 19.9326C66.6955 20.2298 66.4705 20.6574 66.7999 20.9111C66.9008 20.9706 67.0171 21.0056 67.1374 21.0126C67.5706 21.0629 68.011 21.0207 68.4228 20.8894C68.6173 20.8023 68.8326 20.76 69.0495 20.7661C69.2409 20.809 69.4057 20.9184 69.5081 21.0705C69.6104 21.2226 69.6419 21.405 69.5958 21.5779C69.4821 21.923 69.23 22.2175 68.8888 22.4042C68.337 22.7339 67.6979 22.9251 67.0371 22.9582C66.3763 22.9913 65.7176 22.8652 65.1288 22.5926C64.7913 22.4259 64.478 22.2157 64.1325 22.049C63.4679 21.7758 62.7652 21.5856 62.0436 21.4837C59.9315 21.0893 57.8554 20.5514 55.8331 19.8746C55.5267 19.8089 55.2384 19.6875 54.9857 19.5181C54.7329 19.3486 54.521 19.1346 54.3628 18.8889C53.9531 17.9756 54.7083 16.4463 55.9134 17.0406C57.3114 17.7727 58.5728 18.7149 60.0913 19.2803Z" fill="#FCBDBA"/>
<path d="M50.1127 14.0762C52.4986 15.4833 55.1599 16.4672 57.9542 16.9754C58.0747 16.9754 58.2194 17.0479 58.2515 17.1566C58.2644 17.2306 58.2441 17.3062 58.1952 17.3668C57.6247 18.403 56.9032 19.3658 56.0501 20.2298C55.9585 20.3394 55.8404 20.4287 55.7046 20.4907C55.5711 20.526 55.4311 20.5365 55.293 20.5215C55.1549 20.5066 55.0216 20.4665 54.9012 20.4037C53.0962 19.7514 51.3286 19.0266 49.5985 18.2293C48.0588 17.6201 46.6872 16.7118 45.5814 15.5693C45.0299 14.9764 44.7033 14.2398 44.6494 13.4673C44.6494 12.6121 45.5171 11.0755 46.7142 11.4959C47.2525 11.6843 47.7265 12.2859 48.1363 12.6266C48.7616 13.1458 49.4216 13.63 50.1127 14.0762V14.0762Z" fill="#FCA311"/>
<path d="M50.1127 14.0762C52.4986 15.4833 55.1599 16.4672 57.9542 16.9754C58.0747 16.9754 58.2194 17.0479 58.2515 17.1566C58.2644 17.2306 58.2441 17.3062 58.1952 17.3668C57.6247 18.403 56.9032 19.3658 56.0501 20.2298C55.9585 20.3394 55.8404 20.4287 55.7046 20.4907C55.5711 20.526 55.4311 20.5365 55.293 20.5215C55.1549 20.5066 55.0216 20.4665 54.9012 20.4037C53.0962 19.7514 51.3286 19.0266 49.5985 18.2293C48.0588 17.6201 46.6872 16.7118 45.5814 15.5693C45.0299 14.9764 44.7033 14.2398 44.6494 13.4673C44.6494 12.6121 45.5171 11.0755 46.7142 11.4959C47.2525 11.6843 47.7265 12.2859 48.1363 12.6266C48.7616 13.1458 49.4216 13.63 50.1127 14.0762V14.0762Z" fill="url(#paint2_linear)"/>
<path d="M83.7443 9.75633C84.1735 10.2447 84.4297 10.8383 84.4795 11.4599C84.5294 12.0815 84.3705 12.7022 84.0237 13.2412C83.6768 13.7801 83.1581 14.2124 82.535 14.4815C81.912 14.7507 81.2135 14.8443 80.5306 14.7502C80.5306 14.7502 76.7304 14.83 77.5901 18.0626L84.8209 26.3689L75.6136 32.8921C72.0303 33.6677 71.942 30.2394 71.942 30.2394C72.0403 29.624 71.9318 28.9961 71.6306 28.4369C71.3293 27.8776 70.8492 27.4127 70.2521 27.1021C69.655 26.7916 68.9685 26.6496 68.2811 26.6946C67.5937 26.7396 66.937 26.9695 66.3959 27.3545C65.8548 27.7396 65.454 28.2622 65.2454 28.8548C65.0368 29.4474 65.0299 30.0828 65.2257 30.6789C65.4214 31.2751 65.8108 31.8046 66.3435 32.1992C66.8762 32.5937 67.5277 32.8351 68.214 32.8921C71.484 33.8634 70.2146 36.7336 70.2146 36.7336L61.0073 43.2569L42.2954 21.8244L51.4143 15.3011C54.9976 14.5256 55.086 17.9539 55.086 17.9539C55.0007 18.4622 55.0567 18.9816 55.2491 19.4655C55.4415 19.9494 55.7641 20.3825 56.188 20.7261C56.6119 21.0696 57.1238 21.3127 57.6777 21.4335C58.2315 21.5544 58.81 21.5491 59.3611 21.4183C59.9121 21.2875 60.4185 21.0352 60.8347 20.684C61.2509 20.3329 61.5638 19.894 61.7454 19.4067C61.9269 18.9195 61.9714 18.3991 61.8749 17.8925C61.7783 17.3859 61.5436 16.9088 61.1921 16.5043C60.899 16.1719 60.5343 15.8965 60.1201 15.6947C59.7058 15.4929 59.2506 15.3689 58.7818 15.3301C55.544 14.3661 56.8134 11.4669 56.8134 11.4669L66.1091 4.84939L73.3399 13.1629C73.3399 13.1629 76.5536 14.3081 77.5981 11.3581C77.6671 10.7404 77.9394 10.1554 78.3801 9.67857C78.8208 9.2017 79.4097 8.85477 80.0709 8.68246C80.732 8.51015 81.4352 8.52034 82.0899 8.71173C82.7446 8.90312 83.3208 9.26693 83.7443 9.75633V9.75633Z" fill="#FCA311"/>
<path d="M83.7443 9.75633C84.1735 10.2447 84.4297 10.8383 84.4795 11.4599C84.5294 12.0815 84.3705 12.7022 84.0237 13.2412C83.6768 13.7801 83.1581 14.2124 82.535 14.4815C81.912 14.7507 81.2135 14.8443 80.5306 14.7502C80.5306 14.7502 76.7304 14.83 77.5901 18.0626L84.8209 26.3689L75.6136 32.8921C72.0303 33.6677 71.942 30.2394 71.942 30.2394C72.0403 29.624 71.9318 28.9961 71.6306 28.4369C71.3293 27.8776 70.8492 27.4127 70.2521 27.1021C69.655 26.7916 68.9685 26.6496 68.2811 26.6946C67.5937 26.7396 66.937 26.9695 66.3959 27.3545C65.8548 27.7396 65.454 28.2622 65.2454 28.8548C65.0368 29.4474 65.0299 30.0828 65.2257 30.6789C65.4214 31.2751 65.8108 31.8046 66.3435 32.1992C66.8762 32.5937 67.5277 32.8351 68.214 32.8921C71.484 33.8634 70.2146 36.7336 70.2146 36.7336L61.0073 43.2569L42.2954 21.8244L51.4143 15.3011C54.9976 14.5256 55.086 17.9539 55.086 17.9539C55.0007 18.4622 55.0567 18.9816 55.2491 19.4655C55.4415 19.9494 55.7641 20.3825 56.188 20.7261C56.6119 21.0696 57.1238 21.3127 57.6777 21.4335C58.2315 21.5544 58.81 21.5491 59.3611 21.4183C59.9121 21.2875 60.4185 21.0352 60.8347 20.684C61.2509 20.3329 61.5638 19.894 61.7454 19.4067C61.9269 18.9195 61.9714 18.3991 61.8749 17.8925C61.7783 17.3859 61.5436 16.9088 61.1921 16.5043C60.899 16.1719 60.5343 15.8965 60.1201 15.6947C59.7058 15.4929 59.2506 15.3689 58.7818 15.3301C55.544 14.3661 56.8134 11.4669 56.8134 11.4669L66.1091 4.84939L73.3399 13.1629C73.3399 13.1629 76.5536 14.3081 77.5981 11.3581C77.6671 10.7404 77.9394 10.1554 78.3801 9.67857C78.8208 9.2017 79.4097 8.85477 80.0709 8.68246C80.732 8.51015 81.4352 8.52034 82.0899 8.71173C82.7446 8.90312 83.3208 9.26693 83.7443 9.75633V9.75633Z" fill="url(#paint3_linear)"/>
<path d="M53.3185 28.6593C55.2869 30.1089 57.3357 31.6672 59.746 32.0441C60.2097 32.1378 60.6895 32.147 61.1572 32.071C61.625 31.9951 62.0711 31.8356 62.4696 31.602C62.6071 31.5282 62.719 31.4213 62.7929 31.2932C62.8667 31.1652 62.8994 31.0211 62.8874 30.8772C62.799 30.522 62.3169 30.3988 61.9233 30.3336C60.082 30.1064 58.3139 29.5336 56.7331 28.652C56.1468 28.2777 55.591 27.8659 55.07 27.4199L51.1573 24.2742C51.1095 24.2218 51.0494 24.1796 50.9813 24.1508C50.9132 24.1219 50.8388 24.1071 50.7636 24.1075C50.6029 24.1075 50.5065 24.2742 50.4342 24.4047C50.1916 24.8499 50.0082 25.3194 49.8879 25.8035C49.7674 26.3326 49.8879 26.4051 50.394 26.7095C51.4064 27.328 52.3812 27.978 53.3185 28.6593Z" fill="url(#paint4_linear)"/>
<path d="M55.1342 26.0065C56.4956 27.0811 58.1673 27.7849 59.9547 28.0359C60.4865 28.0424 61.0103 28.1538 61.4893 28.3621C61.1599 28.5868 60.8064 28.9709 61.0554 29.2681C61.1354 29.3508 61.2378 29.4133 61.3527 29.4493C61.7531 29.6035 62.1874 29.6729 62.6221 29.6523C62.8373 29.6227 63.057 29.6376 63.2649 29.6957C63.3488 29.7399 63.4223 29.7986 63.4811 29.8685C63.5399 29.9383 63.5828 30.0179 63.6074 30.1028C63.632 30.1876 63.6379 30.276 63.6246 30.3628C63.6113 30.4497 63.5792 30.5334 63.53 30.609C63.3202 30.9161 62.9858 31.1371 62.598 31.2251C61.967 31.4046 61.2942 31.428 60.6498 31.2929C60.0053 31.1577 59.4129 30.869 58.9344 30.4568C58.6532 30.2104 58.4202 29.9277 58.131 29.6885C57.5782 29.2582 56.9617 28.8996 56.2991 28.623C54.3937 27.7097 52.5674 26.6678 50.8358 25.5064C50.5625 25.3665 50.3234 25.1781 50.1328 24.9526C49.9423 24.7272 49.8043 24.4693 49.7271 24.1945C49.6146 23.2087 50.8117 21.9258 51.7919 22.8101C52.9328 23.8538 53.8567 25.0497 55.1342 26.0065Z" fill="#FCBDBA"/>
<path d="M32.5739 30.2394C32.7178 30.3949 32.8992 30.5189 33.1041 30.6018C33.9126 31.0178 34.753 31.3811 35.6189 31.689C37.8689 32.4156 40.3319 32.3976 42.5685 31.6382C43.4635 31.3476 44.3035 30.9345 45.0592 30.4133C45.3459 30.2371 45.587 30.0072 45.7662 29.7392C45.9794 29.3022 46.0464 28.8185 45.959 28.3476C45.7582 25.905 45.4609 23.3827 45.959 21.0126C46.1191 20.1984 46.3889 19.4049 46.7624 18.6497C47.413 17.6192 47.9512 16.5341 48.3693 15.4098C48.5126 14.7189 48.4869 14.008 48.294 13.327C48.1011 12.6459 47.7457 12.0111 47.2525 11.4669C46.2081 10.2637 44.2959 9.19823 42.6087 9.74183C40.6598 10.4043 38.9696 11.5687 37.748 13.0904C36.4159 14.7945 35.3608 16.6617 34.6146 18.6352C34.2932 19.4107 33.9799 20.1863 33.7308 20.9836C33.1989 22.9122 32.8548 24.8791 32.7024 26.8618C32.6141 27.688 32.5337 28.5143 32.4373 29.3406C32.3615 29.6453 32.4099 29.9644 32.5739 30.2394V30.2394Z" fill="#FCA311"/>
<path d="M42.5687 31.6382C43.4636 31.3476 44.3036 30.9344 45.0593 30.4133C45.346 30.2371 45.5871 30.0072 45.7663 29.7392C45.9795 29.3022 46.0466 28.8185 45.9591 28.3476C45.7583 25.905 45.461 23.3827 45.9591 21.0126C45.6378 20.7226 45.2762 20.4617 44.9227 20.2008C44.1193 19.6064 42.9623 18.4323 41.7974 18.512C42.0786 19.6209 42.3035 20.7516 42.4723 21.8823C42.641 23.013 42.5767 24.1872 42.7775 25.3034C43.044 27.2784 42.9926 29.2778 42.6249 31.2396C42.5907 31.3703 42.5718 31.5039 42.5687 31.6382V31.6382Z" fill="url(#paint5_linear)"/>
<path d="M52.3462 22.2012C52.409 22.2301 52.4648 22.27 52.5103 22.3185C52.5558 22.367 52.5902 22.4233 52.6113 22.4839C52.6137 22.6044 52.5648 22.7211 52.4748 22.8101C51.7447 23.7395 50.8292 24.5383 49.7752 25.1657C49.6735 25.2386 49.5509 25.2839 49.4217 25.2962C49.2735 25.2819 49.1349 25.2232 49.028 25.1295C47.4212 24.0205 45.8143 22.955 44.2476 21.7954C43.2345 21.1468 42.3399 20.3593 41.5963 19.4615C41.05 18.6511 40.6334 17.7751 40.359 16.8594C39.403 14.1414 42.2953 12.96 44.2316 14.9532C46.7865 17.5915 49.1164 20.1645 52.3462 22.2012Z" fill="#FCA311"/>
<path d="M51.9524 60.8334C51.9105 60.7434 51.8959 60.645 51.91 60.5482C51.9241 60.4514 51.9665 60.3597 52.0328 60.2826C52.2095 60.1304 52.4988 60.2029 52.7237 60.2826C53.2205 60.4999 53.7399 60.6723 54.2744 60.7972C54.8126 60.925 55.3841 60.8708 55.8812 60.645C56.1544 60.5 56.4195 60.2826 56.7329 60.3043C56.8906 60.3256 57.0414 60.3775 57.1747 60.4565C57.6572 60.6821 58.1745 60.841 58.7093 60.9277C58.9343 60.9449 59.1516 61.0095 59.344 61.1161C59.4022 61.153 59.4447 61.2067 59.4645 61.2683C59.4645 61.4133 59.3119 61.522 59.1592 61.5727C57.4881 62.1598 55.6161 61.9424 53.8325 61.7684C53.6326 61.743 53.4298 61.743 53.2299 61.7684C52.9326 61.8192 52.5711 61.9569 52.322 61.7684C52.1088 61.492 51.9812 61.1692 51.9524 60.8334Z" fill="#473F47"/>
<path d="M36.0849 64.9648C36.0587 64.871 36.059 64.7728 36.0856 64.6792C36.1123 64.5855 36.1645 64.4993 36.2375 64.4285C36.4384 64.298 36.7115 64.4285 36.9285 64.5082C37.3953 64.7761 37.8873 65.0065 38.3987 65.1968C38.917 65.3706 39.4873 65.3706 40.0056 65.1968C40.2948 65.0881 40.5841 64.8996 40.8974 64.9576C41.0494 64.9978 41.1913 65.0642 41.3152 65.1533C41.7576 65.4456 42.2484 65.6731 42.7694 65.8274C42.9931 65.8691 43.2025 65.9586 43.38 66.0883C43.406 66.108 43.4273 66.1324 43.4425 66.1598C43.4577 66.1872 43.4665 66.2171 43.4684 66.2478C43.4684 66.3927 43.2916 66.4797 43.1309 66.5159C41.3875 66.9146 39.5637 66.5159 37.8203 66.1173C37.6244 66.066 37.4216 66.0392 37.2177 66.0376C36.9204 66.0376 36.5428 66.1535 36.3179 65.9071C36.1551 65.6152 36.0751 65.2915 36.0849 64.9648Z" fill="#473F47"/>
<path d="M50.9645 7.32823C50.8279 7.72687 50.6913 8.12551 50.5788 8.5314C50.4513 9.13678 50.2741 9.73277 50.0486 10.3144C49.9341 10.6045 49.7512 10.8688 49.5127 11.089C49.2741 11.3092 48.9855 11.4802 48.6667 11.5901C48.3415 11.6838 47.9888 11.6608 47.682 11.5258C47.3752 11.3907 47.1379 11.1542 47.0196 10.8653C46.634 10.945 46.4974 11.3727 46.5054 11.7351C46.57 12.0896 46.4962 12.4534 46.2965 12.7643C45.935 13.1484 45.228 12.989 44.754 12.7135C44.0363 12.2773 43.4784 11.6587 43.1509 10.9361C42.8233 10.2135 42.7409 9.4195 42.9141 8.65463C43.3078 7.03831 43.2917 5.10307 44.3121 3.7042C44.6787 3.23214 45.1457 2.83055 45.6859 2.52276C46.1594 2.21005 46.7115 2.00831 47.2928 1.93567C47.6997 1.91413 48.1079 1.94341 48.506 2.02264C50.2092 2.28358 51.6554 2.50826 51.6635 4.26954C51.6112 5.31603 51.3752 6.34841 50.9645 7.32823Z" fill="#FCBDBA"/>
<path d="M48.8673 4.47974C48.6021 4.47974 48.2968 4.42176 48.0638 4.56672C47.8308 4.71168 47.8148 5.03784 47.6702 5.29152C47.389 5.76265 46.6739 5.82788 46.1356 6.07431C45.8095 6.23172 45.538 6.46728 45.3509 6.75504C45.1637 7.04279 45.0683 7.37156 45.0751 7.70512C45.0854 7.49171 45.0268 7.28019 44.9064 7.09629C44.8742 7.05271 44.8326 7.01552 44.784 6.98699C44.7353 6.95845 44.6808 6.93918 44.6236 6.93036C44.5664 6.92154 44.5078 6.92335 44.4515 6.93568C44.3951 6.94801 44.3421 6.9706 44.2957 7.00206C44.2233 7.07953 44.181 7.17627 44.1752 7.27749C44.1534 7.48448 44.1906 7.69306 44.2835 7.88338C44.3763 8.07369 44.5216 8.2394 44.7055 8.3647C44.5387 8.6755 44.2768 8.93682 43.9509 9.11788C43.6249 9.29894 43.2484 9.39219 42.8656 9.38667C42.6238 9.39188 42.3877 9.32002 42.1988 9.18373C42.08 9.07347 41.9918 8.93932 41.9417 8.79233C41.4838 7.63264 42.1827 6.39322 42.3515 5.1683C42.3675 4.73577 42.4458 4.30696 42.5845 3.89265C42.7334 3.59998 42.9373 3.3327 43.187 3.10261C43.937 2.2901 44.9297 1.68886 46.0472 1.37032C47.1238 1.10214 49.2609 1.23985 50.1045 2.00815C50.296 2.228 50.4169 2.49099 50.4543 2.76852C50.4916 3.04605 50.4439 3.32751 50.3164 3.5823C50.1888 3.83709 49.9863 4.05547 49.7308 4.21369C49.4753 4.37192 49.1767 4.46393 48.8673 4.47974V4.47974Z" fill="#FF681C"/>
<path d="M48.3936 114.513V100.951C50.37 97.081 54.2666 99.7193 54.2666 99.7193C54.8749 100.294 55.6603 100.692 56.5214 100.861C57.3825 101.03 58.2799 100.962 59.0979 100.666C59.9159 100.371 60.617 99.8607 61.1108 99.2023C61.6047 98.544 61.8686 97.7672 61.8686 96.9723C61.8686 96.1773 61.6047 95.4006 61.1108 94.7422C60.617 94.0838 59.9159 93.574 59.0979 93.2784C58.2799 92.9828 57.3825 92.915 56.5214 93.0838C55.6603 93.2526 54.8749 93.6501 54.2666 94.2253C50.5869 96.3997 48.3936 92.9931 48.3936 92.9931V79.4247H63.4257C63.4257 79.4247 67.234 77.446 64.7916 74.1264C64.154 73.5776 63.7133 72.8691 63.5263 72.0923C63.3392 71.3155 63.4143 70.5059 63.742 69.7679C64.0696 69.03 64.6348 68.3975 65.3646 67.952C66.0944 67.5064 66.9554 67.2683 67.8365 67.2683C68.7177 67.2683 69.5787 67.5064 70.3085 67.952C71.0383 68.3975 71.6035 69.03 71.9311 69.7679C72.2588 70.5059 72.3339 71.3155 72.1468 72.0923C71.9598 72.8691 71.5191 73.5776 70.8815 74.1264C70.8815 74.1264 67.9571 77.6417 72.2474 79.4247H87.2795V114.513H48.3936Z" fill="url(#paint6_linear)"/>
<path d="M19.5906 113.788H16.875L44.6737 47.5695C44.7672 47.3557 44.9298 47.1723 45.1405 47.043C45.3511 46.9137 45.6 46.8446 45.8547 46.8447V46.8447C46.0604 46.8444 46.263 46.8892 46.4453 46.9752C46.6275 47.0612 46.7838 47.1859 46.9008 47.3385C47.0178 47.4911 47.092 47.667 47.1169 47.8512C47.1418 48.0354 47.1167 48.2223 47.0438 48.3958L19.5906 113.788Z" fill="#FCA311"/>
<path d="M35.8758 113.788H33.1602L61.2641 46.8302H63.9797L35.8758 113.788Z" fill="#FCA311"/>
<path d="M56.8775 57.2891H42.5122L43.2353 55.5641H57.6006L56.8775 57.2891Z" fill="#FCA311"/>
<path d="M52.4586 67.8061H38.0933L38.8244 66.081H53.1897L52.4586 67.8061Z" fill="#FCA311"/>
<path d="M48.0479 78.323H33.6826L34.4057 76.5907H48.771L48.0479 78.323Z" fill="#FCA311"/>
<path d="M43.6373 88.8327H29.272L29.9951 87.1077H44.3604L43.6373 88.8327Z" fill="#FCA311"/>
<path d="M39.2184 99.3496H24.853L25.5841 97.6246H39.9414L39.2184 99.3496Z" fill="#FCA311"/>
<path d="M43.3078 57.2891L39.6121 66.081H53.2141L52.491 67.8061H38.9131L35.2253 76.5907H48.7953L48.0722 78.3158H34.4781L30.7904 87.1077H44.3764L43.6533 88.8327H30.0673L26.3715 97.6246H39.9495L39.2184 99.3496H25.6485L19.5906 113.788H16.875L44.6737 47.5695C44.7944 47.3423 44.9948 47.1573 45.2439 47.0433C45.4929 46.9292 45.7768 46.8925 46.0513 46.9387C46.3259 46.9849 46.5759 47.1116 46.7626 47.299C46.9493 47.4864 47.0622 47.7242 47.084 47.9754C47.0839 48.1139 47.0567 48.2513 47.0036 48.3813L43.9908 55.5641H57.5607L56.8376 57.2891H43.3078Z" fill="url(#paint7_linear)"/>
<path d="M35.8758 113.788H33.1602L61.2641 46.8302H63.9797L35.8758 113.788Z" fill="url(#paint8_linear)"/>
<path d="M170.603 56.5353C170.202 56.8416 169.721 57.0511 169.205 57.1442C168.732 57.1621 168.26 57.0853 167.823 56.9195L161.139 54.9118C160.634 55.2667 160.296 55.7811 160.195 56.3514C160.094 56.9216 160.236 57.5053 160.592 57.9849C161.248 58.6325 162.1 59.0914 163.043 59.3041L167.63 60.7899C168.689 61.2362 169.845 61.4644 171.013 61.4582C172.182 61.4519 173.334 61.2113 174.387 60.7537C175.753 60.3406 177.255 59.8259 177.914 58.6662C178.573 57.5066 178.091 55.97 178.284 54.6146C178.537 53.7537 178.717 52.8765 178.822 51.9908C178.822 51.2297 178.131 50.0845 177.127 50.244C176.259 50.3817 175.681 51.7444 175.223 52.3169C173.932 53.9284 172.374 55.3511 170.603 56.5353V56.5353Z" fill="white"/>
<path d="M160.303 54.5711C160.233 54.408 160.126 54.2599 159.99 54.1362C159.922 54.0741 159.836 54.0314 159.741 54.0133C159.647 53.9953 159.549 54.0027 159.459 54.0347C159.372 54.0834 159.301 54.1535 159.255 54.2368C159.21 54.3202 159.192 54.4135 159.202 54.5059C159.209 54.5386 159.208 54.5722 159.199 54.6045C159.191 54.6369 159.176 54.6675 159.154 54.6943C159.106 54.7378 159.017 54.6943 158.945 54.6943C158.19 54.5639 157.419 54.4624 156.647 54.3899C156.565 54.375 156.479 54.3806 156.399 54.4061C156.32 54.4317 156.25 54.4762 156.196 54.535C156.142 54.5938 156.107 54.6646 156.095 54.7399C156.082 54.8152 156.093 54.8921 156.125 54.9625C156.209 55.1933 156.337 55.4092 156.503 55.6003C156.896 56.1802 157.041 56.9412 157.668 57.3181C158.051 57.5202 158.496 57.6042 158.937 57.5573C159.379 57.5573 159.813 57.4631 160.255 57.4848C160.547 57.5412 160.851 57.5107 161.122 57.3978C161.224 57.3295 161.304 57.2392 161.356 57.1353C161.408 57.0313 161.43 56.9172 161.42 56.8035C161.373 56.4455 161.233 56.1026 161.01 55.8033C160.761 55.4119 160.528 54.9915 160.303 54.5711Z" fill="#FDB9A9"/>
<path d="M178.943 99.9657C176.388 99.4439 176.886 102.713 176.211 103.93C175.784 104.556 175.24 105.11 174.604 105.568C173.978 106.039 173.568 106.703 173.455 107.431C173.44 107.567 173.471 107.703 173.544 107.823C173.674 107.966 173.856 108.064 174.058 108.098C175.519 108.483 177.088 108.343 178.437 107.707C179.068 107.438 179.593 107 179.939 106.453C180.219 105.863 180.351 105.224 180.325 104.583C180.405 103.22 181.08 100.393 178.943 99.9657Z" fill="#FDB9A9"/>
<path d="M176.677 106.706C176.677 106.706 169.398 106.989 172.483 109.048C175.568 111.106 180.172 108.547 180.622 108.076C181.071 107.605 180.702 106.801 180.702 106.801L176.677 106.706Z" fill="#FCA311"/>
<path d="M180.3 107.612C179.657 108.337 176.235 109.287 174.716 109.185C173.198 109.084 171.84 108.46 171.993 107.569C172.145 106.677 174.813 104.626 175.319 104.633C175.825 104.641 176.219 105.692 177.231 105.909C177.683 105.977 178.147 105.939 178.579 105.8C179.011 105.66 179.396 105.423 179.698 105.112C179.788 105.003 179.916 104.924 180.062 104.889C180.208 104.854 180.362 104.863 180.501 104.916C180.713 105.347 180.805 105.817 180.77 106.287C180.735 106.756 180.574 107.212 180.3 107.612Z" fill="white"/>
<path d="M187.724 101.256C185.169 100.72 185.667 103.996 184.992 105.206C184.565 105.834 184.022 106.39 183.385 106.851C182.76 107.319 182.35 107.981 182.236 108.707C182.223 108.845 182.254 108.983 182.325 109.106C182.457 109.247 182.638 109.344 182.839 109.381C184.3 109.763 185.868 109.623 187.218 108.99C187.848 108.716 188.372 108.276 188.72 107.728C188.999 107.141 189.131 106.505 189.106 105.866C189.186 104.489 189.861 101.669 187.724 101.256Z" fill="#FDB9A9"/>
<path d="M185.458 107.968C185.458 107.968 178.179 108.243 181.264 110.316C184.35 112.389 188.953 109.809 189.403 109.337C189.853 108.866 189.484 108.062 189.484 108.062L185.458 107.968Z" fill="#FCA311"/>
<path d="M189.082 108.859C188.439 109.584 185.017 110.541 183.498 110.439C181.98 110.338 180.622 109.714 180.774 108.823C180.927 107.931 183.594 105.88 184.101 105.924C184.607 105.967 185.001 106.982 186.013 107.192C186.465 107.261 186.928 107.225 187.36 107.087C187.792 106.948 188.177 106.713 188.479 106.402C188.569 106.292 188.697 106.213 188.843 106.177C188.989 106.142 189.144 106.152 189.283 106.206C189.486 106.631 189.574 107.093 189.539 107.555C189.504 108.016 189.348 108.463 189.082 108.859Z" fill="white"/>
<path d="M181.128 71.4446L184.551 103.945L189.484 103.394C191.436 95.4647 190.954 71.7418 190.954 71.7418L181.128 71.4446Z" fill="#473F47"/>
<path d="M184.55 70.5676L181.128 103.061L176.179 102.51C173.359 81.9543 175.688 69.1687 175.688 69.1687L184.55 70.5676Z" fill="#473F47"/>
<path d="M176.139 58.8185C176.074 58.2241 175.898 57.6298 175.833 57.021C175.673 55.7963 175.697 54.5577 175.906 53.3389C176.138 52.0386 176.574 50.7746 177.199 49.5844C177.762 48.5552 178.806 48.1348 179.947 47.5985C180.918 47.1278 181.968 46.8069 183.056 46.649C183.822 46.5859 184.593 46.6249 185.346 46.7649C187.676 47.1636 190.737 48.2146 192.328 49.9034C193.525 51.1428 193.662 52.9258 193.702 54.5711C193.75 56.8398 193.702 59.1084 193.541 61.377C193.541 61.7032 193.501 62.0294 193.469 62.3628C193.339 64.8866 192.916 67.3913 192.207 69.8355C192.074 70.5992 191.616 71.2859 190.93 71.749C189.106 72.7058 186.326 72.1767 184.358 71.9302C181.747 71.5968 179.071 71.2489 176.757 70.1037C176.277 69.9178 175.889 69.5802 175.665 69.1542C175.549 68.6177 175.625 68.0621 175.882 67.5669C176.685 65.2475 176.058 62.8049 176.058 60.4348C176.058 60.0072 176.115 59.5723 176.115 59.1374C176.139 59.0359 176.139 58.9272 176.139 58.8185Z" fill="white"/>
<path d="M184.334 63.0151C184.953 63.3627 185.636 63.6081 186.35 63.7399C188.479 64.298 190.665 64.5952 192.778 65.1895C192.921 65.2147 193.055 65.2749 193.163 65.3635C193.25 65.4837 193.289 65.6265 193.276 65.7694C193.286 66.3276 193.194 66.8835 193.003 67.4147C192.941 67.6799 192.772 67.9149 192.529 68.0742C192.22 68.1756 191.881 68.1756 191.573 68.0742L183.611 66.5522C183.041 66.4209 182.455 66.3575 181.867 66.3637C181.171 66.4368 180.488 66.5903 179.835 66.8203C178.613 67.1731 177.357 67.4159 176.083 67.5451C176.15 66.174 176.336 64.8098 176.637 63.4645C176.754 63.0668 176.921 62.6825 177.135 62.3193C177.392 61.9605 177.694 61.6298 178.035 61.3335C179.32 60.1231 180.212 58.6083 181.514 57.3978C182.197 56.76 183.048 56.3541 183.651 55.6728C183.892 55.3974 185.981 53.0273 185.78 52.7736C186.182 53.223 187.178 52.7736 187.539 53.2375C187.764 53.5274 187.539 53.9188 187.331 54.2159C185.791 56.5415 184.717 59.0929 184.157 61.7539C183.996 62.37 183.755 62.5875 184.334 63.0151Z" fill="url(#paint9_linear)"/>
<path d="M177.842 33.2618C178.58 33.6899 179.161 34.3072 179.508 35.0346C179.856 35.762 179.955 36.5663 179.792 37.3448C179.63 38.1232 179.214 38.8402 178.598 39.4041C177.981 39.9679 177.192 40.353 176.331 40.5099C176.331 40.5099 171.768 42.0609 174.331 45.6415L187.009 52.9258L178.975 64.3632C175.006 66.6754 173.286 62.5585 173.286 62.5585C173.114 61.7812 172.687 61.0684 172.061 60.5117C171.436 59.9549 170.64 59.5798 169.776 59.4345C168.912 59.2893 168.02 59.3805 167.214 59.6965C166.408 60.0126 165.726 60.5389 165.254 61.2078C164.783 61.8767 164.544 62.6576 164.568 63.45C164.593 64.2424 164.88 65.0101 165.392 65.6543C165.904 66.2984 166.618 66.7896 167.442 67.0646C168.266 67.3395 169.163 67.3857 170.016 67.1972C174.435 67.1175 174.242 71.0822 174.242 71.0822L166.208 82.5196L133.396 63.6747L141.39 52.3387C145.359 50.0338 147.078 54.1435 147.078 54.1435C147.249 54.9236 147.674 55.6399 148.3 56.1999C148.925 56.7599 149.723 57.1379 150.589 57.2853C151.455 57.4326 152.35 57.3425 153.159 57.0266C153.968 56.7106 154.653 56.1833 155.126 55.5127C155.6 54.8421 155.84 54.0588 155.815 53.264C155.791 52.4692 155.503 51.6993 154.989 51.0535C154.474 50.4077 153.757 49.9157 152.93 49.641C152.103 49.3662 151.204 49.3213 150.348 49.512C145.929 49.5917 146.13 45.627 146.13 45.627L154.277 34.0736L166.963 41.3651C166.963 41.3651 171.358 41.5391 171.27 37.5527C171.129 37.0291 171.107 36.4854 171.203 35.9538C171.3 35.4222 171.514 34.9135 171.832 34.4577C172.465 33.5927 173.446 32.9841 174.568 32.7608C175.69 32.5376 176.864 32.7173 177.842 33.2618Z" fill="#FCA311"/>
<path d="M197.406 56.6948C197.735 57.2121 198.004 57.7586 198.209 58.3256C198.469 59.3195 198.496 60.3513 198.289 61.3553C198.192 62.3395 197.801 63.2814 197.156 64.0806C195.799 65.5302 193.372 65.6679 191.267 65.4867C188.878 65.2877 186.519 64.8601 184.229 64.211C184.016 64.1678 183.816 64.0838 183.643 63.9646C183.457 63.7752 183.33 63.5453 183.273 63.2978C183.098 62.697 182.982 62.0833 182.928 61.464C185.338 60.8407 188.005 61.348 190.52 61.0146C190.692 61.014 190.86 60.9764 191.012 60.9051C191.164 60.8338 191.295 60.7307 191.394 60.6045C191.493 60.4784 191.558 60.3327 191.582 60.1796C191.606 60.0265 191.589 59.8705 191.532 59.7245C191.412 58.4488 190.536 57.3326 190.126 56.1004C189.725 54.9146 189.759 53.6435 190.223 52.4764C190.361 52.0651 190.596 51.6856 190.913 51.3641C191.229 51.0425 191.618 50.7865 192.055 50.6137C193.059 50.3165 193.445 51.0268 193.999 51.6936C195.275 53.2793 196.414 54.9513 197.406 56.6948V56.6948Z" fill="white"/>
<path d="M181.923 60.6522C181.829 60.5827 181.715 60.5376 181.594 60.5218C181.501 60.5304 181.413 60.5612 181.338 60.6109C181.263 60.6606 181.205 60.7274 181.168 60.8045C181.097 60.9607 181.017 61.1131 180.927 61.2611C180.806 61.382 180.657 61.4767 180.49 61.5382C180.323 61.5997 180.143 61.6264 179.963 61.6162C179.602 61.5836 179.239 61.5836 178.878 61.6162C178.745 61.6409 178.62 61.6957 178.517 61.7757C178.418 61.863 178.348 61.9735 178.316 62.0946C178.255 62.3408 178.262 62.5969 178.338 62.8398C178.414 63.0828 178.555 63.3049 178.75 63.4862C179.142 63.845 179.624 64.1135 180.156 64.269C180.698 64.485 181.299 64.5506 181.883 64.4575C182.203 64.3734 182.509 64.249 182.791 64.0878L183.964 63.5007C184.062 63.4589 184.149 63.3998 184.221 63.3268C184.478 63.0368 184.125 62.1671 183.892 61.8772C183.305 61.3844 182.642 60.9717 181.923 60.6522V60.6522Z" fill="#FDB9A9"/>
<path d="M181.136 43.3583C181.136 42.735 181.192 42.1044 181.265 41.4956C181.337 40.8868 181.425 40.4084 181.538 39.872C181.545 39.7133 181.591 39.5579 181.671 39.4165C181.752 39.2751 181.865 39.1511 182.004 39.053C182.932 38.5527 184 38.3013 185.081 38.3282C185.49 38.3022 185.9 38.3532 186.286 38.478C186.672 38.6028 187.025 38.7986 187.323 39.053C187.685 39.4692 187.901 39.9743 187.941 40.5026C187.979 41.8744 187.828 43.2451 187.491 44.5833C187.321 45.6341 187.26 46.6968 187.307 47.7579C186.737 48.0994 186.083 48.3086 185.402 48.3668C185.086 48.364 184.771 48.3176 184.47 48.229C184.303 48.1948 184.155 48.1074 184.053 47.9826C184.017 47.8665 184.017 47.7436 184.053 47.6275C184.061 47.5164 184.061 47.4051 184.053 47.294C184.1 46.6733 184.086 46.05 184.012 45.4313C184.014 45.4044 184.009 45.3775 183.998 45.3525C183.987 45.3275 183.97 45.3049 183.948 45.2863C183.904 45.2719 183.856 45.2719 183.812 45.2863H183.619C183.277 45.319 182.932 45.319 182.59 45.2863C182.179 45.25 181.796 45.08 181.514 44.808C181.187 44.386 181.052 43.8673 181.136 43.3583V43.3583Z" fill="#FDB9A9"/>
<path d="M182.566 39.3864C182.325 39.3864 182.108 39.5024 181.899 39.3864C181.681 39.223 181.489 39.0327 181.329 38.8211C180.945 38.3617 180.757 37.7933 180.799 37.2192C180.814 36.9595 180.908 36.7086 181.072 36.4944C181.25 36.2996 181.479 36.1477 181.739 36.0523C182.237 35.8309 182.792 35.7334 183.346 35.7696C184.148 35.8638 184.897 36.1862 185.483 36.6901C185.606 36.8063 185.757 36.8955 185.925 36.9511C186.078 36.9802 186.237 36.9802 186.391 36.9511C187.407 36.8739 188.418 37.1543 189.211 37.7338C189.661 38.089 190.014 38.5456 190.48 38.8573C190.946 39.169 191.404 39.2849 191.645 39.6836C191.746 39.8688 191.786 40.076 191.762 40.2812C191.738 40.4864 191.65 40.6812 191.508 40.8433C191.209 41.1611 190.798 41.3761 190.343 41.4521C190.393 41.57 190.417 41.6957 190.412 41.8219C190.408 41.9481 190.375 42.0721 190.317 42.1869C190.259 42.3016 190.175 42.4047 190.072 42.4901C189.969 42.5755 189.848 42.6415 189.717 42.6843C189.531 42.7098 189.352 42.7637 189.187 42.8437C189.074 42.9235 189.026 43.0467 188.913 43.1264C188.648 43.3221 188.303 43.3873 188.19 43.7207C188.157 43.8612 188.143 44.0049 188.15 44.1484C188.131 44.361 188.035 44.5621 187.877 44.721C187.772 44.8225 187.588 45.0761 187.435 45.1051C187.282 45.1341 187.146 44.9674 187.098 44.8225C186.909 44.2078 186.957 43.5537 187.234 42.967C187.433 42.6836 187.549 42.3594 187.572 42.0247C187.572 41.6913 187.041 41.4304 186.768 41.6261C186.495 41.8218 186.479 42.2929 186.19 42.1987C186.369 41.7302 186.356 41.2191 186.152 40.7587C185.949 40.2983 185.569 39.9193 185.081 39.6908C184.54 39.5415 183.976 39.4705 183.41 39.4806C183.146 39.4304 182.876 39.4037 182.606 39.4009L182.566 39.3864Z" fill="#473F47"/>
<path d="M183.619 45.3008C184.416 45.1638 185.197 44.955 185.949 44.6775C186.016 45.2487 185.864 45.8235 185.517 46.3053C185.17 46.7871 184.65 47.1465 184.044 47.323V47.323C184.105 46.7033 184.105 46.08 184.044 45.4603C184.044 45.4064 184.021 45.3548 183.98 45.3153C183.936 45.3009 183.888 45.3009 183.844 45.3153H183.659L183.619 45.3008Z" fill="#DE9F93"/>
<path d="M158.463 50.5122C158.585 50.6697 158.664 50.8509 158.693 51.0412C158.722 51.2314 158.701 51.4251 158.632 51.6066C158.492 51.9696 158.289 52.3098 158.029 52.6141L156.768 54.2957C156.438 54.7306 155.964 55.2234 155.41 55.1799C154.028 55.093 153.418 51.8603 153.932 50.9036C154.526 49.7077 157.555 49.4902 158.463 50.5122Z" fill="#FDB9A9"/>
<path d="M164.971 79.4247V114.513H126.085V100.944C126.085 100.944 128.278 97.5086 131.958 99.712C132.566 100.287 133.352 100.685 134.213 100.854C135.074 101.022 135.971 100.954 136.789 100.659C137.607 100.363 138.308 99.8535 138.802 99.1951C139.296 98.5367 139.56 97.76 139.56 96.965C139.56 96.1701 139.296 95.3934 138.802 94.735C138.308 94.0766 137.607 93.5667 136.789 93.2711C135.971 92.9756 135.074 92.9078 134.213 93.0765C133.352 93.2453 132.566 93.6429 131.958 94.218C131.958 94.218 128.061 96.8563 126.085 92.9858V79.4247H141.117C145.407 77.6417 142.483 74.1264 142.483 74.1264C141.845 73.5776 141.405 72.8691 141.218 72.0923C141.031 71.3155 141.106 70.5059 141.433 69.7679C141.761 69.03 142.326 68.3975 143.056 67.952C143.786 67.5064 144.647 67.2683 145.528 67.2683C146.409 67.2683 147.27 67.5064 148 67.952C148.73 68.3975 149.295 69.03 149.623 69.7679C149.95 70.5059 150.025 71.3155 149.838 72.0923C149.651 72.8691 149.21 73.5776 148.573 74.1264C146.163 77.446 149.939 79.4247 149.939 79.4247H164.971Z" fill="#FCA311"/>
<path d="M164.971 79.4247V114.513H126.085V100.944C126.085 100.944 128.278 97.5086 131.958 99.712C132.566 100.287 133.352 100.685 134.213 100.854C135.074 101.022 135.971 100.954 136.789 100.659C137.607 100.363 138.308 99.8535 138.802 99.1951C139.296 98.5367 139.56 97.76 139.56 96.965C139.56 96.1701 139.296 95.3934 138.802 94.735C138.308 94.0766 137.607 93.5667 136.789 93.2711C135.971 92.9756 135.074 92.9078 134.213 93.0765C133.352 93.2453 132.566 93.6429 131.958 94.218C131.958 94.218 128.061 96.8563 126.085 92.9858V79.4247H141.117C145.407 77.6417 142.483 74.1264 142.483 74.1264C141.845 73.5776 141.405 72.8691 141.218 72.0923C141.031 71.3155 141.106 70.5059 141.433 69.7679C141.761 69.03 142.326 68.3975 143.056 67.952C143.786 67.5064 144.647 67.2683 145.528 67.2683C146.409 67.2683 147.27 67.5064 148 67.952C148.73 68.3975 149.295 69.03 149.623 69.7679C149.95 70.5059 150.025 71.3155 149.838 72.0923C149.651 72.8691 149.21 73.5776 148.573 74.1264C146.163 77.446 149.939 79.4247 149.939 79.4247H164.971Z" fill="url(#paint10_linear)"/>
<path d="M100.68 61.8771C100.678 62.6717 100.412 63.4474 99.9171 64.1048C99.4223 64.7621 98.721 65.271 97.9033 65.5663C97.0856 65.8615 96.1887 65.9296 95.3279 65.7617C94.467 65.5938 93.6814 65.1977 93.0718 64.6242C89.3921 62.4497 87.1987 65.8563 87.1987 65.8563V79.4247H126.085V44.3368H87.1987V57.898C89.1752 61.7684 93.0718 59.1301 93.0718 59.1301C93.6814 58.5566 94.467 58.1605 95.3279 57.9926C96.1887 57.8247 97.0856 57.8928 97.9033 58.188C98.721 58.4832 99.4223 58.9922 99.9171 59.6495C100.412 60.3069 100.678 61.0826 100.68 61.8771V61.8771Z" fill="#FCA311"/>
<path d="M103.597 84.7231C102.959 85.2718 102.519 85.9803 102.332 86.7572C102.145 87.534 102.22 88.3436 102.547 89.0815C102.875 89.8195 103.44 90.452 104.17 90.8975C104.9 91.343 105.761 91.5811 106.642 91.5811C107.523 91.5811 108.384 91.343 109.114 90.8975C109.844 90.452 110.409 89.8195 110.737 89.0815C111.064 88.3436 111.139 87.534 110.952 86.7572C110.765 85.9803 110.325 85.2718 109.687 84.7231C109.687 84.7231 106.763 81.2077 111.053 79.4247H102.223C102.223 79.4247 106.039 81.4034 103.597 84.7231Z" fill="#FCA311"/>
<path d="M87.1987 44.3368V57.898C89.1752 61.7684 93.0718 59.1301 93.0718 59.1301C93.6801 58.555 94.4654 58.1574 95.3265 57.9887C96.1876 57.8199 97.085 57.8877 97.903 58.1833C98.721 58.4789 99.4222 58.9887 99.916 59.6471C100.41 60.3055 100.674 61.0822 100.674 61.8771C100.674 62.6721 100.41 63.4488 99.916 64.1072C99.4222 64.7656 98.721 65.2754 97.903 65.571C97.085 65.8666 96.1876 65.9344 95.3265 65.7656C94.4654 65.5969 93.6801 65.1993 93.0718 64.6242C89.3921 62.4497 87.1987 65.8563 87.1987 65.8563V79.4247H102.223C102.223 79.4247 106.031 81.4034 103.589 84.723C102.951 85.2718 102.51 85.9803 102.323 86.7571C102.136 87.534 102.211 88.3435 102.539 89.0815C102.867 89.8194 103.432 90.452 104.162 90.8975C104.892 91.343 105.753 91.5811 106.634 91.5811C107.515 91.5811 108.376 91.343 109.106 90.8975C109.835 90.452 110.401 89.8194 110.728 89.0815C111.056 88.3435 111.131 87.534 110.944 86.7571C110.757 85.9803 110.316 85.2718 109.679 84.723C109.679 84.723 106.754 81.2077 111.045 79.4247H126.085V44.3368H87.1987Z" fill="url(#paint11_linear)"/>
<path d="M87.1987 79.4247V114.513H126.085V100.944C126.085 100.944 128.278 97.5086 131.958 99.712C132.566 100.287 133.351 100.685 134.213 100.854C135.074 101.022 135.971 100.954 136.789 100.659C137.607 100.363 138.308 99.8535 138.802 99.1951C139.296 98.5367 139.56 97.76 139.56 96.965C139.56 96.1701 139.296 95.3934 138.802 94.735C138.308 94.0766 137.607 93.5667 136.789 93.2712C135.971 92.9756 135.074 92.9078 134.213 93.0765C133.351 93.2453 132.566 93.6429 131.958 94.218C131.958 94.218 128.061 96.8563 126.085 92.9858V79.4247H111.061C106.77 81.2077 109.695 84.7231 109.695 84.7231C110.332 85.2718 110.773 85.9803 110.96 86.7572C111.147 87.534 111.072 88.3436 110.744 89.0815C110.417 89.8195 109.852 90.452 109.122 90.8975C108.392 91.343 107.531 91.5811 106.65 91.5811C105.769 91.5811 104.908 91.343 104.178 90.8975C103.448 90.452 102.883 89.8195 102.555 89.0815C102.228 88.3436 102.152 87.534 102.339 86.7572C102.527 85.9803 102.967 85.2718 103.605 84.7231C106.015 81.4034 102.239 79.4247 102.239 79.4247H87.1987Z" fill="#FCA311"/>
<path d="M48.3936 114.513V100.951C50.37 97.081 54.2666 99.7193 54.2666 99.7193C54.8749 100.294 55.6603 100.692 56.5214 100.861C57.3825 101.03 58.2799 100.962 59.0979 100.666C59.9159 100.371 60.617 99.8607 61.1108 99.2023C61.6047 98.544 61.8686 97.7672 61.8686 96.9723C61.8686 96.1773 61.6047 95.4006 61.1108 94.7422C60.617 94.0838 59.9159 93.574 59.0979 93.2784C58.2799 92.9828 57.3825 92.915 56.5214 93.0838C55.6603 93.2526 54.8749 93.6501 54.2666 94.2253C50.5869 96.3997 48.3936 92.9931 48.3936 92.9931V79.4247H63.4257C63.4257 79.4247 67.234 77.446 64.7916 74.1264C64.154 73.5776 63.7133 72.8691 63.5263 72.0923C63.3392 71.3155 63.4143 70.5059 63.742 69.7679C64.0696 69.03 64.6348 68.3975 65.3646 67.952C66.0944 67.5064 66.9554 67.2683 67.8365 67.2683C68.7177 67.2683 69.5787 67.5064 70.3085 67.952C71.0383 68.3975 71.6035 69.03 71.9311 69.7679C72.2588 70.5059 72.3339 71.3155 72.1468 72.0923C71.9598 72.8691 71.5191 73.5776 70.8815 74.1264C70.8815 74.1264 67.9571 77.6417 72.2474 79.4247H87.2795V114.513H48.3936Z" fill="#FCA311"/>
<path d="M48.3936 114.513V100.951C50.37 97.081 54.2666 99.7193 54.2666 99.7193C54.8749 100.294 55.6603 100.692 56.5214 100.861C57.3825 101.03 58.2799 100.962 59.0979 100.666C59.9159 100.371 60.617 99.8607 61.1108 99.2023C61.6047 98.544 61.8686 97.7672 61.8686 96.9723C61.8686 96.1773 61.6047 95.4006 61.1108 94.7422C60.617 94.0838 59.9159 93.574 59.0979 93.2784C58.2799 92.9828 57.3825 92.915 56.5214 93.0838C55.6603 93.2526 54.8749 93.6501 54.2666 94.2253C50.5869 96.3997 48.3936 92.9931 48.3936 92.9931V79.4247H63.4257C63.4257 79.4247 67.234 77.446 64.7916 74.1264C64.154 73.5776 63.7133 72.8691 63.5263 72.0923C63.3392 71.3155 63.4143 70.5059 63.742 69.7679C64.0696 69.03 64.6348 68.3975 65.3646 67.952C66.0944 67.5064 66.9554 67.2683 67.8365 67.2683C68.7177 67.2683 69.5787 67.5064 70.3085 67.952C71.0383 68.3975 71.6035 69.03 71.9311 69.7679C72.2588 70.5059 72.3339 71.3155 72.1468 72.0923C71.9598 72.8691 71.5191 73.5776 70.8815 74.1264C70.8815 74.1264 67.9571 77.6417 72.2474 79.4247H87.2795V114.513H48.3936Z" fill="url(#paint12_linear)"/>
<path d="M100.729 61.8844C100.726 62.679 100.461 63.4547 99.9657 64.112C99.4709 64.7693 98.7697 65.2783 97.952 65.5735C97.1343 65.8688 96.2374 65.9368 95.3765 65.7689C94.5157 65.6011 93.73 65.2049 93.1205 64.6314C93.1205 64.6314 89.2238 61.9931 87.2474 65.8636V79.4247H72.2152C67.9249 77.6417 70.8494 74.1264 70.8494 74.1264C71.4869 73.5776 71.9276 72.8691 72.1147 72.0923C72.3018 71.3154 72.2266 70.5059 71.899 69.7679C71.5713 69.03 71.0062 68.3975 70.2764 67.9519C69.5466 67.5064 68.6856 67.2683 67.8044 67.2683C66.9232 67.2683 66.0622 67.5064 65.3324 67.9519C64.6027 68.3975 64.0375 69.03 63.7098 69.7679C63.3822 70.5059 63.307 71.3154 63.4941 72.0923C63.6812 72.8691 64.1219 73.5776 64.7594 74.1264C67.1697 77.446 63.3936 79.4247 63.3936 79.4247H48.3936V44.3368H63.2811C67.5714 46.1199 64.6469 49.6352 64.6469 49.6352C64.0094 50.184 63.5687 50.8924 63.3816 51.6693C63.1946 52.4461 63.2697 53.2557 63.5974 53.9936C63.925 54.7316 64.4902 55.3641 65.22 55.8096C65.9498 56.2551 66.8107 56.4932 67.6919 56.4932C68.5731 56.4932 69.4341 56.2551 70.1639 55.8096C70.8937 55.3641 71.4588 54.7316 71.7865 53.9936C72.1142 53.2557 72.1893 52.4461 72.0022 51.6693C71.8151 50.8924 71.3744 50.184 70.7369 49.6352C68.3266 46.3156 72.1028 44.3368 72.1028 44.3368H87.2795V57.9052C87.2795 57.9052 89.4729 61.3408 93.1526 59.1374C93.7622 58.5638 94.5478 58.1677 95.4087 57.9998C96.2696 57.832 97.1664 57.9 97.9841 58.1953C98.8018 58.4905 99.5031 58.9994 99.9979 59.6568C100.493 60.3141 100.758 61.0898 100.761 61.8844H100.729Z" fill="#FCA311"/>
<path d="M110.257 129.306C110.271 130.102 110.021 130.883 109.537 131.549C109.054 132.214 108.361 132.734 107.547 133.041C106.733 133.347 105.836 133.427 104.971 133.269C104.107 133.111 103.315 132.723 102.697 132.154C102.697 132.154 98.7603 129.567 96.8482 133.459L97.0651 147.02L82.0329 147.216C77.7105 145.491 80.5787 141.939 80.5787 141.939C81.2046 141.383 81.6314 140.67 81.8043 139.892C81.9772 139.115 81.8883 138.309 81.5489 137.577C81.2096 136.846 80.6354 136.223 79.9002 135.788C79.165 135.354 78.3025 135.128 77.4237 135.139C76.5449 135.151 75.69 135.399 74.9691 135.853C74.2482 136.306 73.6943 136.944 73.3786 137.684C73.0629 138.424 72.9999 139.232 73.1978 140.005C73.3956 140.778 73.8452 141.479 74.4887 142.019C76.9874 145.302 73.2113 147.332 73.2113 147.332L58.1791 147.528L57.6167 112.44L72.5042 112.251C76.8267 113.976 73.9585 117.528 73.9585 117.528C73.3326 118.084 72.9058 118.797 72.7328 119.575C72.5599 120.352 72.6489 121.158 72.9882 121.89C73.3276 122.621 73.9018 123.244 74.637 123.679C75.3722 124.113 76.2347 124.339 77.1135 124.328C77.9923 124.316 78.8471 124.068 79.568 123.614C80.2889 123.161 80.8429 122.523 81.1586 121.783C81.4743 121.043 81.5372 120.235 81.3394 119.462C81.1415 118.69 80.6919 117.988 80.0484 117.448C77.5498 114.165 81.3259 112.135 81.3259 112.135L96.5027 111.94L96.7196 125.508C96.7196 125.508 98.9692 128.914 102.609 126.66C103.021 126.263 103.519 125.946 104.071 125.726C104.623 125.507 105.219 125.391 105.822 125.385C106.986 125.377 108.106 125.785 108.937 126.52C109.768 127.255 110.243 128.256 110.257 129.306V129.306Z" fill="#FCA311"/>
<path d="M63.0641 112.57C62.5258 113.106 62.1081 114.288 62.9597 114.788C63.2643 114.936 63.6021 115.021 63.9479 115.034L68.4953 115.535C68.3587 115.535 70.7369 139.707 71.6689 144.846C71.7814 145.455 72.0625 146.216 72.7455 146.295C72.9502 146.284 73.1492 146.23 73.3265 146.137C73.5037 146.044 73.6542 145.914 73.7658 145.759C74.4223 144.831 74.7963 143.764 74.8504 142.664C75.98 134.774 76.5169 126.824 76.4573 118.869C76.4573 117.296 76.393 115.651 75.5253 114.281C74.9924 113.535 74.2938 112.898 73.4737 112.409C72.6536 111.92 71.7299 111.59 70.761 111.439C68.1659 110.91 64.9522 110.671 63.0641 112.57Z" fill="url(#paint13_linear)"/>
<path d="M74.0067 162.741V162.835C74.1995 163.278 74.8101 163.422 75.3243 163.48C75.8098 163.529 76.2982 163.548 76.7865 163.538C77.0207 163.546 77.2546 163.517 77.4775 163.451C77.6818 163.37 77.8736 163.266 78.0479 163.14L79.4539 162.198C79.849 161.952 80.2103 161.665 80.5305 161.342C80.847 161.011 81.0134 160.584 80.9965 160.146C80.9797 159.93 80.8898 159.724 80.7389 159.556C80.588 159.387 80.3835 159.264 80.1529 159.204C79.8594 159.172 79.5626 159.172 79.2691 159.204C78.9427 159.242 78.6112 159.193 78.3146 159.065C78.0181 158.936 77.7692 158.733 77.598 158.479C77.5398 158.243 77.399 158.029 77.1963 157.87C76.9918 157.781 76.7599 157.755 76.5375 157.798C76.0497 157.82 75.5681 157.906 75.1074 158.052C74.8751 158.127 74.6644 158.248 74.4906 158.406C74.3168 158.564 74.1844 158.755 74.1031 158.965C74.0539 159.16 74.0323 159.36 74.0388 159.559C74.0669 159.972 74.0669 160.386 74.0388 160.799C73.9746 161.314 73.9425 161.832 73.9424 162.35C73.9469 162.482 73.9685 162.613 74.0067 162.741V162.741Z" fill="#262836"/>
<path d="M87.6408 162.908C86.6941 163.299 85.7198 163.633 84.7243 163.908C84.3281 164.062 83.8842 164.085 83.471 163.973C83.3089 163.903 83.1655 163.801 83.0505 163.676C82.9355 163.551 82.8515 163.405 82.8041 163.249C82.7174 162.929 82.6822 162.599 82.6997 162.27C82.7612 161.761 82.8769 161.259 83.0451 160.77C83.1335 160.313 83.2058 159.856 83.2701 159.4C83.3746 158.74 83.471 158.088 83.5593 157.436L86.0901 157.921C86.3553 157.972 86.6043 158.892 86.765 159.088C86.8827 159.232 87.0348 159.351 87.21 159.435C87.3852 159.519 87.5791 159.566 87.7774 159.574C88.2085 159.518 88.6433 159.486 89.0789 159.48C89.3597 159.539 89.6108 159.681 89.7925 159.883C89.9743 160.085 90.0766 160.336 90.0832 160.596C90.081 160.854 90.0191 161.11 89.9016 161.346C89.784 161.581 89.6133 161.793 89.4003 161.966C88.9742 162.314 88.485 162.593 87.9541 162.792L87.6408 162.908Z" fill="#262836"/>
<path d="M87.6808 160.357C87.0166 160.697 86.3266 160.995 85.616 161.248H85.5517C84.3787 161.661 83.0691 160.001 83.0691 160.001C83.0691 160.001 81.4141 150.782 81.4623 146.955C81.5185 144.331 80.8275 140.591 79.7911 133.807C79.534 140.736 78.2325 143.78 78.5619 146.266C79.068 150.043 78.4655 159.422 78.4655 159.422C78.4655 159.422 77.3567 161.248 76.1436 161.002H76.0712C75.3408 160.852 74.6238 160.653 73.9261 160.407C73.9261 160.407 72.5121 147.491 72.5121 144.085C72.5121 140.678 72.6727 137.627 72.6727 137.627L71.9336 126.842L75.083 122.71L75.3401 122.616L75.5812 122.398L79.0761 120.086C79.0761 120.086 79.0761 120.623 79.0118 121.536L81.7274 122.848L81.9845 123.022L82.2496 123.08L86.797 123.805C86.797 123.805 87.9861 140.352 88.4039 143.737C88.8217 147.122 87.6808 160.357 87.6808 160.357Z" fill="#FCA311"/>
<path d="M87.6808 160.357C87.0166 160.697 86.3266 160.995 85.616 161.248H85.5517C84.3787 161.661 83.0691 160.001 83.0691 160.001C83.0691 160.001 81.4141 150.782 81.4623 146.955C81.5185 144.331 80.8275 140.591 79.7911 133.807C79.534 140.736 78.2325 143.78 78.5619 146.266C79.068 150.043 78.4655 159.422 78.4655 159.422C78.4655 159.422 77.3567 161.248 76.1436 161.002H76.0712C75.3408 160.852 74.6238 160.653 73.9261 160.407C73.9261 160.407 72.5121 147.491 72.5121 144.085C72.5121 140.678 72.6727 137.627 72.6727 137.627L71.9336 126.842L75.083 122.71L75.3401 122.616L75.5812 122.398L79.0761 120.086C79.0761 120.086 79.0761 120.623 79.0118 121.536L81.7274 122.848L81.9845 123.022L82.2496 123.08L86.797 123.805C86.797 123.805 87.9861 140.352 88.4039 143.737C88.8217 147.122 87.6808 160.357 87.6808 160.357Z" fill="url(#paint14_linear)"/>
<path d="M109.084 102.677C109.141 102.64 109.208 102.62 109.277 102.619C109.462 102.619 109.47 102.887 109.406 103.046C109.238 103.491 108.994 103.909 108.683 104.286C108.582 104.379 108.522 104.503 108.514 104.633C108.514 104.764 108.642 104.858 108.739 104.952C109.034 105.262 109.245 105.63 109.352 106.027C109.46 106.424 109.462 106.838 109.358 107.236C109.135 108.029 108.676 108.754 108.032 109.33C107.877 109.508 107.684 109.657 107.465 109.768C107.245 109.879 107.004 109.949 106.754 109.975C105.887 109.975 104.802 109.011 104.457 108.344C104.331 108.011 104.303 107.655 104.376 107.309C104.45 106.963 104.621 106.641 104.874 106.373C105.9 104.833 107.35 103.559 109.084 102.677V102.677Z" fill="#A67C52"/>
<path d="M83.9131 95.066C84.1943 95.327 84.6282 95.5951 84.5077 95.9358C84.4434 96.117 84.2265 96.2257 84.0658 96.3562C83.6693 96.7355 83.4555 97.2411 83.4712 97.7623C83.4882 98.2808 83.4067 98.798 83.2302 99.2917C83.1299 99.5359 82.9392 99.7414 82.6904 99.8735C82.4415 100.006 82.1498 100.056 81.8644 100.016C81.535 99.9367 81.2056 99.6758 80.8842 99.799C80.5628 99.9222 80.5628 100.161 80.4343 100.364C80.2588 100.614 80.0092 100.815 79.7138 100.943C79.4183 101.071 79.089 101.122 78.7631 101.089C78.1186 101.002 77.4976 100.808 76.9313 100.517C76.6908 100.43 76.482 100.284 76.3288 100.096C76.2353 99.9124 76.2127 99.7058 76.2645 99.5091C76.4631 98.9191 76.7879 98.37 77.2206 97.8928C77.9133 96.9296 78.3302 95.8263 78.4337 94.6819C78.498 93.8846 78.4337 93.0076 79.0042 92.3915C79.8076 91.5507 81.6314 91.558 82.5875 92.1741C83.5435 92.7901 83.0294 94.247 83.9131 95.066Z" fill="#A67C52"/>
<path d="M82.7722 91.4565C82.6602 91.6552 82.4909 91.823 82.2821 91.9421C81.8563 92.1668 81.4787 92.4278 81.0931 92.6669C80.7042 92.8982 80.4304 93.2569 80.3298 93.6672C80.1611 94.392 80.611 95.2183 80.3298 95.9503C80.2254 96.1025 79.9602 96.0083 79.8558 95.8633C79.7513 95.7184 79.6871 95.5372 79.5264 95.4502C79.2452 95.3052 78.9077 95.5517 78.7872 95.8199C78.6627 96.1317 78.6768 96.4749 78.8266 96.7776C78.9764 97.0802 79.2502 97.3188 79.5906 97.4434C79.5505 97.6753 79.2211 97.7696 78.9559 97.7406C78.6943 97.6757 78.4239 97.644 78.1525 97.6464C77.5499 97.7478 77.3491 98.5234 76.7224 98.6031C76.5149 98.5906 76.3134 98.5351 76.1336 98.4408C75.9538 98.3465 75.8006 98.216 75.686 98.0595L74.9549 97.3347C74.837 97.1937 74.7081 97.0605 74.5692 96.936C74.4005 96.8201 74.1273 96.8128 73.9907 96.6751C73.8542 96.5374 73.9907 96.2112 73.8461 96.0373C73.7778 95.9727 73.6919 95.9252 73.5971 95.8996C73.3867 95.8037 73.2193 95.6455 73.1228 95.4516C73.0262 95.2576 73.0065 95.0396 73.0668 94.8341C73.0864 94.7824 73.0864 94.7263 73.0668 94.6747C73.0668 94.6022 72.9543 94.5732 72.874 94.5369C72.6522 94.4073 72.489 94.2104 72.4139 93.9819C72.3388 93.7533 72.3566 93.508 72.4642 93.2903C72.5865 93.0402 72.7611 92.8138 72.9784 92.6235C73.0551 92.5169 73.1638 92.4324 73.2919 92.3798C73.42 92.3271 73.5621 92.3086 73.7015 92.3263L73.822 91.3768C73.8191 91.2159 73.8558 91.0565 73.9294 90.91C74.0031 90.7635 74.1118 90.6336 74.2479 90.5296C74.3839 90.4256 74.5438 90.3501 74.7161 90.3086C74.8884 90.2671 75.0687 90.2606 75.2441 90.2896L75.0031 89.5068C74.9588 89.4067 74.9588 89.2952 75.0031 89.1951C75.0692 89.1259 75.1602 89.0797 75.2602 89.0647C75.5405 88.9925 75.8288 88.9488 76.1198 88.9342C76.0155 88.7146 75.9347 88.4864 75.8788 88.2529C75.8604 88.2193 75.8536 88.1815 75.8592 88.1443C75.8647 88.1072 75.8825 88.0724 75.9101 88.0444C75.9377 88.0164 75.9739 87.9964 76.0141 87.9871C76.0543 87.9777 76.0967 87.9794 76.1359 87.9919C76.2424 88.0064 76.3507 88.0064 76.4573 87.9919C76.4573 87.9919 76.2966 87.3251 76.2886 87.2671C76.2398 87.0578 76.283 86.8395 76.4091 86.6583C76.497 86.5681 76.6083 86.499 76.7331 86.4573C76.8579 86.4155 76.9923 86.4024 77.1241 86.4191C77.3848 86.4608 77.6352 86.5442 77.8633 86.6655C77.8633 86.4119 78.2088 86.2814 78.49 86.2597C79.0313 86.2322 79.5716 86.3288 80.0605 86.5405C80.5493 86.7521 80.9709 87.0719 81.2859 87.4701C81.3379 87.5402 81.3971 87.6057 81.4626 87.6658C81.5911 87.7396 81.7323 87.7935 81.8804 87.8252C82.1084 87.9163 82.311 88.052 82.4736 88.2225C82.6362 88.393 82.7547 88.594 82.8204 88.811C82.9408 89.2418 82.9895 89.6864 82.9651 90.1301C82.9834 90.4711 82.9482 90.8127 82.8606 91.1448C82.8447 91.2515 82.815 91.3561 82.7722 91.4565Z" fill="#2F3554"/>
<path d="M78.779 99.6758C79.448 99.9287 80.0976 100.222 80.7233 100.553C80.9163 100.646 81.0838 100.778 81.2133 100.937C81.2826 101.024 81.3251 101.127 81.3364 101.234C81.3477 101.341 81.3274 101.448 81.2776 101.546C81.1089 101.814 80.7072 101.72 80.4019 101.618C78.9862 101.185 77.4921 100.998 75.9991 101.067C75.8993 101.082 75.7969 101.072 75.7032 101.037C75.6096 101.003 75.5285 100.945 75.4688 100.872C75.4341 100.783 75.4212 100.688 75.4309 100.594C75.4406 100.501 75.4727 100.41 75.5251 100.328C76.2883 98.9438 77.5336 99.1685 78.779 99.6758Z" fill="white"/>
<path d="M106.28 110.359C105.99 111.01 105.562 111.604 105.019 112.106C104.497 112.635 103.958 113.143 103.412 113.636C102.092 114.787 100.7 115.868 99.2423 116.875C98.2521 117.665 97.0722 118.235 95.7956 118.543C95.2778 118.652 94.7358 118.622 94.2369 118.456C93.8312 118.273 93.4641 118.028 93.1523 117.731C92.7827 117.397 88.4924 112.94 88.4201 112.94C88.1767 113.058 87.9884 113.251 87.8898 113.483C87.2701 114.642 86.8864 115.892 86.757 117.173C86.7048 117.744 86.7048 118.319 86.757 118.89C86.9257 120.84 87.6809 122.848 86.9338 124.689C86.7845 125.078 86.537 125.43 86.2107 125.718C85.8962 125.966 85.5341 126.16 85.1421 126.291C84.4495 126.547 83.7273 126.731 82.9889 126.842C82.5672 126.912 82.1401 126.953 81.7115 126.965C80.1046 127.023 78.5781 126.747 77.0034 126.813C75.6697 126.878 74.344 127.189 72.9862 127.146C72.7947 127.18 72.5974 127.175 72.4078 127.134C72.2183 127.092 72.0411 127.013 71.8883 126.904C71.7356 126.794 71.611 126.656 71.5231 126.499C71.4353 126.342 71.3862 126.169 71.3794 125.994C70.8591 123.413 70.5902 120.796 70.5759 118.173C70.5759 117.26 70.5197 116.339 70.4554 115.426C70.3992 114.65 70.6322 112.679 69.652 112.527C67.1614 112.092 64.5743 112.643 62.0596 112.324C62.1294 110.839 62.8283 109.436 64.0119 108.402C64.5924 107.96 65.2225 107.574 65.8919 107.25C66.6626 106.752 67.3545 106.162 67.9487 105.496C69.6572 103.593 71.8218 102.064 74.2797 101.024C74.6713 100.851 75.0838 100.72 75.509 100.633H75.6134C75.6748 100.626 75.7368 100.626 75.7982 100.633C76.3357 100.592 76.8769 100.621 77.4051 100.72C80.9897 101.256 84.5362 101.982 88.0264 102.894C88.487 102.987 88.9234 103.16 89.3119 103.401C89.5831 103.622 89.816 103.879 90.0029 104.162C90.983 105.496 91.9391 106.844 92.9273 108.178C93.779 109.323 94.6145 110.758 95.8679 111.599C98.5962 110.598 101.172 109.288 103.533 107.699C103.862 107.475 104.288 107.228 104.665 107.381C104.791 107.431 104.903 107.505 104.995 107.598C105.919 108.323 106.73 109.12 106.28 110.359Z" fill="white"/>
<defs>
<linearGradient id="paint0_linear" x1="79.5906" y1="141.736" x2="80.9449" y2="170.591" gradientUnits="userSpaceOnUse">
<stop offset="0.01"/>
<stop offset="0.08" stop-opacity="0.69"/>
<stop offset="0.21" stop-opacity="0.32"/>
<stop offset="1" stop-opacity="0"/>
</linearGradient>
<linearGradient id="paint1_linear" x1="38306.3" y1="1576.05" x2="38313.5" y2="3387.84" gradientUnits="userSpaceOnUse">
<stop offset="0.01"/>
<stop offset="0.08" stop-opacity="0.69"/>
<stop offset="0.21" stop-opacity="0.32"/>
<stop offset="1" stop-opacity="0"/>
</linearGradient>
<linearGradient id="paint2_linear" x1="-27630.5" y1="11457.2" x2="-27390.8" y2="11560.8" gradientUnits="userSpaceOnUse">
<stop offset="0.01"/>
<stop offset="0.08" stop-opacity="0.69"/>
<stop offset="0.21" stop-opacity="0.32"/>
<stop offset="1" stop-opacity="0"/>
</linearGradient>
<linearGradient id="paint3_linear" x1="92.6168" y1="69.3942" x2="33.7829" y2="-63.0148" gradientUnits="userSpaceOnUse">
<stop offset="0.01"/>
<stop offset="0.08" stop-opacity="0.69"/>
<stop offset="0.21" stop-opacity="0.32"/>
<stop offset="1" stop-opacity="0"/>
</linearGradient>
<linearGradient id="paint4_linear" x1="2020.3" y1="739.875" x2="2065.75" y2="1102.65" gradientUnits="userSpaceOnUse">
<stop offset="0.01"/>
<stop offset="0.08" stop-opacity="0.69"/>
<stop offset="0.21" stop-opacity="0.32"/>
<stop offset="1" stop-opacity="0"/>
</linearGradient>
<linearGradient id="paint5_linear" x1="-11090.5" y1="-1818.49" x2="-11199.8" y2="-1729.97" gradientUnits="userSpaceOnUse">
<stop offset="0.01"/>
<stop offset="0.08" stop-opacity="0.69"/>
<stop offset="0.21" stop-opacity="0.32"/>
<stop offset="1" stop-opacity="0"/>
</linearGradient>
<linearGradient id="paint6_linear" x1="6651.23" y1="6106.03" x2="6564.56" y2="14548.3" gradientUnits="userSpaceOnUse">
<stop offset="0.01"/>
<stop offset="0.08" stop-opacity="0.69"/>
<stop offset="0.21" stop-opacity="0.32"/>
<stop offset="1" stop-opacity="0"/>
</linearGradient>
<linearGradient id="paint7_linear" x1="6668.17" y1="10617.5" x2="3158.75" y2="11842.2" gradientUnits="userSpaceOnUse">
<stop offset="0.01"/>
<stop offset="0.08" stop-opacity="0.69"/>
<stop offset="0.21" stop-opacity="0.32"/>
<stop offset="1" stop-opacity="0"/>
</linearGradient>
<linearGradient id="paint8_linear" x1="4068.67" y1="9719.53" x2="-818.394" y2="11009.6" gradientUnits="userSpaceOnUse">
<stop offset="0.01"/>
<stop offset="0.08" stop-opacity="0.69"/>
<stop offset="0.21" stop-opacity="0.32"/>
<stop offset="1" stop-opacity="0"/>
</linearGradient>
<linearGradient id="paint9_linear" x1="5117.69" y1="1542.47" x2="6043.36" y2="3972.82" gradientUnits="userSpaceOnUse">
<stop offset="0.01"/>
<stop offset="0.08" stop-opacity="0.69"/>
<stop offset="0.21" stop-opacity="0.32"/>
<stop offset="1" stop-opacity="0"/>
</linearGradient>
<linearGradient id="paint10_linear" x1="6712.59" y1="6434.85" x2="17039.8" y2="12394.1" gradientUnits="userSpaceOnUse">
<stop offset="0.01"/>
<stop offset="0.08" stop-opacity="0.69"/>
<stop offset="0.21" stop-opacity="0.32"/>
<stop offset="1" stop-opacity="0"/>
</linearGradient>
<linearGradient id="paint11_linear" x1="7832.12" y1="12002.3" x2="10361.6" y2="807.398" gradientUnits="userSpaceOnUse">
<stop offset="0.01"/>
<stop offset="0.08" stop-opacity="0.69"/>
<stop offset="0.21" stop-opacity="0.32"/>
<stop offset="1" stop-opacity="0"/>
</linearGradient>
<linearGradient id="paint12_linear" x1="6727.84" y1="4247.91" x2="6339.92" y2="18291.6" gradientUnits="userSpaceOnUse">
<stop offset="0.01"/>
<stop offset="0.08" stop-opacity="0.69"/>
<stop offset="0.21" stop-opacity="0.32"/>
<stop offset="1" stop-opacity="0"/>
</linearGradient>
<linearGradient id="paint13_linear" x1="2087.47" y1="7647.14" x2="4339.93" y2="8619.04" gradientUnits="userSpaceOnUse">
<stop offset="0.01"/>
<stop offset="0.08" stop-opacity="0.69"/>
<stop offset="0.21" stop-opacity="0.32"/>
<stop offset="1" stop-opacity="0"/>
</linearGradient>
<linearGradient id="paint14_linear" x1="2780.36" y1="9828.82" x2="4647.63" y2="10878.9" gradientUnits="userSpaceOnUse">
<stop offset="0.01"/>
<stop offset="0.08" stop-opacity="0.69"/>
<stop offset="0.21" stop-opacity="0.32"/>
<stop offset="1" stop-opacity="0"/>
</linearGradient>
</defs>
</svg>
