<svg width="18" height="18" viewBox="0 0 18 18" fill="none" xmlns="http://www.w3.org/2000/svg">
<path d="M4.55312 0.000813815L2.06408 2.67149L1.09275 1.63023L0 2.7992L1.51771 4.42618L2.06408 4.98423L2.61046 4.42536L5.64587 1.17142L4.55312 0V0.000813815ZM8.13491 1.40001V3.02698H18V1.40001H8.13491ZM4.55312 6.5087L2.06408 9.18019L1.09275 8.13567L0 9.30709L1.51771 10.9341L2.06408 11.4921L2.61046 10.9332L5.64587 7.67931L4.55312 6.50789V6.5087ZM8.13491 7.9079V9.53487H18V7.9079H8.13491ZM4.55312 13.0166L2.06408 15.6873L1.09275 14.646L0 15.815L1.51771 17.4419L2.06408 18L2.61046 17.4411L5.64587 14.1872L4.55312 13.0158V13.0166ZM8.13491 14.4158V16.0428H18V14.4158H8.13491Z" fill="white"/>
</svg>
